G04 Layer_Physical_Order=1*
G04 Layer_Color=255*
%FSLAX24Y24*%
%MOIN*%
G70*
G01*
G75*
%ADD10R,0.0354X0.0551*%
%ADD11R,0.0551X0.0354*%
%ADD12R,0.0217X0.0453*%
%ADD13R,0.0354X0.0315*%
%ADD14R,0.0394X0.0256*%
%ADD15R,0.0256X0.0413*%
%ADD16R,0.0394X0.0551*%
%ADD17R,0.0551X0.0394*%
%ADD18R,0.0315X0.0354*%
%ADD19R,0.0157X0.0709*%
%ADD20R,0.0866X0.0984*%
%ADD21R,0.0787X0.0197*%
%ADD22R,0.0650X0.0118*%
%ADD23O,0.0591X0.0217*%
%ADD24O,0.0217X0.0591*%
%ADD25C,0.0197*%
%ADD26C,0.0098*%
%ADD27C,0.0100*%
%ADD28C,0.0669*%
%ADD29P,0.0724X8X292.5*%
%ADD30C,0.0300*%
%ADD31P,0.0724X8X202.5*%
%ADD32C,0.0600*%
%ADD33C,0.0250*%
%ADD34C,0.0354*%
G36*
X2767Y17077D02*
X2118Y16427D01*
X2085Y16379D01*
X2074Y16321D01*
Y12227D01*
X2024Y12214D01*
X1941Y12278D01*
X1835Y12322D01*
X1722Y12336D01*
X1609Y12322D01*
X1504Y12278D01*
X1414Y12208D01*
X1398Y12189D01*
X1337Y12191D01*
X1327Y12206D01*
X1110Y12423D01*
X1129Y12469D01*
X1269D01*
Y13061D01*
Y13653D01*
X889D01*
Y15776D01*
X1269D01*
Y16368D01*
Y16960D01*
X1055D01*
X1036Y17006D01*
X1153Y17123D01*
X2748D01*
X2767Y17077D01*
D02*
G37*
G36*
X8411Y13486D02*
X8402Y13473D01*
X8384Y13386D01*
X8402Y13299D01*
X8451Y13225D01*
X8525Y13175D01*
X8532Y13174D01*
Y13013D01*
X9086D01*
Y13220D01*
X8830D01*
X8804Y13270D01*
X8823Y13299D01*
X8840Y13386D01*
X8888Y13403D01*
X9615D01*
Y13249D01*
X9843D01*
Y13149D01*
X9615D01*
Y12892D01*
X9715D01*
X9734Y12846D01*
X9687Y12798D01*
X9086D01*
Y12913D01*
X8532D01*
Y12798D01*
X8178D01*
X8120Y12787D01*
X8072Y12754D01*
X7904Y12587D01*
X7854Y12608D01*
Y13120D01*
X7749D01*
Y13176D01*
X7900Y13327D01*
X8258D01*
Y13531D01*
X8387D01*
X8411Y13486D01*
D02*
G37*
G36*
X14005Y16553D02*
X14043Y16528D01*
X14124Y16512D01*
X14205Y16528D01*
X14243Y16553D01*
X14282Y16570D01*
X14320Y16553D01*
X14358Y16528D01*
X14439Y16512D01*
X14514Y16527D01*
X14529Y16523D01*
X14564Y16504D01*
Y16408D01*
X14554Y16401D01*
X14504Y16327D01*
X14487Y16240D01*
X14504Y16153D01*
X14554Y16079D01*
X14628Y16030D01*
X14715Y16012D01*
X14802Y16030D01*
X14838Y16054D01*
X14906Y16042D01*
X14908Y16040D01*
X14982Y15990D01*
X15069Y15973D01*
X15156Y15990D01*
X15230Y16040D01*
X15279Y16114D01*
X15288Y16159D01*
X15339D01*
X15341Y16153D01*
X15390Y16079D01*
X15464Y16030D01*
X15551Y16012D01*
X15638Y16030D01*
X15712Y16079D01*
X15719Y16090D01*
X15766D01*
X15782Y16040D01*
X15770Y16032D01*
X15149Y15412D01*
X15117Y15363D01*
X15105Y15305D01*
X15105Y15305D01*
Y14833D01*
X15095Y14826D01*
X15045Y14753D01*
X15028Y14665D01*
X15045Y14578D01*
X15095Y14504D01*
X15165Y14458D01*
X15170Y14435D01*
X15173Y14403D01*
X15144Y14384D01*
X15095Y14310D01*
X15077Y14223D01*
X15095Y14135D01*
X15144Y14061D01*
X15177Y14039D01*
X15193Y13990D01*
X15144Y13916D01*
X15127Y13829D01*
X15144Y13742D01*
X15193Y13668D01*
X15267Y13618D01*
X15354Y13601D01*
X15442Y13618D01*
X15515Y13668D01*
X15565Y13742D01*
X15582Y13829D01*
X15580Y13841D01*
X15845Y14106D01*
X15877Y14155D01*
X15889Y14213D01*
Y15036D01*
X15952Y15099D01*
X15991Y15067D01*
X15986Y15061D01*
X15970Y14980D01*
X15986Y14900D01*
X16011Y14862D01*
X16031Y14816D01*
X15985Y14747D01*
X15979Y14715D01*
X16368D01*
Y14615D01*
X15979D01*
X15985Y14584D01*
X16031Y14515D01*
X16011Y14468D01*
X15986Y14431D01*
X15970Y14350D01*
X15986Y14270D01*
X16032Y14201D01*
Y14184D01*
X15986Y14116D01*
X15970Y14035D01*
X15986Y13955D01*
X16012Y13916D01*
X16028Y13878D01*
X16012Y13840D01*
X15986Y13801D01*
X15970Y13720D01*
X15986Y13640D01*
X16032Y13571D01*
Y13555D01*
X15986Y13486D01*
X15970Y13406D01*
X15986Y13325D01*
X16009Y13291D01*
X15982Y13241D01*
X13013D01*
X13006Y13252D01*
X12932Y13301D01*
X12917Y13304D01*
X12903Y13352D01*
X13716Y14165D01*
X13748Y14213D01*
X13760Y14271D01*
Y16361D01*
X13748Y16419D01*
X13716Y16468D01*
X13690Y16493D01*
X13722Y16532D01*
X13728Y16528D01*
X13809Y16512D01*
X13890Y16528D01*
X13928Y16553D01*
X13967Y16570D01*
X14005Y16553D01*
D02*
G37*
G36*
X1504Y10261D02*
X1609Y10218D01*
X1722Y10203D01*
X1835Y10218D01*
X1941Y10261D01*
X2024Y10325D01*
X2074Y10312D01*
Y9380D01*
X2085Y9322D01*
X2086Y9321D01*
X2077Y9311D01*
Y8878D01*
X2293Y8661D01*
X2726D01*
X2753Y8688D01*
X3169Y8271D01*
Y7833D01*
X3123Y7814D01*
X2935Y8003D01*
X2947Y8094D01*
X2932Y8208D01*
X2888Y8313D01*
X2819Y8403D01*
X2728Y8473D01*
X2623Y8516D01*
X2510Y8531D01*
X2397Y8516D01*
X2291Y8473D01*
X2201Y8403D01*
X2132Y8313D01*
X2088Y8208D01*
X2073Y8094D01*
X2088Y7981D01*
X2132Y7876D01*
X2201Y7786D01*
X2291Y7716D01*
X2397Y7673D01*
X2510Y7658D01*
X2623Y7673D01*
X2675Y7694D01*
X2850Y7519D01*
Y7444D01*
X2800Y7419D01*
X2729Y7474D01*
X2623Y7518D01*
X2560Y7526D01*
Y7094D01*
Y6663D01*
X2623Y6671D01*
X2729Y6715D01*
X2800Y6770D01*
X2850Y6745D01*
Y6441D01*
X2800Y6417D01*
X2728Y6473D01*
X2623Y6516D01*
X2510Y6531D01*
X2397Y6516D01*
X2329Y6488D01*
X1863Y6954D01*
Y9323D01*
X1852Y9381D01*
X1819Y9429D01*
X1371Y9877D01*
Y10312D01*
X1421Y10325D01*
X1504Y10261D01*
D02*
G37*
G36*
X17526Y11386D02*
Y10218D01*
X17377D01*
Y9843D01*
Y9467D01*
X17526D01*
Y5592D01*
X17377D01*
Y5217D01*
Y4841D01*
X17526D01*
Y191D01*
X191D01*
Y6174D01*
X237Y6193D01*
X924Y5506D01*
X950Y5488D01*
X956Y5429D01*
X921Y5403D01*
X852Y5313D01*
X808Y5208D01*
X794Y5094D01*
X808Y4981D01*
X852Y4876D01*
X921Y4786D01*
X1012Y4716D01*
X1117Y4673D01*
X1230Y4658D01*
X1343Y4673D01*
X1449Y4716D01*
X1539Y4786D01*
X1609Y4876D01*
X1652Y4981D01*
X1667Y5094D01*
X1652Y5208D01*
X1609Y5313D01*
X1539Y5403D01*
X1525Y5414D01*
X1541Y5462D01*
X1930D01*
X2116Y5275D01*
X2088Y5208D01*
X2073Y5094D01*
X2088Y4981D01*
X2132Y4876D01*
X2201Y4786D01*
X2291Y4716D01*
X2397Y4673D01*
X2510Y4658D01*
X2623Y4673D01*
X2728Y4716D01*
X2800Y4772D01*
X2850Y4748D01*
Y4478D01*
X2860Y4432D01*
X2831Y4412D01*
X2814Y4407D01*
X2728Y4473D01*
X2623Y4516D01*
X2510Y4531D01*
X2397Y4516D01*
X2291Y4473D01*
X2201Y4403D01*
X2132Y4313D01*
X2088Y4208D01*
X2073Y4094D01*
X2088Y3981D01*
X2132Y3876D01*
X2201Y3786D01*
X2291Y3716D01*
X2397Y3673D01*
X2510Y3658D01*
X2623Y3673D01*
X2728Y3716D01*
X2819Y3786D01*
X2888Y3876D01*
X2932Y3981D01*
X2947Y4094D01*
X2932Y4208D01*
X2907Y4268D01*
X2949Y4297D01*
X3168Y4078D01*
X3176Y4013D01*
X3204Y3946D01*
X3248Y3888D01*
X3306Y3844D01*
X3373Y3816D01*
X3445Y3807D01*
X3517Y3816D01*
X3584Y3844D01*
X3594Y3852D01*
X3639Y3830D01*
Y2826D01*
X3628Y2819D01*
X3579Y2745D01*
X3562Y2657D01*
X3579Y2570D01*
X3628Y2496D01*
X3702Y2447D01*
X3789Y2430D01*
X3877Y2447D01*
X3950Y2496D01*
X4000Y2570D01*
X4017Y2657D01*
X4000Y2745D01*
X3950Y2819D01*
X3940Y2826D01*
Y4200D01*
X3928Y4257D01*
X3896Y4306D01*
X3470Y4731D01*
Y6791D01*
X3517Y6810D01*
X7234Y3092D01*
X7283Y3060D01*
X7341Y3048D01*
X11151D01*
X11158Y3038D01*
X11232Y2988D01*
X11319Y2971D01*
X11406Y2988D01*
X11480Y3038D01*
X11529Y3112D01*
X11547Y3199D01*
X11529Y3286D01*
X11480Y3360D01*
X11406Y3409D01*
X11319Y3427D01*
X11232Y3409D01*
X11158Y3360D01*
X11151Y3349D01*
X7403D01*
X3875Y6878D01*
X3889Y6934D01*
X3950Y6975D01*
X4000Y7049D01*
X4017Y7136D01*
X4000Y7223D01*
X3950Y7297D01*
X3940Y7304D01*
Y7974D01*
X3990Y7997D01*
X4047Y7959D01*
X4134Y7941D01*
X4175Y7950D01*
X4210Y7943D01*
X4693D01*
Y7629D01*
X4872D01*
Y7579D01*
X4922D01*
Y7124D01*
X5051D01*
Y7126D01*
X6622D01*
Y7124D01*
X6751D01*
Y7579D01*
X6851D01*
Y7124D01*
X6980D01*
Y7126D01*
X7174D01*
Y7124D01*
X7302D01*
Y7579D01*
X7402D01*
Y7124D01*
X7578D01*
Y7579D01*
X7678D01*
Y7124D01*
X7807D01*
Y7126D01*
X12410D01*
Y7124D01*
X12539D01*
Y7579D01*
X12639D01*
Y7124D01*
X12814D01*
Y7579D01*
X12864D01*
Y7629D01*
X13043D01*
Y7970D01*
X13140D01*
X13197Y7981D01*
X13246Y8014D01*
X13275Y8042D01*
X13287Y8040D01*
X13375Y8057D01*
X13448Y8107D01*
X13498Y8181D01*
X13515Y8268D01*
X13498Y8355D01*
X13448Y8429D01*
X13375Y8478D01*
X13287Y8496D01*
X13200Y8478D01*
X13126Y8429D01*
X13077Y8355D01*
X13060Y8271D01*
X12512D01*
X12480Y8309D01*
X12482Y8317D01*
X12464Y8404D01*
X12415Y8478D01*
X12341Y8527D01*
X12314Y8533D01*
X12319Y8583D01*
X16312D01*
X16370Y8594D01*
X16418Y8627D01*
X16839Y9047D01*
X16871Y9096D01*
X16883Y9154D01*
Y10814D01*
X17476Y11407D01*
X17526Y11386D01*
D02*
G37*
G36*
X520Y10261D02*
X625Y10218D01*
X738Y10203D01*
X851Y10218D01*
X957Y10261D01*
X1020Y10310D01*
X1070Y10285D01*
Y9815D01*
X1081Y9757D01*
X1114Y9709D01*
X1249Y9574D01*
X1230Y9528D01*
X1014D01*
X797Y9311D01*
Y8878D01*
X1014Y8661D01*
X1447D01*
X1516Y8730D01*
X1562Y8711D01*
Y8449D01*
X1512Y8424D01*
X1449Y8473D01*
X1343Y8516D01*
X1230Y8531D01*
X1117Y8516D01*
X1012Y8473D01*
X921Y8403D01*
X852Y8313D01*
X808Y8208D01*
X794Y8094D01*
X808Y7981D01*
X852Y7876D01*
X921Y7786D01*
X1012Y7716D01*
X1117Y7673D01*
X1230Y7658D01*
X1343Y7673D01*
X1449Y7716D01*
X1512Y7765D01*
X1562Y7740D01*
Y7451D01*
X1512Y7426D01*
X1450Y7474D01*
X1344Y7518D01*
X1280Y7526D01*
Y7094D01*
Y6663D01*
X1344Y6671D01*
X1450Y6715D01*
X1540Y6784D01*
X1550Y6797D01*
X1600Y6795D01*
X1606Y6785D01*
X2116Y6275D01*
X2088Y6208D01*
X2073Y6094D01*
X2088Y5981D01*
X2132Y5876D01*
X2201Y5786D01*
X2291Y5716D01*
X2397Y5673D01*
X2510Y5658D01*
X2623Y5673D01*
X2728Y5716D01*
X2800Y5772D01*
X2850Y5748D01*
Y5441D01*
X2800Y5417D01*
X2728Y5473D01*
X2623Y5516D01*
X2510Y5531D01*
X2397Y5516D01*
X2329Y5488D01*
X2099Y5719D01*
X2050Y5751D01*
X1992Y5763D01*
X1585D01*
X1560Y5813D01*
X1609Y5876D01*
X1652Y5981D01*
X1667Y6094D01*
X1652Y6208D01*
X1609Y6313D01*
X1539Y6403D01*
X1449Y6473D01*
X1343Y6516D01*
X1230Y6531D01*
X1117Y6516D01*
X1012Y6473D01*
X921Y6403D01*
X852Y6313D01*
X808Y6208D01*
X798Y6128D01*
X745Y6110D01*
X406Y6449D01*
Y10285D01*
X456Y10310D01*
X520Y10261D01*
D02*
G37*
G36*
X13659Y17663D02*
Y17295D01*
X13609Y17269D01*
X13575Y17291D01*
X13494Y17307D01*
X13413Y17291D01*
X13380Y17269D01*
X13330Y17295D01*
Y17799D01*
X13318Y17856D01*
X13286Y17905D01*
X12686Y18504D01*
X12637Y18537D01*
X12580Y18549D01*
X8835D01*
X8777Y18537D01*
X8729Y18504D01*
X8531Y18307D01*
X8463Y18335D01*
X8350Y18350D01*
X8237Y18335D01*
X8132Y18292D01*
X8042Y18222D01*
X7972Y18132D01*
X7928Y18026D01*
X7914Y17913D01*
X7928Y17800D01*
X7972Y17695D01*
X8042Y17605D01*
X8132Y17535D01*
X8237Y17491D01*
X8350Y17477D01*
X8463Y17491D01*
X8569Y17535D01*
X8659Y17605D01*
X8729Y17695D01*
X8772Y17800D01*
X8787Y17913D01*
X8772Y18026D01*
X8744Y18094D01*
X8897Y18247D01*
X8998D01*
X9023Y18197D01*
X8972Y18132D01*
X8928Y18026D01*
X8914Y17913D01*
X8928Y17800D01*
X8972Y17695D01*
X9042Y17605D01*
X9132Y17535D01*
X9237Y17491D01*
X9350Y17477D01*
X9463Y17491D01*
X9569Y17535D01*
X9643Y17592D01*
X9845Y17389D01*
X9830Y17342D01*
X9805Y17336D01*
X9731Y17287D01*
X9681Y17213D01*
X9664Y17126D01*
X9681Y17039D01*
X9719Y16983D01*
X9695Y16933D01*
X9086D01*
Y17056D01*
X8761D01*
Y16829D01*
X8803D01*
X8822Y16783D01*
X8673Y16634D01*
X8337D01*
Y16559D01*
X8002D01*
Y16624D01*
X7631D01*
X7611Y16670D01*
X7683Y16742D01*
X8002D01*
Y17254D01*
X7451D01*
Y16943D01*
X7418Y16917D01*
X7372Y16937D01*
Y16939D01*
X6781D01*
Y16790D01*
X6557Y16566D01*
X6547Y16566D01*
X6506Y16585D01*
Y16939D01*
X6411D01*
Y17485D01*
X6463Y17491D01*
X6569Y17535D01*
X6659Y17605D01*
X6729Y17695D01*
X6772Y17800D01*
X6787Y17913D01*
X6772Y18026D01*
X6729Y18132D01*
X6659Y18222D01*
X6569Y18292D01*
X6463Y18335D01*
X6350Y18350D01*
X6237Y18335D01*
X6132Y18292D01*
X6042Y18222D01*
X5972Y18132D01*
X5928Y18026D01*
X5914Y17913D01*
X5928Y17800D01*
X5972Y17695D01*
X6010Y17646D01*
Y16939D01*
X5915D01*
Y16567D01*
X5914D01*
Y16111D01*
X5915D01*
Y15738D01*
X6506D01*
Y15887D01*
X6732Y16113D01*
X6733Y16113D01*
X6781Y16092D01*
Y15738D01*
X7372D01*
Y15814D01*
X7644D01*
X7964Y15494D01*
X8013Y15461D01*
X8071Y15450D01*
X8247D01*
X8254Y15439D01*
X8328Y15390D01*
X8415Y15373D01*
X8503Y15390D01*
X8576Y15439D01*
X8626Y15513D01*
X8643Y15600D01*
X8626Y15688D01*
X8576Y15761D01*
X8503Y15811D01*
X8415Y15828D01*
X8328Y15811D01*
X8254Y15761D01*
X8247Y15751D01*
X8133D01*
X7822Y16062D01*
X7830Y16097D01*
X7841Y16112D01*
X8002D01*
Y16158D01*
X8337D01*
Y16083D01*
X8510D01*
Y15994D01*
X8525Y15917D01*
X8569Y15852D01*
X8736Y15685D01*
X8737Y15676D01*
X8765Y15609D01*
X8809Y15551D01*
X8867Y15507D01*
X8934Y15480D01*
X9006Y15470D01*
X9078Y15480D01*
X9145Y15507D01*
X9202Y15551D01*
X9212Y15564D01*
X9262Y15547D01*
Y15020D01*
X9675D01*
Y15669D01*
X9324D01*
X9280Y15719D01*
X9284Y15748D01*
X9280Y15777D01*
X9324Y15827D01*
X9634D01*
Y15825D01*
X9793D01*
Y16152D01*
X9893D01*
Y15825D01*
X10051D01*
Y15827D01*
X10423D01*
Y16341D01*
X10469Y16360D01*
X11346Y15484D01*
X11395Y15451D01*
X11452Y15440D01*
X11488D01*
X11512Y15396D01*
X11498Y15376D01*
X11482Y15295D01*
X11498Y15215D01*
X11544Y15146D01*
Y15129D01*
X11498Y15061D01*
X11482Y14980D01*
X11495Y14916D01*
X11465Y14866D01*
X11102D01*
Y14941D01*
X11102D01*
X11096Y14988D01*
X11096Y14991D01*
X11105Y15059D01*
X11095Y15131D01*
X11068Y15198D01*
X11023Y15256D01*
X10966Y15300D01*
X10899Y15328D01*
X10827Y15337D01*
X10755Y15328D01*
X10688Y15300D01*
X10630Y15256D01*
X10586Y15198D01*
X10558Y15131D01*
X10549Y15059D01*
X10558Y14991D01*
X10558Y14990D01*
X10551Y14941D01*
X10551Y14941D01*
X10551Y14941D01*
Y14866D01*
X10492D01*
Y14941D01*
X10417D01*
Y15020D01*
X10423D01*
Y15669D01*
X10010D01*
Y15020D01*
X10016D01*
Y14941D01*
X9941D01*
Y14193D01*
X10492D01*
Y14465D01*
X10551D01*
Y14429D01*
X11102D01*
Y14465D01*
X11463D01*
X11493Y14415D01*
X11491Y14400D01*
X12269D01*
X12263Y14432D01*
X12219Y14497D01*
X12238Y14537D01*
X12286Y14535D01*
X12318Y14487D01*
X12490Y14315D01*
X12486Y14310D01*
X12469Y14222D01*
X12486Y14135D01*
X12536Y14061D01*
X12610Y14012D01*
X12697Y13995D01*
X12784Y14012D01*
X12858Y14061D01*
X12907Y14135D01*
X12925Y14222D01*
X12907Y14310D01*
X12858Y14384D01*
X12812Y14414D01*
X12803Y14427D01*
X12775Y14455D01*
X12792Y14509D01*
X12858Y14553D01*
X12907Y14627D01*
X12925Y14715D01*
X12907Y14802D01*
X12858Y14876D01*
X12847Y14883D01*
Y15010D01*
X12836Y15067D01*
X12803Y15116D01*
X12518Y15402D01*
X12469Y15434D01*
X12411Y15446D01*
X12266D01*
X12239Y15496D01*
X12262Y15530D01*
X12278Y15610D01*
X12262Y15691D01*
X12216Y15759D01*
Y15776D01*
X12262Y15845D01*
X12278Y15925D01*
X12262Y16006D01*
X12236Y16044D01*
X12220Y16083D01*
X12236Y16121D01*
X12262Y16160D01*
X12278Y16240D01*
X12262Y16321D01*
X12216Y16389D01*
X12148Y16435D01*
X12067Y16451D01*
X11882D01*
X11445Y16888D01*
X11396Y16921D01*
X11338Y16932D01*
X11143D01*
X11136Y16943D01*
X11062Y16992D01*
X10975Y17009D01*
X10887Y16992D01*
X10813Y16943D01*
X10803Y16926D01*
X10739Y16921D01*
X10214Y17446D01*
X10236Y17488D01*
X10240Y17491D01*
X10350Y17477D01*
X10463Y17491D01*
X10569Y17535D01*
X10659Y17605D01*
X10729Y17695D01*
X10772Y17800D01*
X10787Y17913D01*
X10772Y18026D01*
X10729Y18132D01*
X10678Y18197D01*
X10703Y18247D01*
X10998D01*
X11023Y18197D01*
X10972Y18132D01*
X10928Y18026D01*
X10914Y17913D01*
X10928Y17800D01*
X10972Y17695D01*
X11042Y17605D01*
X11132Y17535D01*
X11237Y17491D01*
X11350Y17477D01*
X11463Y17491D01*
X11569Y17535D01*
X11659Y17605D01*
X11729Y17695D01*
X11772Y17800D01*
X11787Y17913D01*
X11772Y18026D01*
X11729Y18132D01*
X11678Y18197D01*
X11703Y18247D01*
X11970D01*
X11989Y18201D01*
X11917Y18130D01*
Y17697D01*
X12134Y17480D01*
X12567D01*
X12783Y17697D01*
Y17916D01*
X12830Y17935D01*
X13029Y17736D01*
Y17295D01*
X12979Y17269D01*
X12945Y17291D01*
X12864Y17307D01*
X12784Y17291D01*
X12715Y17245D01*
X12698D01*
X12630Y17291D01*
X12549Y17307D01*
X12469Y17291D01*
X12400Y17245D01*
X12355Y17177D01*
X12338Y17096D01*
Y17051D01*
X12324Y17049D01*
X12275Y17016D01*
X12217Y16958D01*
X12205Y16960D01*
X12118Y16943D01*
X12044Y16893D01*
X11994Y16819D01*
X11977Y16732D01*
X11994Y16645D01*
X12044Y16571D01*
X12118Y16522D01*
X12205Y16504D01*
X12292Y16522D01*
X12349Y16560D01*
X12400Y16573D01*
X12469Y16528D01*
X12549Y16512D01*
X12630Y16528D01*
X12674Y16557D01*
X12718Y16557D01*
X12735Y16542D01*
X12758Y16508D01*
X13111Y16154D01*
X13109Y16142D01*
X13126Y16055D01*
X13176Y15981D01*
X13249Y15931D01*
X13337Y15914D01*
X13409Y15928D01*
X13459Y15899D01*
Y14333D01*
X12307Y13181D01*
X12247Y13193D01*
X12236Y13210D01*
X12220Y13248D01*
X12236Y13286D01*
X12262Y13325D01*
X12278Y13406D01*
X12262Y13486D01*
X12216Y13555D01*
Y13571D01*
X12262Y13640D01*
X12278Y13720D01*
X12262Y13801D01*
X12216Y13869D01*
Y13886D01*
X12262Y13955D01*
X12278Y14035D01*
X12262Y14116D01*
X12237Y14153D01*
X12217Y14200D01*
X12263Y14269D01*
X12269Y14300D01*
X11491D01*
X11497Y14269D01*
X11519Y14236D01*
X11492Y14186D01*
X11427D01*
X11370Y14174D01*
X11321Y14142D01*
X11150Y13971D01*
X11104Y13990D01*
Y14005D01*
X10550D01*
Y13901D01*
X9185D01*
X9168Y13951D01*
X9202Y13977D01*
X9247Y14034D01*
X9274Y14101D01*
X9284Y14173D01*
X9300Y14191D01*
X9419D01*
Y14517D01*
X9191D01*
Y14435D01*
X9146Y14413D01*
X9145Y14414D01*
X9078Y14442D01*
X9006Y14451D01*
X8934Y14442D01*
X8867Y14414D01*
X8815Y14374D01*
X8258D01*
Y14429D01*
X7976D01*
Y14636D01*
X8031D01*
Y14921D01*
X8040Y14933D01*
X8055Y15010D01*
X8040Y15087D01*
X8031Y15099D01*
Y15384D01*
X7480D01*
Y14636D01*
X7575D01*
Y14429D01*
X7411D01*
Y14025D01*
X7373Y14017D01*
X7325Y13984D01*
X7177Y13837D01*
X7144Y13788D01*
X7133Y13730D01*
Y13122D01*
X7019D01*
Y12844D01*
Y12567D01*
X7133D01*
Y11520D01*
X7073Y11480D01*
X7024Y11406D01*
X7006Y11319D01*
X7024Y11232D01*
X7073Y11158D01*
X7120Y11127D01*
X7105Y11077D01*
X6982D01*
X6930Y11117D01*
X6863Y11144D01*
X6791Y11154D01*
X6719Y11144D01*
X6668Y11123D01*
X6630Y11149D01*
X6624Y11157D01*
Y11383D01*
X6612Y11440D01*
X6580Y11489D01*
X6420Y11649D01*
X6371Y11681D01*
X6314Y11693D01*
X6020D01*
X5993Y11743D01*
X6014Y11773D01*
X6031Y11860D01*
X6017Y11932D01*
X6046Y11982D01*
X6310D01*
X6335Y11945D01*
X6409Y11896D01*
X6496Y11879D01*
X6583Y11896D01*
X6657Y11945D01*
X6707Y12019D01*
X6724Y12106D01*
X6707Y12194D01*
X6657Y12267D01*
X6583Y12317D01*
X6496Y12334D01*
X6409Y12317D01*
X6359Y12283D01*
X5892D01*
X5515Y12661D01*
Y12864D01*
X5591D01*
Y13183D01*
X5769Y13361D01*
X5815Y13342D01*
Y13325D01*
X6190D01*
Y13484D01*
X6240D01*
Y13524D01*
X6663D01*
Y13534D01*
X6665D01*
Y13643D01*
X6663D01*
Y13917D01*
Y14429D01*
X5817D01*
Y14374D01*
X4896D01*
Y14636D01*
X4970D01*
Y15384D01*
X4605D01*
X4502Y15486D01*
X4437Y15530D01*
X4360Y15545D01*
X3504D01*
X3485Y15541D01*
X3012D01*
Y15148D01*
Y14833D01*
Y14518D01*
Y14283D01*
X3010D01*
Y14135D01*
X3998D01*
Y14283D01*
X3996D01*
Y14518D01*
Y14833D01*
Y15144D01*
X4277D01*
X4419Y15002D01*
Y14636D01*
X4494D01*
Y14173D01*
Y14006D01*
X4449D01*
Y13455D01*
X4449D01*
Y13415D01*
X4449D01*
Y12864D01*
X4879D01*
Y12655D01*
X4890Y12597D01*
X4923Y12548D01*
X5581Y11890D01*
X5575Y11860D01*
X5593Y11773D01*
X5613Y11743D01*
X5586Y11693D01*
X4653D01*
X4595Y11681D01*
X4546Y11649D01*
X3162Y10265D01*
X3150Y10267D01*
X3062Y10250D01*
X2989Y10200D01*
X2939Y10127D01*
X2922Y10039D01*
X2939Y9952D01*
X2989Y9878D01*
X3062Y9829D01*
X3150Y9812D01*
X3237Y9829D01*
X3311Y9878D01*
X3360Y9952D01*
X3377Y10039D01*
X3375Y10052D01*
X4715Y11392D01*
X5958D01*
X5987Y11342D01*
X5973Y11270D01*
X5990Y11183D01*
X6040Y11109D01*
X6050Y11102D01*
Y10729D01*
X6062Y10671D01*
X6094Y10622D01*
X6776Y9941D01*
X6757Y9895D01*
X4823D01*
X4765Y9883D01*
X4716Y9851D01*
X3410Y8544D01*
X3403Y8534D01*
X3339Y8528D01*
X2943Y8924D01*
Y9311D01*
X2726Y9528D01*
X2375D01*
Y10285D01*
X2425Y10310D01*
X2488Y10261D01*
X2594Y10218D01*
X2707Y10203D01*
X2820Y10218D01*
X2925Y10261D01*
X3016Y10331D01*
X3085Y10421D01*
X3129Y10527D01*
X3144Y10640D01*
X3129Y10753D01*
X3085Y10858D01*
X3016Y10949D01*
X2925Y11018D01*
X2907Y11025D01*
Y11514D01*
X2925Y11521D01*
X3016Y11591D01*
X3085Y11681D01*
X3129Y11787D01*
X3144Y11900D01*
X3129Y12013D01*
X3085Y12118D01*
X3016Y12208D01*
X2925Y12278D01*
X2820Y12322D01*
X2707Y12336D01*
X2594Y12322D01*
X2488Y12278D01*
X2425Y12229D01*
X2375Y12254D01*
Y13808D01*
X2410Y13824D01*
X2425Y13826D01*
X2479Y13785D01*
X2546Y13757D01*
X2618Y13748D01*
X2690Y13757D01*
X2757Y13785D01*
X2815Y13829D01*
X2859Y13887D01*
X2887Y13954D01*
X2896Y14026D01*
X2887Y14098D01*
X2859Y14165D01*
X2815Y14222D01*
X2757Y14266D01*
X2690Y14294D01*
X2618Y14304D01*
X2546Y14294D01*
X2479Y14266D01*
X2425Y14225D01*
X2410Y14227D01*
X2375Y14244D01*
Y15186D01*
X2410Y15202D01*
X2425Y15204D01*
X2479Y15163D01*
X2546Y15135D01*
X2618Y15126D01*
X2690Y15135D01*
X2757Y15163D01*
X2815Y15207D01*
X2859Y15265D01*
X2887Y15332D01*
X2896Y15404D01*
X2887Y15475D01*
X2859Y15543D01*
X2815Y15600D01*
X2757Y15644D01*
X2690Y15672D01*
X2618Y15682D01*
X2546Y15672D01*
X2479Y15644D01*
X2425Y15603D01*
X2410Y15605D01*
X2375Y15621D01*
Y16259D01*
X2826Y16710D01*
X2872Y16691D01*
Y16418D01*
X3939D01*
Y16960D01*
X3720D01*
X3700Y17010D01*
X5331Y18641D01*
X12681D01*
X13659Y17663D01*
D02*
G37*
%LPC*%
G36*
X4822Y7529D02*
X4693D01*
Y7124D01*
X4822D01*
Y7529D01*
D02*
G37*
G36*
X13043D02*
X12914D01*
Y7124D01*
X13043D01*
Y7529D01*
D02*
G37*
G36*
X1180Y7526D02*
X1117Y7518D01*
X1011Y7474D01*
X920Y7404D01*
X851Y7314D01*
X807Y7208D01*
X799Y7144D01*
X1180D01*
Y7526D01*
D02*
G37*
G36*
X2460Y7044D02*
X2078D01*
X2086Y6981D01*
X2130Y6875D01*
X2200Y6784D01*
X2291Y6715D01*
X2396Y6671D01*
X2460Y6663D01*
Y7044D01*
D02*
G37*
G36*
X12018Y6504D02*
X11914Y6491D01*
X11817Y6450D01*
X11734Y6387D01*
X11670Y6303D01*
X11630Y6206D01*
X11616Y6102D01*
X11630Y5998D01*
X11670Y5901D01*
X11734Y5818D01*
X11817Y5754D01*
X11914Y5714D01*
X12018Y5701D01*
X12122Y5714D01*
X12219Y5754D01*
X12302Y5818D01*
X12366Y5901D01*
X12406Y5998D01*
X12420Y6102D01*
X12406Y6206D01*
X12366Y6303D01*
X12302Y6387D01*
X12219Y6450D01*
X12122Y6491D01*
X12018Y6504D01*
D02*
G37*
G36*
X1180Y7044D02*
X799D01*
X807Y6981D01*
X851Y6875D01*
X920Y6784D01*
X1011Y6715D01*
X1117Y6671D01*
X1180Y6663D01*
Y7044D01*
D02*
G37*
G36*
X5719Y6504D02*
X5614Y6491D01*
X5518Y6450D01*
X5434Y6387D01*
X5370Y6303D01*
X5330Y6206D01*
X5317Y6102D01*
X5330Y5998D01*
X5370Y5901D01*
X5434Y5818D01*
X5518Y5754D01*
X5614Y5714D01*
X5719Y5701D01*
X5823Y5714D01*
X5919Y5754D01*
X6003Y5818D01*
X6067Y5901D01*
X6107Y5998D01*
X6120Y6102D01*
X6107Y6206D01*
X6067Y6303D01*
X6003Y6387D01*
X5919Y6450D01*
X5823Y6491D01*
X5719Y6504D01*
D02*
G37*
G36*
X2460Y7526D02*
X2396Y7518D01*
X2291Y7474D01*
X2200Y7404D01*
X2130Y7314D01*
X2086Y7208D01*
X2078Y7144D01*
X2460D01*
Y7526D01*
D02*
G37*
G36*
X17277Y10218D02*
X17030D01*
Y9893D01*
X17277D01*
Y10218D01*
D02*
G37*
G36*
X7300Y17863D02*
X6919D01*
X6927Y17800D01*
X6971Y17694D01*
X7040Y17603D01*
X7131Y17534D01*
X7237Y17490D01*
X7300Y17482D01*
Y17863D01*
D02*
G37*
G36*
X1852Y13011D02*
X1369D01*
Y12469D01*
X1852D01*
Y13011D01*
D02*
G37*
G36*
X17277Y9793D02*
X17030D01*
Y9467D01*
X17277D01*
Y9793D01*
D02*
G37*
G36*
X7400Y18345D02*
Y17963D01*
X7782D01*
X7774Y18027D01*
X7730Y18133D01*
X7660Y18223D01*
X7570Y18293D01*
X7464Y18337D01*
X7400Y18345D01*
D02*
G37*
G36*
X7300D02*
X7237Y18337D01*
X7131Y18293D01*
X7040Y18223D01*
X6971Y18133D01*
X6927Y18027D01*
X6919Y17963D01*
X7300D01*
Y18345D01*
D02*
G37*
G36*
X7782Y17863D02*
X7400D01*
Y17482D01*
X7464Y17490D01*
X7570Y17534D01*
X7660Y17603D01*
X7730Y17694D01*
X7774Y17800D01*
X7782Y17863D01*
D02*
G37*
G36*
X17277Y5592D02*
X17030D01*
Y5267D01*
X17277D01*
Y5592D01*
D02*
G37*
G36*
X4920Y3694D02*
X4595D01*
Y3447D01*
X4920D01*
Y3694D01*
D02*
G37*
G36*
X5346D02*
X5020D01*
Y3447D01*
X5346D01*
Y3694D01*
D02*
G37*
G36*
X12696Y3694D02*
X12370D01*
Y3447D01*
X12696D01*
Y3694D01*
D02*
G37*
G36*
X12746Y1753D02*
X12659Y1736D01*
X12585Y1687D01*
X12536Y1613D01*
X12518Y1526D01*
X12536Y1438D01*
X12585Y1365D01*
X12596Y1357D01*
Y1276D01*
X12372D01*
Y685D01*
X13120D01*
Y1276D01*
X12897D01*
Y1357D01*
X12907Y1365D01*
X12957Y1438D01*
X12974Y1526D01*
X12957Y1613D01*
X12907Y1687D01*
X12833Y1736D01*
X12746Y1753D01*
D02*
G37*
G36*
X1132Y1980D02*
X967Y1963D01*
X808Y1915D01*
X661Y1837D01*
X532Y1731D01*
X427Y1603D01*
X349Y1456D01*
X301Y1297D01*
X284Y1132D01*
X301Y967D01*
X349Y808D01*
X427Y661D01*
X532Y532D01*
X661Y427D01*
X808Y349D01*
X967Y301D01*
X1132Y284D01*
X1297Y301D01*
X1456Y349D01*
X1603Y427D01*
X1731Y532D01*
X1837Y661D01*
X1915Y808D01*
X1963Y967D01*
X1980Y1132D01*
X1963Y1297D01*
X1915Y1456D01*
X1837Y1603D01*
X1731Y1731D01*
X1603Y1837D01*
X1456Y1915D01*
X1297Y1963D01*
X1132Y1980D01*
D02*
G37*
G36*
X16585Y1965D02*
X16422Y1949D01*
X16266Y1901D01*
X16122Y1824D01*
X15996Y1721D01*
X15892Y1594D01*
X15815Y1451D01*
X15768Y1294D01*
X15752Y1132D01*
X15768Y969D01*
X15815Y813D01*
X15892Y669D01*
X15996Y543D01*
X16122Y440D01*
X16266Y363D01*
X16422Y315D01*
X16585Y299D01*
X16747Y315D01*
X16903Y363D01*
X17047Y440D01*
X17173Y543D01*
X17277Y669D01*
X17354Y813D01*
X17401Y969D01*
X17417Y1132D01*
X17401Y1294D01*
X17354Y1451D01*
X17277Y1594D01*
X17173Y1721D01*
X17047Y1824D01*
X16903Y1901D01*
X16747Y1949D01*
X16585Y1965D01*
D02*
G37*
G36*
X4970Y1753D02*
X4883Y1736D01*
X4809Y1687D01*
X4760Y1613D01*
X4743Y1526D01*
X4760Y1438D01*
X4809Y1365D01*
X4820Y1357D01*
Y1276D01*
X4596D01*
Y685D01*
X5344D01*
Y1276D01*
X5121D01*
Y1357D01*
X5132Y1365D01*
X5181Y1438D01*
X5198Y1526D01*
X5181Y1613D01*
X5132Y1687D01*
X5058Y1736D01*
X4970Y1753D01*
D02*
G37*
G36*
X13122Y3694D02*
X12796D01*
Y3447D01*
X13122D01*
Y3694D01*
D02*
G37*
G36*
Y4041D02*
X12796D01*
Y3794D01*
X13122D01*
Y4041D01*
D02*
G37*
G36*
X17277Y5167D02*
X17030D01*
Y4841D01*
X17277D01*
Y5167D01*
D02*
G37*
G36*
X14858Y5591D02*
X14268D01*
Y4843D01*
X14858D01*
Y5026D01*
X14872Y5036D01*
X14908Y5049D01*
X14972Y5006D01*
X15059Y4989D01*
X15146Y5006D01*
X15220Y5055D01*
X15270Y5129D01*
X15287Y5217D01*
X15270Y5304D01*
X15220Y5378D01*
X15146Y5427D01*
X15059Y5444D01*
X14972Y5427D01*
X14908Y5384D01*
X14872Y5397D01*
X14858Y5407D01*
Y5591D01*
D02*
G37*
G36*
X12696Y4041D02*
X12370D01*
Y3794D01*
X12696D01*
Y4041D01*
D02*
G37*
G36*
X1230Y4531D02*
X1117Y4516D01*
X1012Y4473D01*
X921Y4403D01*
X852Y4313D01*
X808Y4208D01*
X794Y4094D01*
X808Y3981D01*
X852Y3876D01*
X921Y3786D01*
X1012Y3716D01*
X1117Y3673D01*
X1230Y3658D01*
X1343Y3673D01*
X1449Y3716D01*
X1539Y3786D01*
X1609Y3876D01*
X1652Y3981D01*
X1667Y4094D01*
X1652Y4208D01*
X1609Y4313D01*
X1539Y4403D01*
X1449Y4473D01*
X1343Y4516D01*
X1230Y4531D01*
D02*
G37*
G36*
X4920Y4041D02*
X4595D01*
Y3794D01*
X4920D01*
Y4041D01*
D02*
G37*
G36*
X5346D02*
X5020D01*
Y3794D01*
X5346D01*
Y4041D01*
D02*
G37*
G36*
X5393Y15385D02*
X5166D01*
Y15060D01*
X5393D01*
Y15385D01*
D02*
G37*
G36*
X5720D02*
X5493D01*
Y15060D01*
X5720D01*
Y15385D01*
D02*
G37*
G36*
X6958D02*
X6731D01*
Y15060D01*
X6958D01*
Y15385D01*
D02*
G37*
G36*
X7285Y14960D02*
X7058D01*
Y14634D01*
X7285D01*
Y14960D01*
D02*
G37*
G36*
X5393D02*
X5166D01*
Y14634D01*
X5393D01*
Y14960D01*
D02*
G37*
G36*
X5720D02*
X5493D01*
Y14634D01*
X5720D01*
Y14960D01*
D02*
G37*
G36*
X6958D02*
X6731D01*
Y14634D01*
X6958D01*
Y14960D01*
D02*
G37*
G36*
X7285Y15385D02*
X7058D01*
Y15060D01*
X7285D01*
Y15385D01*
D02*
G37*
G36*
X8661Y17056D02*
X8335D01*
Y16829D01*
X8661D01*
Y17056D01*
D02*
G37*
G36*
Y17383D02*
X8335D01*
Y17156D01*
X8661D01*
Y17383D01*
D02*
G37*
G36*
X9086D02*
X8761D01*
Y17156D01*
X9086D01*
Y17383D01*
D02*
G37*
G36*
X1852Y16960D02*
X1369D01*
Y16418D01*
X1852D01*
Y16960D01*
D02*
G37*
G36*
Y16318D02*
X1369D01*
Y15776D01*
X1852D01*
Y16318D01*
D02*
G37*
G36*
X3356D02*
X2872D01*
Y15776D01*
X3356D01*
Y16318D01*
D02*
G37*
G36*
X3939D02*
X3456D01*
Y15776D01*
X3939D01*
Y16318D01*
D02*
G37*
G36*
X9746Y14943D02*
X9518D01*
Y14617D01*
X9746D01*
Y14943D01*
D02*
G37*
G36*
X6919Y13122D02*
X6711D01*
Y12894D01*
X6919D01*
Y13122D01*
D02*
G37*
G36*
X1852Y13653D02*
X1369D01*
Y13111D01*
X1852D01*
Y13653D01*
D02*
G37*
G36*
X3356D02*
X2872D01*
Y13111D01*
X3356D01*
Y13653D01*
D02*
G37*
G36*
X5350Y18350D02*
X5237Y18335D01*
X5132Y18292D01*
X5042Y18222D01*
X4972Y18132D01*
X4928Y18026D01*
X4914Y17913D01*
X4928Y17800D01*
X4972Y17695D01*
X5042Y17605D01*
X5132Y17535D01*
X5237Y17491D01*
X5350Y17477D01*
X5463Y17491D01*
X5569Y17535D01*
X5659Y17605D01*
X5729Y17695D01*
X5772Y17800D01*
X5787Y17913D01*
X5772Y18026D01*
X5729Y18132D01*
X5659Y18222D01*
X5569Y18292D01*
X5463Y18335D01*
X5350Y18350D01*
D02*
G37*
G36*
X3356Y13011D02*
X2872D01*
Y12469D01*
X3356D01*
Y13011D01*
D02*
G37*
G36*
X3939D02*
X3456D01*
Y12469D01*
X3939D01*
Y13011D01*
D02*
G37*
G36*
X6919Y12794D02*
X6711D01*
Y12567D01*
X6919D01*
Y12794D01*
D02*
G37*
G36*
X3939Y13653D02*
X3456D01*
Y13111D01*
X3939D01*
Y13653D01*
D02*
G37*
G36*
X11104Y14313D02*
X10877D01*
Y14105D01*
X11104D01*
Y14313D01*
D02*
G37*
G36*
X9746Y14517D02*
X9518D01*
Y14191D01*
X9746D01*
Y14517D01*
D02*
G37*
G36*
X9419Y14943D02*
X9191D01*
Y14617D01*
X9419D01*
Y14943D01*
D02*
G37*
G36*
X10777Y14313D02*
X10550D01*
Y14105D01*
X10777D01*
Y14313D01*
D02*
G37*
G36*
X6665Y13434D02*
X6290D01*
Y13325D01*
X6665D01*
Y13434D01*
D02*
G37*
G36*
X3454Y14035D02*
X3010D01*
Y13886D01*
X3454D01*
Y14035D01*
D02*
G37*
G36*
X3998D02*
X3554D01*
Y13886D01*
X3998D01*
Y14035D01*
D02*
G37*
%LPD*%
D10*
X9469Y14567D02*
D03*
X10217D02*
D03*
X5443Y15010D02*
D03*
X4695D02*
D03*
X7008D02*
D03*
X7756D02*
D03*
D11*
X8711Y17106D02*
D03*
Y16358D02*
D03*
D12*
X10217Y16152D02*
D03*
X9843D02*
D03*
X9469D02*
D03*
Y15344D02*
D03*
X10217D02*
D03*
D13*
X7726Y16998D02*
D03*
Y16368D02*
D03*
X8809Y12963D02*
D03*
Y12333D02*
D03*
X17323Y15325D02*
D03*
Y14695D02*
D03*
X10827Y14685D02*
D03*
Y14055D02*
D03*
D14*
X6211Y15965D02*
D03*
Y16713D02*
D03*
X7077Y16713D02*
D03*
Y16339D02*
D03*
Y15965D02*
D03*
X6211Y16339D02*
D03*
D15*
X9843Y13199D02*
D03*
X9469Y12293D02*
D03*
X10217D02*
D03*
D16*
X14563Y9843D02*
D03*
X17327D02*
D03*
X14563Y5217D02*
D03*
X17327D02*
D03*
D17*
X12746Y980D02*
D03*
Y3744D02*
D03*
X4970Y980D02*
D03*
Y3744D02*
D03*
D18*
X7598Y12844D02*
D03*
X6969D02*
D03*
X4705Y13140D02*
D03*
X5335D02*
D03*
X4705Y13730D02*
D03*
X5335D02*
D03*
D19*
X4872Y7579D02*
D03*
X5148D02*
D03*
X5423D02*
D03*
X5699D02*
D03*
X6250D02*
D03*
X6526D02*
D03*
X6801D02*
D03*
X7077D02*
D03*
X7352D02*
D03*
X7628D02*
D03*
X7904D02*
D03*
X8179D02*
D03*
X8455D02*
D03*
X8730D02*
D03*
X9281D02*
D03*
X9557D02*
D03*
X9833D02*
D03*
X10108D02*
D03*
X10384D02*
D03*
X10663D02*
D03*
X10935D02*
D03*
X11211D02*
D03*
X11486D02*
D03*
X12313D02*
D03*
X12589D02*
D03*
X12864D02*
D03*
X5974D02*
D03*
X9006D02*
D03*
X11762D02*
D03*
X12037D02*
D03*
D20*
X1319Y16368D02*
D03*
Y13061D02*
D03*
X3406D02*
D03*
Y16368D02*
D03*
D21*
X3504Y15344D02*
D03*
Y15030D02*
D03*
Y14715D02*
D03*
Y14400D02*
D03*
Y14085D02*
D03*
D22*
X7835Y13484D02*
D03*
Y13681D02*
D03*
Y13878D02*
D03*
Y14075D02*
D03*
Y14272D02*
D03*
X6240Y13484D02*
D03*
Y13681D02*
D03*
Y13878D02*
D03*
Y14075D02*
D03*
Y14272D02*
D03*
D23*
X16368Y13091D02*
D03*
Y13406D02*
D03*
Y13720D02*
D03*
Y14035D02*
D03*
Y14350D02*
D03*
Y14665D02*
D03*
Y14980D02*
D03*
Y15295D02*
D03*
Y15610D02*
D03*
Y15925D02*
D03*
Y16240D02*
D03*
X11880Y16240D02*
D03*
Y15925D02*
D03*
Y15610D02*
D03*
Y15295D02*
D03*
Y14980D02*
D03*
Y14665D02*
D03*
Y14350D02*
D03*
Y14035D02*
D03*
Y13720D02*
D03*
Y13406D02*
D03*
Y13091D02*
D03*
D24*
X15699Y16909D02*
D03*
X15384D02*
D03*
X15069D02*
D03*
X14754D02*
D03*
X14439D02*
D03*
X14124D02*
D03*
X13809D02*
D03*
X13494D02*
D03*
X13179D02*
D03*
X12864D02*
D03*
X12549D02*
D03*
X12549Y12421D02*
D03*
X12864D02*
D03*
X13179D02*
D03*
X13494D02*
D03*
X13809D02*
D03*
X14124D02*
D03*
X14439D02*
D03*
X14754D02*
D03*
X15069D02*
D03*
X15384D02*
D03*
X15699D02*
D03*
D25*
X6398Y8268D02*
X7650D01*
X4695Y14173D02*
X6250D01*
X7776D02*
X9006D01*
X7776Y14931D02*
X7854Y15010D01*
X7776Y14173D02*
Y14931D01*
X17274Y15332D02*
X17302Y15304D01*
X10827Y14665D02*
X11880D01*
X10315D02*
X10827D01*
X2534Y8119D02*
X3051Y7602D01*
X16880Y14665D02*
X17293D01*
X16368D02*
X16880D01*
X1722Y10640D02*
Y11900D01*
X5709Y16339D02*
X6211D01*
X9843Y13199D02*
X10276D01*
X17293Y14665D02*
X17323Y14695D01*
X6250Y8120D02*
X6398Y8268D01*
X7650D02*
X7904Y8015D01*
Y7579D02*
Y8015D01*
X7677Y10876D02*
X7972Y11171D01*
X6791Y10876D02*
X7677D01*
X7726Y16368D02*
X7736Y16358D01*
X8711D01*
Y15994D02*
X8957Y15748D01*
X10217Y16152D02*
Y16604D01*
X10089Y16732D02*
X10217Y16604D01*
X7697Y16339D02*
X7726Y16368D01*
X8957Y15748D02*
X9006D01*
X8711Y15994D02*
Y16358D01*
X9262D02*
X9469Y16152D01*
X8711Y16358D02*
X9262D01*
X9055Y16732D02*
X10089D01*
X8711Y16388D02*
X9055Y16732D01*
X8711Y16358D02*
Y16388D01*
X17274Y15332D02*
Y15945D01*
X16705Y14980D02*
X17029Y15304D01*
X16368Y14980D02*
X16705D01*
X6211Y17774D02*
X6350Y17913D01*
X6211Y16713D02*
Y17774D01*
X10217Y14567D02*
X10315Y14665D01*
X10217Y14567D02*
Y15344D01*
X10827Y14685D02*
Y15059D01*
X10827Y14685D02*
X10827Y14685D01*
X8809Y12333D02*
X9459D01*
X4705Y13140D02*
Y13730D01*
X4695Y13740D02*
Y14173D01*
Y15010D01*
X4360Y15344D02*
X4695Y15010D01*
X3504Y15344D02*
X4360D01*
X6250Y7579D02*
Y8120D01*
X3051Y4478D02*
X3445Y4085D01*
X7077Y7579D02*
Y8258D01*
X2707Y10640D02*
Y11900D01*
Y11949D01*
X3051Y4478D02*
Y7602D01*
X7972Y12008D02*
X8297Y12333D01*
X8809D01*
X7972Y11171D02*
Y12008D01*
X17029Y15304D02*
X17274D01*
D26*
X8455Y8583D02*
X10861Y10989D01*
X7632Y12102D02*
X8178Y12648D01*
X7628Y12098D02*
X7632Y12102D01*
X5293Y13642D02*
X5335D01*
X5030Y12655D02*
X5814Y11871D01*
X13092Y10308D02*
X13435Y10652D01*
X738Y12508D02*
X825Y12421D01*
X738Y12508D02*
Y16921D01*
X825Y12421D02*
X899D01*
X738Y16921D02*
X1090Y17274D01*
X1220Y9815D02*
Y12099D01*
X256Y6387D02*
Y16717D01*
Y6387D02*
X1031Y5612D01*
X256Y16717D02*
X1009Y17470D01*
X8703Y9744D02*
X10649Y11690D01*
X4823Y9744D02*
X8703D01*
X8785Y9547D02*
X10731Y11493D01*
X4971Y9547D02*
X8785D01*
X7283Y11368D02*
Y13730D01*
X11486Y13406D02*
X11880D01*
X9749Y12648D02*
X9946Y12844D01*
X11457Y13720D02*
X11880D01*
X16732Y9154D02*
Y10876D01*
X16535Y9235D02*
Y10958D01*
X16339Y9400D02*
Y11039D01*
X16066Y9127D02*
X16339Y9400D01*
X16142Y9547D02*
Y11121D01*
X15918Y9324D02*
X16142Y9547D01*
X16732Y10876D02*
X17408Y11552D01*
X16535Y10958D02*
X17212Y11634D01*
X16339Y11039D02*
X17015Y11715D01*
X16142Y11121D02*
X16818Y11797D01*
X15384Y11929D02*
Y12421D01*
X8071Y15600D02*
X8415D01*
X7707Y15965D02*
X8071Y15600D01*
X7077Y15965D02*
X7707D01*
X9350Y17913D02*
X9534D01*
X10659Y16788D01*
Y16711D02*
Y16788D01*
Y16711D02*
X11445Y15925D01*
X11880D01*
X11338Y16782D02*
X11880Y16240D01*
X10975Y16782D02*
X11338D01*
X11452Y15591D02*
X11860D01*
X10463Y16580D02*
Y16706D01*
Y16580D02*
X11452Y15591D01*
X10043Y17126D02*
X10463Y16706D01*
X9892Y17126D02*
X10043D01*
X7077Y16339D02*
X7697D01*
X12205Y16732D02*
X12382Y16909D01*
X12549D01*
X12697Y14222D02*
Y14321D01*
X12424Y14593D02*
X12697Y14321D01*
X12424Y14593D02*
Y14670D01*
X12114Y14980D02*
X12424Y14670D01*
X11880Y14980D02*
X12114D01*
X5030Y13378D02*
X5293Y13642D01*
X5030Y12655D02*
Y13378D01*
X11427Y14035D02*
X11880D01*
X5335Y13642D02*
Y13730D01*
X5364Y12598D02*
Y13110D01*
X5335Y13140D02*
X5364Y13110D01*
X7598Y13238D02*
X7835Y13474D01*
X7598Y12844D02*
Y13238D01*
X7283Y13730D02*
X7431Y13878D01*
X7835D01*
X13494Y16476D02*
Y16909D01*
Y16476D02*
X13609Y16361D01*
Y14271D02*
Y16361D01*
X10217Y12293D02*
X11632D01*
X17096Y14350D02*
X17408Y14038D01*
X16368Y14350D02*
X17096D01*
X17018Y14035D02*
X17212Y13842D01*
X16368Y14035D02*
X17018D01*
X12697Y14715D02*
Y15010D01*
X12411Y15295D02*
X12697Y15010D01*
X11880Y15295D02*
X12411D01*
X12864Y16614D02*
X13337Y16142D01*
X12864Y16614D02*
Y16909D01*
X15305Y14223D02*
X15541Y14459D01*
X15354Y13829D02*
X15738Y14213D01*
Y15098D01*
X15256Y14665D02*
Y15305D01*
X15256D02*
X15256D01*
X15256D02*
X15876Y15925D01*
X16368D01*
X15541Y14459D02*
Y15246D01*
X15738Y15098D02*
X15935Y15295D01*
X15906Y15610D02*
X16368D01*
X15541Y15246D02*
X15906Y15610D01*
X15935Y15295D02*
X16368D01*
X17302Y15304D02*
X17323Y15325D01*
X7441Y16713D02*
X7726Y16998D01*
X7077Y16713D02*
X7441D01*
X6644Y16439D02*
X6917Y16713D01*
X6644Y16238D02*
Y16439D01*
X6370Y15965D02*
X6644Y16238D01*
X6917Y16713D02*
X7077D01*
X6211Y15965D02*
X6370D01*
X10217Y14567D02*
X10217Y14567D01*
X9459Y12333D02*
X9469Y12343D01*
X5335Y13140D02*
X5876Y13681D01*
X6240D01*
X5335Y13730D02*
X5482Y13878D01*
X6240D01*
X4695Y13740D02*
X4705Y13730D01*
X10350Y17913D02*
X10433D01*
X10827Y14665D02*
Y14685D01*
X7341Y3199D02*
X11319D01*
X10649Y11690D02*
X12832D01*
X13179Y12037D01*
Y12421D01*
X10731Y11493D02*
X12950D01*
X10763Y11247D02*
X11171D01*
X8179Y8663D02*
X10763Y11247D01*
X15699Y11368D02*
Y12421D01*
X15805Y12864D02*
X15994Y12675D01*
Y11713D02*
Y12675D01*
X16818Y11797D02*
Y13190D01*
X17015Y11715D02*
Y13546D01*
X17212Y11634D02*
Y13842D01*
X17408Y11552D02*
Y14038D01*
X16602Y13406D02*
X16818Y13190D01*
X16841Y13720D02*
X17015Y13546D01*
X12864Y12421D02*
Y12717D01*
X12906Y19185D02*
X14439Y17652D01*
Y16909D02*
Y17652D01*
X14124Y16909D02*
Y17689D01*
X12824Y18989D02*
X14124Y17689D01*
X12743Y18792D02*
X13809Y17726D01*
X5268Y18792D02*
X12743D01*
X13809Y16909D02*
Y17726D01*
X12950Y11493D02*
X13494Y12037D01*
Y12421D01*
X15069Y11378D02*
Y12421D01*
X14563Y9843D02*
X15059D01*
X16230Y8930D02*
X16535Y9235D01*
X16312Y8733D02*
X16732Y9154D01*
X13547Y9521D02*
X14754Y10728D01*
X13465Y9718D02*
X14439Y10691D01*
X14124Y10655D02*
Y12421D01*
X13383Y9914D02*
X14124Y10655D01*
X13809Y10618D02*
Y12421D01*
X13302Y10111D02*
X13809Y10618D01*
X13435Y10630D02*
Y10652D01*
X13463Y10679D01*
X13463Y10679D02*
X13463Y10679D01*
X13435Y10652D02*
X13463Y10679D01*
X13435Y10652D02*
Y10652D01*
X14715Y16870D02*
X14754Y16909D01*
X14715Y16240D02*
Y16870D01*
X10852Y10702D02*
X12424D01*
X8730Y8580D02*
X10852Y10702D01*
X8730Y7579D02*
Y8580D01*
X10934Y10505D02*
X12867D01*
X9006Y8577D02*
X10934Y10505D01*
X9006Y7579D02*
Y8577D01*
X11015Y10308D02*
X13092D01*
X9281Y8574D02*
X11015Y10308D01*
X9281Y7579D02*
Y8574D01*
X11097Y10111D02*
X13302D01*
X9557Y8571D02*
X11097Y10111D01*
X9557Y7579D02*
Y8571D01*
X11178Y9914D02*
X13383D01*
X9833Y8569D02*
X11178Y9914D01*
X9833Y7579D02*
Y8569D01*
X11260Y9718D02*
X13465D01*
X10105Y8563D02*
X11260Y9718D01*
X10105Y7582D02*
Y8563D01*
X11342Y9521D02*
X13547D01*
X10384Y8563D02*
X11342Y9521D01*
X10384Y7579D02*
Y8563D01*
X10663Y8513D02*
X11474Y9324D01*
X10663Y7579D02*
Y8513D01*
X10935Y8507D02*
X11555Y9127D01*
X10935Y7579D02*
Y8507D01*
X11211Y8504D02*
X11637Y8930D01*
X11211Y7579D02*
Y8504D01*
X11486Y8484D02*
X11735Y8733D01*
X11486Y7579D02*
Y8484D01*
X8455Y7579D02*
Y8583D01*
X8179Y7579D02*
Y8663D01*
X12795Y11073D02*
X12795D01*
X13140Y10778D02*
Y10876D01*
X12424Y10702D02*
X12795Y11073D01*
X12867Y10505D02*
X13091Y10728D01*
X14754Y10728D02*
Y12421D01*
X8835Y18398D02*
X12580D01*
X8350Y17913D02*
X8835Y18398D01*
X11860Y15591D02*
X11880Y15610D01*
X12580Y18398D02*
X13179Y17799D01*
Y16909D02*
Y17799D01*
X4134Y8169D02*
X4210Y8094D01*
X4774Y8366D02*
X5101D01*
X4210Y8094D02*
X4999D01*
X5148Y7945D01*
Y7579D02*
Y7945D01*
X5423Y7579D02*
Y8044D01*
X5101Y8366D02*
X5423Y8044D01*
X5699Y7579D02*
X5709Y7589D01*
Y8120D01*
X5974Y7579D02*
X5981Y7586D01*
Y8340D01*
X5981Y8340D02*
X5981Y8340D01*
X16368Y13720D02*
X16841D01*
X16368Y13406D02*
X16602D01*
X10105Y7582D02*
X10108Y7579D01*
X11762D02*
Y8317D01*
X12037Y7579D02*
Y8100D01*
X12254Y8317D01*
X12313Y7579D02*
Y7990D01*
X12443Y8120D01*
X13140D01*
X13287Y8268D01*
X13091Y10728D02*
X13140Y10778D01*
X14439Y10691D02*
Y12421D01*
X15069Y16201D02*
Y16909D01*
X15551Y16240D02*
X16368D01*
X14563Y9843D02*
X14563Y9843D01*
X14563Y5217D02*
X15059D01*
X12746Y980D02*
Y1526D01*
X4970Y1526D02*
X4970Y1526D01*
X4970Y980D02*
Y1526D01*
X11880Y15295D02*
X11890Y15305D01*
X5187Y18989D02*
X12824D01*
X5105Y19185D02*
X12906D01*
X3553Y17077D02*
X5268Y18792D01*
X3472Y17274D02*
X5187Y18989D01*
X3390Y17470D02*
X5105Y19185D01*
X2980Y17077D02*
X3553D01*
X2224Y16321D02*
X2980Y17077D01*
X1090Y17274D02*
X3472D01*
X3517Y7023D02*
X7341Y3199D01*
X3320Y4669D02*
Y8334D01*
Y4669D02*
X3789Y4200D01*
Y2657D02*
Y4200D01*
X2559Y9094D02*
X3320Y8334D01*
X2510Y9094D02*
X2559D01*
X899Y12421D02*
X1220Y12099D01*
Y9815D02*
X1713Y9323D01*
Y6892D02*
Y9323D01*
Y6892D02*
X2510Y6094D01*
X1009Y17470D02*
X3390D01*
X1031Y5612D02*
X1992D01*
X2510Y5094D01*
X7234Y11319D02*
X7283Y11368D01*
X7628Y12098D02*
Y12106D01*
X5364Y12598D02*
X5830Y12133D01*
X6470D02*
X6496Y12106D01*
X5830Y12133D02*
X6470D01*
X8178Y12648D02*
X9749D01*
X9941Y12156D02*
Y12561D01*
X8671Y9990D02*
X10039Y11359D01*
Y11860D01*
X15787Y12864D02*
X15805D01*
X12864Y12717D02*
X13041Y12894D01*
X15758D01*
X15787Y12864D01*
X12844Y13091D02*
X16368D01*
X8465Y11860D02*
X9646D01*
X9941Y12156D01*
X8730Y10551D02*
X9744Y11565D01*
X6201Y10729D02*
X6939Y9990D01*
X8671D01*
X3789Y7136D02*
Y8365D01*
X4971Y9547D01*
X3517Y7023D02*
Y8438D01*
X4823Y9744D01*
X2224Y9380D02*
Y16321D01*
Y9380D02*
X2510Y9094D01*
X6201Y10729D02*
Y11270D01*
X6657Y10551D02*
X8730D01*
X6467Y10741D02*
X6657Y10551D01*
X6467Y10741D02*
Y11150D01*
X6473Y11157D01*
Y11383D01*
X6314Y11542D02*
X6473Y11383D01*
X4653Y11542D02*
X6314D01*
X3150Y10039D02*
X4653Y11542D01*
X8612Y13386D02*
X8780Y13553D01*
X10659D02*
X10778Y13435D01*
X11632Y12293D02*
X13609Y14271D01*
X10728Y12648D02*
X11486Y13406D01*
X10581Y12844D02*
X11457Y13720D01*
X8780Y13553D02*
X10659D01*
X9941Y12561D02*
X10027Y12648D01*
X9946Y12844D02*
X10581D01*
X10027Y12648D02*
X10728D01*
X10741Y13750D02*
X10783Y13708D01*
X8591Y13750D02*
X10741D01*
X8522Y13681D02*
X8591Y13750D01*
X8230Y13681D02*
X8522D01*
X7835Y13681D02*
X8230D01*
X8230Y13681D01*
X10783Y13708D02*
X11095D01*
X11097Y13706D01*
X11427Y14035D01*
X11637Y8930D02*
X16230D01*
X11555Y9127D02*
X16066D01*
X11474Y9324D02*
X15918D01*
X11735Y8733D02*
X16312D01*
D27*
X11350Y17913D02*
X11545D01*
D28*
X2707Y11900D02*
D03*
X1722D02*
D03*
X738D02*
D03*
Y10640D02*
D03*
X1722D02*
D03*
X2707D02*
D03*
X1230Y6094D02*
D03*
Y7094D02*
D03*
Y8094D02*
D03*
Y5094D02*
D03*
Y4094D02*
D03*
X2510Y6094D02*
D03*
Y7094D02*
D03*
Y8094D02*
D03*
Y5094D02*
D03*
Y4094D02*
D03*
X5350Y17913D02*
D03*
X6350D02*
D03*
X9350D02*
D03*
X10350D02*
D03*
X11350D02*
D03*
X8350D02*
D03*
X7350D02*
D03*
D29*
X1230Y9094D02*
D03*
X2510D02*
D03*
D30*
X1132Y1132D02*
D03*
X16585D02*
D03*
Y18553D02*
D03*
X1132D02*
D03*
D31*
X12350Y17913D02*
D03*
D32*
X12018Y6102D02*
D03*
X5719D02*
D03*
D33*
X16880Y14665D02*
D03*
X16497Y6602D02*
D03*
X16997Y3602D02*
D03*
X16497Y2602D02*
D03*
X15497Y6602D02*
D03*
X15997Y3602D02*
D03*
X15497Y2602D02*
D03*
Y602D02*
D03*
X14997Y7602D02*
D03*
X14497Y6602D02*
D03*
X14997Y5602D02*
D03*
X14497Y4602D02*
D03*
X14997Y1602D02*
D03*
X14497Y602D02*
D03*
X13497Y6602D02*
D03*
X13997Y5602D02*
D03*
X13497Y4602D02*
D03*
X13997Y3602D02*
D03*
Y1602D02*
D03*
X13497Y602D02*
D03*
X12497Y6602D02*
D03*
Y4602D02*
D03*
X11497Y6602D02*
D03*
Y4602D02*
D03*
X11997Y3602D02*
D03*
X11497Y2602D02*
D03*
X11997Y1602D02*
D03*
X11497Y602D02*
D03*
X10497Y6602D02*
D03*
X10997Y5602D02*
D03*
X10497Y4602D02*
D03*
X10997Y3602D02*
D03*
X10497Y2602D02*
D03*
X10997Y1602D02*
D03*
X10497Y602D02*
D03*
X9497Y6602D02*
D03*
X9997Y5602D02*
D03*
X9497Y4602D02*
D03*
X9997Y3602D02*
D03*
X9497Y2602D02*
D03*
X9997Y1602D02*
D03*
X9497Y602D02*
D03*
X8997Y5602D02*
D03*
X8497Y4602D02*
D03*
X8997Y3602D02*
D03*
X8497Y2602D02*
D03*
X8997Y1602D02*
D03*
X8497Y602D02*
D03*
X7497Y6602D02*
D03*
X7997Y5602D02*
D03*
X7497Y4602D02*
D03*
X7997Y3602D02*
D03*
X7497Y2602D02*
D03*
X7997Y1602D02*
D03*
X7497Y602D02*
D03*
X6497Y6602D02*
D03*
X6997Y5602D02*
D03*
X6497Y4602D02*
D03*
Y2602D02*
D03*
Y602D02*
D03*
X5497Y16602D02*
D03*
Y6602D02*
D03*
X5997Y5602D02*
D03*
X5497Y4602D02*
D03*
X5997Y3602D02*
D03*
Y1602D02*
D03*
X5497Y602D02*
D03*
X4497Y16602D02*
D03*
X4997Y15602D02*
D03*
X4497Y6602D02*
D03*
Y4602D02*
D03*
Y602D02*
D03*
X3997Y1602D02*
D03*
X3497Y602D02*
D03*
X2497Y12602D02*
D03*
X2997Y3602D02*
D03*
X2497Y2602D02*
D03*
X2997Y1602D02*
D03*
X2497Y602D02*
D03*
X1997Y7602D02*
D03*
Y3602D02*
D03*
X1497Y2602D02*
D03*
X1997Y1602D02*
D03*
X497Y4602D02*
D03*
Y2602D02*
D03*
X9843Y14075D02*
D03*
X11270Y14321D02*
D03*
X15384Y11929D02*
D03*
X8415Y15600D02*
D03*
X10975Y16782D02*
D03*
X9892Y17126D02*
D03*
X12205Y16732D02*
D03*
X12697Y14222D02*
D03*
Y14715D02*
D03*
X13337Y16142D02*
D03*
X15305Y14223D02*
D03*
X15256Y14665D02*
D03*
X15354Y13829D02*
D03*
X11319Y3199D02*
D03*
X3789Y7136D02*
D03*
X15994Y11713D02*
D03*
X15069Y11378D02*
D03*
X15699Y11368D02*
D03*
X15059Y9843D02*
D03*
X13435Y10630D02*
D03*
X14715Y16240D02*
D03*
X11171Y11221D02*
D03*
X10876Y10974D02*
D03*
X12795Y11073D02*
D03*
X13140Y10876D02*
D03*
X4134Y8169D02*
D03*
X4774Y8366D02*
D03*
X5709Y8120D02*
D03*
X5981Y8340D02*
D03*
X11762Y8317D02*
D03*
X12254D02*
D03*
X13287Y8268D02*
D03*
X15551Y16240D02*
D03*
X15069Y16201D02*
D03*
X15059Y5217D02*
D03*
X12746Y1526D02*
D03*
X4970D02*
D03*
X3789Y2657D02*
D03*
X7234Y11319D02*
D03*
X6496Y12106D02*
D03*
X7628Y12106D02*
D03*
X5803Y11860D02*
D03*
X10039Y11860D02*
D03*
X12844Y13091D02*
D03*
X8465Y11860D02*
D03*
X9744Y11565D02*
D03*
X6201Y11270D02*
D03*
X3150Y10039D02*
D03*
X8612Y13386D02*
D03*
X10778Y13435D02*
D03*
D34*
X10276Y13199D02*
D03*
X6791Y10876D02*
D03*
X9006Y15748D02*
D03*
X17274Y15945D02*
D03*
X10827Y15059D02*
D03*
X3445Y4085D02*
D03*
X7077Y8258D02*
D03*
X9006Y14173D02*
D03*
M02*
