G04 Layer_Color=8388736*
%FSLAX24Y24*%
%MOIN*%
G70*
G01*
G75*
%ADD44R,0.0434X0.0631*%
%ADD45R,0.0631X0.0434*%
%ADD46R,0.0297X0.0533*%
%ADD47R,0.0434X0.0395*%
%ADD48R,0.0474X0.0336*%
%ADD49R,0.0336X0.0493*%
%ADD50R,0.0474X0.0631*%
%ADD51R,0.0631X0.0474*%
%ADD52R,0.0395X0.0434*%
%ADD53R,0.0237X0.0789*%
%ADD54R,0.0946X0.1064*%
%ADD55R,0.0867X0.0277*%
%ADD56R,0.0730X0.0198*%
%ADD57O,0.0671X0.0297*%
%ADD58O,0.0297X0.0671*%
%ADD59C,0.0749*%
%ADD60P,0.0811X8X292.5*%
%ADD61C,0.0380*%
%ADD62P,0.0811X8X202.5*%
%ADD63C,0.0680*%
%ADD64C,0.0080*%
%ADD65C,0.0330*%
%ADD66C,0.0434*%
D44*
X9469Y14567D02*
D03*
X10217D02*
D03*
X5443Y15010D02*
D03*
X4695D02*
D03*
X7008D02*
D03*
X7756D02*
D03*
D45*
X8711Y17106D02*
D03*
Y16358D02*
D03*
D46*
X10217Y16152D02*
D03*
X9843D02*
D03*
X9469D02*
D03*
Y15344D02*
D03*
X10217D02*
D03*
D47*
X7726Y16998D02*
D03*
Y16368D02*
D03*
X8809Y12963D02*
D03*
Y12333D02*
D03*
X17323Y15325D02*
D03*
Y14695D02*
D03*
X10827Y14685D02*
D03*
Y14055D02*
D03*
D48*
X6211Y15965D02*
D03*
Y16713D02*
D03*
X7077Y16713D02*
D03*
Y16339D02*
D03*
Y15965D02*
D03*
X6211Y16339D02*
D03*
D49*
X9843Y13199D02*
D03*
X9469Y12293D02*
D03*
X10217D02*
D03*
D50*
X14563Y9843D02*
D03*
X17327D02*
D03*
X14563Y5217D02*
D03*
X17327D02*
D03*
D51*
X12746Y980D02*
D03*
Y3744D02*
D03*
X4970Y980D02*
D03*
Y3744D02*
D03*
D52*
X7598Y12844D02*
D03*
X6969D02*
D03*
X4705Y13140D02*
D03*
X5335D02*
D03*
X4705Y13730D02*
D03*
X5335D02*
D03*
D53*
X4872Y7579D02*
D03*
X5148D02*
D03*
X5423D02*
D03*
X5699D02*
D03*
X6250D02*
D03*
X6526D02*
D03*
X6801D02*
D03*
X7077D02*
D03*
X7352D02*
D03*
X7628D02*
D03*
X7904D02*
D03*
X8179D02*
D03*
X8455D02*
D03*
X8730D02*
D03*
X9281D02*
D03*
X9557D02*
D03*
X9833D02*
D03*
X10108D02*
D03*
X10384D02*
D03*
X10663D02*
D03*
X10935D02*
D03*
X11211D02*
D03*
X11486D02*
D03*
X12313D02*
D03*
X12589D02*
D03*
X12864D02*
D03*
X5974D02*
D03*
X9006D02*
D03*
X11762D02*
D03*
X12037D02*
D03*
D54*
X1319Y16368D02*
D03*
Y13061D02*
D03*
X3406D02*
D03*
Y16368D02*
D03*
D55*
X3504Y15344D02*
D03*
Y15030D02*
D03*
Y14715D02*
D03*
Y14400D02*
D03*
Y14085D02*
D03*
D56*
X7835Y13484D02*
D03*
Y13681D02*
D03*
Y13878D02*
D03*
Y14075D02*
D03*
Y14272D02*
D03*
X6240Y13484D02*
D03*
Y13681D02*
D03*
Y13878D02*
D03*
Y14075D02*
D03*
Y14272D02*
D03*
D57*
X16368Y13091D02*
D03*
Y13406D02*
D03*
Y13720D02*
D03*
Y14035D02*
D03*
Y14350D02*
D03*
Y14665D02*
D03*
Y14980D02*
D03*
Y15295D02*
D03*
Y15610D02*
D03*
Y15925D02*
D03*
Y16240D02*
D03*
X11880Y16240D02*
D03*
Y15925D02*
D03*
Y15610D02*
D03*
Y15295D02*
D03*
Y14980D02*
D03*
Y14665D02*
D03*
Y14350D02*
D03*
Y14035D02*
D03*
Y13720D02*
D03*
Y13406D02*
D03*
Y13091D02*
D03*
D58*
X15699Y16909D02*
D03*
X15384D02*
D03*
X15069D02*
D03*
X14754D02*
D03*
X14439D02*
D03*
X14124D02*
D03*
X13809D02*
D03*
X13494D02*
D03*
X13179D02*
D03*
X12864D02*
D03*
X12549D02*
D03*
X12549Y12421D02*
D03*
X12864D02*
D03*
X13179D02*
D03*
X13494D02*
D03*
X13809D02*
D03*
X14124D02*
D03*
X14439D02*
D03*
X14754D02*
D03*
X15069D02*
D03*
X15384D02*
D03*
X15699D02*
D03*
D59*
X2707Y11900D02*
D03*
X1722D02*
D03*
X738D02*
D03*
Y10640D02*
D03*
X1722D02*
D03*
X2707D02*
D03*
X1230Y6094D02*
D03*
Y7094D02*
D03*
Y8094D02*
D03*
Y5094D02*
D03*
Y4094D02*
D03*
X2510Y6094D02*
D03*
Y7094D02*
D03*
Y8094D02*
D03*
Y5094D02*
D03*
Y4094D02*
D03*
X5350Y17913D02*
D03*
X6350D02*
D03*
X9350D02*
D03*
X10350D02*
D03*
X11350D02*
D03*
X8350D02*
D03*
X7350D02*
D03*
D60*
X1230Y9094D02*
D03*
X2510D02*
D03*
D61*
X1132Y1132D02*
D03*
X16585D02*
D03*
Y18553D02*
D03*
X1132D02*
D03*
D62*
X12350Y17913D02*
D03*
D63*
X12018Y6102D02*
D03*
X5719D02*
D03*
D64*
X2618Y14026D02*
D03*
Y15404D02*
D03*
D65*
X16880Y14665D02*
D03*
X9843Y14075D02*
D03*
X11270Y14321D02*
D03*
X15384Y11929D02*
D03*
X8415Y15600D02*
D03*
X10975Y16782D02*
D03*
X9892Y17126D02*
D03*
X12205Y16732D02*
D03*
X12697Y14222D02*
D03*
Y14715D02*
D03*
X13337Y16142D02*
D03*
X15305Y14223D02*
D03*
X15256Y14665D02*
D03*
X15354Y13829D02*
D03*
X11319Y3199D02*
D03*
X3789Y7136D02*
D03*
X15994Y11713D02*
D03*
X15069Y11378D02*
D03*
X15699Y11368D02*
D03*
X15059Y9843D02*
D03*
X13435Y10630D02*
D03*
X14715Y16240D02*
D03*
X11171Y11221D02*
D03*
X10876Y10974D02*
D03*
X12795Y11073D02*
D03*
X13140Y10876D02*
D03*
X4134Y8169D02*
D03*
X4774Y8366D02*
D03*
X5709Y8120D02*
D03*
X5981Y8340D02*
D03*
X11762Y8317D02*
D03*
X12254D02*
D03*
X13287Y8268D02*
D03*
X15551Y16240D02*
D03*
X15069Y16201D02*
D03*
X15059Y5217D02*
D03*
X12746Y1526D02*
D03*
X4970D02*
D03*
X3789Y2657D02*
D03*
X7234Y11319D02*
D03*
X6496Y12106D02*
D03*
X7628Y12106D02*
D03*
X5803Y11860D02*
D03*
X10039Y11860D02*
D03*
X12844Y13091D02*
D03*
X8465Y11860D02*
D03*
X9744Y11565D02*
D03*
X6201Y11270D02*
D03*
X3150Y10039D02*
D03*
X8612Y13386D02*
D03*
X10778Y13435D02*
D03*
D66*
X10276Y13199D02*
D03*
X6791Y10876D02*
D03*
X9006Y15748D02*
D03*
X17274Y15945D02*
D03*
X10827Y15059D02*
D03*
X3445Y4085D02*
D03*
X7077Y8258D02*
D03*
X9006Y14173D02*
D03*
M02*
