G04 Layer_Color=2752767*
%FSLAX24Y24*%
%MOIN*%
G70*
G01*
G75*
%ADD73C,0.0050*%
%ADD74C,0.0067*%
D73*
X2507Y11700D02*
Y12100D01*
X2907D01*
Y11700D01*
X2507D01*
X1522D02*
Y12100D01*
X1922D01*
Y11700D01*
X1522D01*
X538D02*
Y12100D01*
X938D01*
Y11700D01*
X538D01*
Y10440D02*
Y10840D01*
X938D01*
Y10440D01*
X538D01*
X1522D02*
Y10840D01*
X1922D01*
Y10440D01*
X1522D01*
X2507D02*
Y10840D01*
X2907D01*
Y10440D01*
X2507D01*
X1132Y932D02*
X932Y1332D01*
X1332D01*
X1132Y932D01*
X16585D02*
X16385Y1332D01*
X16785D01*
X16585Y932D01*
Y18353D02*
X16385Y18753D01*
X16785D01*
X16585Y18353D01*
X1132D02*
X932Y18753D01*
X1332D01*
X1132Y18353D01*
X12018Y5902D02*
X12118Y6002D01*
X12218D01*
X12118Y6102D01*
X12218Y6202D01*
X12118D01*
X12018Y6302D01*
X11918Y6202D01*
X11818D01*
X11918Y6102D01*
X11818Y6002D01*
X11918D01*
X12018Y5902D01*
X5719D02*
X5818Y6002D01*
X5918D01*
X5818Y6102D01*
X5918Y6202D01*
X5818D01*
X5719Y6302D01*
X5619Y6202D01*
X5519D01*
X5619Y6102D01*
X5519Y6002D01*
X5619D01*
X5719Y5902D01*
X2418Y13826D02*
X2518Y14026D01*
X2418Y14226D01*
X2618Y14126D01*
X2818Y14226D01*
X2718Y14026D01*
X2818Y13826D01*
X2618Y13926D01*
X2418Y13826D01*
Y15204D02*
X2518Y15404D01*
X2418Y15604D01*
X2618Y15504D01*
X2818Y15604D01*
X2718Y15404D01*
X2818Y15204D01*
X2618Y15304D01*
X2418Y15204D01*
X16780Y14565D02*
Y14465D01*
X16980D01*
Y14565D01*
X17080D01*
Y14765D01*
X16980D01*
Y14865D01*
X16780D01*
Y14765D01*
X16680D01*
Y14565D01*
X16780D01*
X16397Y6502D02*
Y6402D01*
X16597D01*
Y6502D01*
X16697D01*
Y6702D01*
X16597D01*
Y6802D01*
X16397D01*
Y6702D01*
X16297D01*
Y6502D01*
X16397D01*
X16897Y3502D02*
Y3402D01*
X17097D01*
Y3502D01*
X17197D01*
Y3702D01*
X17097D01*
Y3802D01*
X16897D01*
Y3702D01*
X16797D01*
Y3502D01*
X16897D01*
X16397Y2502D02*
Y2402D01*
X16597D01*
Y2502D01*
X16697D01*
Y2702D01*
X16597D01*
Y2802D01*
X16397D01*
Y2702D01*
X16297D01*
Y2502D01*
X16397D01*
X15397Y6502D02*
Y6402D01*
X15597D01*
Y6502D01*
X15697D01*
Y6702D01*
X15597D01*
Y6802D01*
X15397D01*
Y6702D01*
X15297D01*
Y6502D01*
X15397D01*
X15897Y3502D02*
Y3402D01*
X16097D01*
Y3502D01*
X16197D01*
Y3702D01*
X16097D01*
Y3802D01*
X15897D01*
Y3702D01*
X15797D01*
Y3502D01*
X15897D01*
X15397Y2502D02*
Y2402D01*
X15597D01*
Y2502D01*
X15697D01*
Y2702D01*
X15597D01*
Y2802D01*
X15397D01*
Y2702D01*
X15297D01*
Y2502D01*
X15397D01*
Y502D02*
Y402D01*
X15597D01*
Y502D01*
X15697D01*
Y702D01*
X15597D01*
Y802D01*
X15397D01*
Y702D01*
X15297D01*
Y502D01*
X15397D01*
X14897Y7502D02*
Y7402D01*
X15097D01*
Y7502D01*
X15197D01*
Y7702D01*
X15097D01*
Y7802D01*
X14897D01*
Y7702D01*
X14797D01*
Y7502D01*
X14897D01*
X14397Y6502D02*
Y6402D01*
X14597D01*
Y6502D01*
X14697D01*
Y6702D01*
X14597D01*
Y6802D01*
X14397D01*
Y6702D01*
X14297D01*
Y6502D01*
X14397D01*
X14897Y5502D02*
Y5402D01*
X15097D01*
Y5502D01*
X15197D01*
Y5702D01*
X15097D01*
Y5802D01*
X14897D01*
Y5702D01*
X14797D01*
Y5502D01*
X14897D01*
X14397Y4502D02*
Y4402D01*
X14597D01*
Y4502D01*
X14697D01*
Y4702D01*
X14597D01*
Y4802D01*
X14397D01*
Y4702D01*
X14297D01*
Y4502D01*
X14397D01*
X14897Y1502D02*
Y1402D01*
X15097D01*
Y1502D01*
X15197D01*
Y1702D01*
X15097D01*
Y1802D01*
X14897D01*
Y1702D01*
X14797D01*
Y1502D01*
X14897D01*
X14397Y502D02*
Y402D01*
X14597D01*
Y502D01*
X14697D01*
Y702D01*
X14597D01*
Y802D01*
X14397D01*
Y702D01*
X14297D01*
Y502D01*
X14397D01*
X13397Y6502D02*
Y6402D01*
X13597D01*
Y6502D01*
X13697D01*
Y6702D01*
X13597D01*
Y6802D01*
X13397D01*
Y6702D01*
X13297D01*
Y6502D01*
X13397D01*
X13897Y5502D02*
Y5402D01*
X14097D01*
Y5502D01*
X14197D01*
Y5702D01*
X14097D01*
Y5802D01*
X13897D01*
Y5702D01*
X13797D01*
Y5502D01*
X13897D01*
X13397Y4502D02*
Y4402D01*
X13597D01*
Y4502D01*
X13697D01*
Y4702D01*
X13597D01*
Y4802D01*
X13397D01*
Y4702D01*
X13297D01*
Y4502D01*
X13397D01*
X13897Y3502D02*
Y3402D01*
X14097D01*
Y3502D01*
X14197D01*
Y3702D01*
X14097D01*
Y3802D01*
X13897D01*
Y3702D01*
X13797D01*
Y3502D01*
X13897D01*
Y1502D02*
Y1402D01*
X14097D01*
Y1502D01*
X14197D01*
Y1702D01*
X14097D01*
Y1802D01*
X13897D01*
Y1702D01*
X13797D01*
Y1502D01*
X13897D01*
X13397Y502D02*
Y402D01*
X13597D01*
Y502D01*
X13697D01*
Y702D01*
X13597D01*
Y802D01*
X13397D01*
Y702D01*
X13297D01*
Y502D01*
X13397D01*
X12397Y6502D02*
Y6402D01*
X12597D01*
Y6502D01*
X12697D01*
Y6702D01*
X12597D01*
Y6802D01*
X12397D01*
Y6702D01*
X12297D01*
Y6502D01*
X12397D01*
Y4502D02*
Y4402D01*
X12597D01*
Y4502D01*
X12697D01*
Y4702D01*
X12597D01*
Y4802D01*
X12397D01*
Y4702D01*
X12297D01*
Y4502D01*
X12397D01*
X11397Y6502D02*
Y6402D01*
X11597D01*
Y6502D01*
X11697D01*
Y6702D01*
X11597D01*
Y6802D01*
X11397D01*
Y6702D01*
X11297D01*
Y6502D01*
X11397D01*
Y4502D02*
Y4402D01*
X11597D01*
Y4502D01*
X11697D01*
Y4702D01*
X11597D01*
Y4802D01*
X11397D01*
Y4702D01*
X11297D01*
Y4502D01*
X11397D01*
X11897Y3502D02*
Y3402D01*
X12097D01*
Y3502D01*
X12197D01*
Y3702D01*
X12097D01*
Y3802D01*
X11897D01*
Y3702D01*
X11797D01*
Y3502D01*
X11897D01*
X11397Y2502D02*
Y2402D01*
X11597D01*
Y2502D01*
X11697D01*
Y2702D01*
X11597D01*
Y2802D01*
X11397D01*
Y2702D01*
X11297D01*
Y2502D01*
X11397D01*
X11897Y1502D02*
Y1402D01*
X12097D01*
Y1502D01*
X12197D01*
Y1702D01*
X12097D01*
Y1802D01*
X11897D01*
Y1702D01*
X11797D01*
Y1502D01*
X11897D01*
X11397Y502D02*
Y402D01*
X11597D01*
Y502D01*
X11697D01*
Y702D01*
X11597D01*
Y802D01*
X11397D01*
Y702D01*
X11297D01*
Y502D01*
X11397D01*
X10397Y6502D02*
Y6402D01*
X10597D01*
Y6502D01*
X10697D01*
Y6702D01*
X10597D01*
Y6802D01*
X10397D01*
Y6702D01*
X10297D01*
Y6502D01*
X10397D01*
X10897Y5502D02*
Y5402D01*
X11097D01*
Y5502D01*
X11197D01*
Y5702D01*
X11097D01*
Y5802D01*
X10897D01*
Y5702D01*
X10797D01*
Y5502D01*
X10897D01*
X10397Y4502D02*
Y4402D01*
X10597D01*
Y4502D01*
X10697D01*
Y4702D01*
X10597D01*
Y4802D01*
X10397D01*
Y4702D01*
X10297D01*
Y4502D01*
X10397D01*
X10897Y3502D02*
Y3402D01*
X11097D01*
Y3502D01*
X11197D01*
Y3702D01*
X11097D01*
Y3802D01*
X10897D01*
Y3702D01*
X10797D01*
Y3502D01*
X10897D01*
X10397Y2502D02*
Y2402D01*
X10597D01*
Y2502D01*
X10697D01*
Y2702D01*
X10597D01*
Y2802D01*
X10397D01*
Y2702D01*
X10297D01*
Y2502D01*
X10397D01*
X10897Y1502D02*
Y1402D01*
X11097D01*
Y1502D01*
X11197D01*
Y1702D01*
X11097D01*
Y1802D01*
X10897D01*
Y1702D01*
X10797D01*
Y1502D01*
X10897D01*
X10397Y502D02*
Y402D01*
X10597D01*
Y502D01*
X10697D01*
Y702D01*
X10597D01*
Y802D01*
X10397D01*
Y702D01*
X10297D01*
Y502D01*
X10397D01*
X9397Y6502D02*
Y6402D01*
X9597D01*
Y6502D01*
X9697D01*
Y6702D01*
X9597D01*
Y6802D01*
X9397D01*
Y6702D01*
X9297D01*
Y6502D01*
X9397D01*
X9897Y5502D02*
Y5402D01*
X10097D01*
Y5502D01*
X10197D01*
Y5702D01*
X10097D01*
Y5802D01*
X9897D01*
Y5702D01*
X9797D01*
Y5502D01*
X9897D01*
X9397Y4502D02*
Y4402D01*
X9597D01*
Y4502D01*
X9697D01*
Y4702D01*
X9597D01*
Y4802D01*
X9397D01*
Y4702D01*
X9297D01*
Y4502D01*
X9397D01*
X9897Y3502D02*
Y3402D01*
X10097D01*
Y3502D01*
X10197D01*
Y3702D01*
X10097D01*
Y3802D01*
X9897D01*
Y3702D01*
X9797D01*
Y3502D01*
X9897D01*
X9397Y2502D02*
Y2402D01*
X9597D01*
Y2502D01*
X9697D01*
Y2702D01*
X9597D01*
Y2802D01*
X9397D01*
Y2702D01*
X9297D01*
Y2502D01*
X9397D01*
X9897Y1502D02*
Y1402D01*
X10097D01*
Y1502D01*
X10197D01*
Y1702D01*
X10097D01*
Y1802D01*
X9897D01*
Y1702D01*
X9797D01*
Y1502D01*
X9897D01*
X9397Y502D02*
Y402D01*
X9597D01*
Y502D01*
X9697D01*
Y702D01*
X9597D01*
Y802D01*
X9397D01*
Y702D01*
X9297D01*
Y502D01*
X9397D01*
X8897Y5502D02*
Y5402D01*
X9097D01*
Y5502D01*
X9197D01*
Y5702D01*
X9097D01*
Y5802D01*
X8897D01*
Y5702D01*
X8797D01*
Y5502D01*
X8897D01*
X8397Y4502D02*
Y4402D01*
X8597D01*
Y4502D01*
X8697D01*
Y4702D01*
X8597D01*
Y4802D01*
X8397D01*
Y4702D01*
X8297D01*
Y4502D01*
X8397D01*
X8897Y3502D02*
Y3402D01*
X9097D01*
Y3502D01*
X9197D01*
Y3702D01*
X9097D01*
Y3802D01*
X8897D01*
Y3702D01*
X8797D01*
Y3502D01*
X8897D01*
X8397Y2502D02*
Y2402D01*
X8597D01*
Y2502D01*
X8697D01*
Y2702D01*
X8597D01*
Y2802D01*
X8397D01*
Y2702D01*
X8297D01*
Y2502D01*
X8397D01*
X8897Y1502D02*
Y1402D01*
X9097D01*
Y1502D01*
X9197D01*
Y1702D01*
X9097D01*
Y1802D01*
X8897D01*
Y1702D01*
X8797D01*
Y1502D01*
X8897D01*
X8397Y502D02*
Y402D01*
X8597D01*
Y502D01*
X8697D01*
Y702D01*
X8597D01*
Y802D01*
X8397D01*
Y702D01*
X8297D01*
Y502D01*
X8397D01*
X7397Y6502D02*
Y6402D01*
X7597D01*
Y6502D01*
X7697D01*
Y6702D01*
X7597D01*
Y6802D01*
X7397D01*
Y6702D01*
X7297D01*
Y6502D01*
X7397D01*
X7897Y5502D02*
Y5402D01*
X8097D01*
Y5502D01*
X8197D01*
Y5702D01*
X8097D01*
Y5802D01*
X7897D01*
Y5702D01*
X7797D01*
Y5502D01*
X7897D01*
X7397Y4502D02*
Y4402D01*
X7597D01*
Y4502D01*
X7697D01*
Y4702D01*
X7597D01*
Y4802D01*
X7397D01*
Y4702D01*
X7297D01*
Y4502D01*
X7397D01*
X7897Y3502D02*
Y3402D01*
X8097D01*
Y3502D01*
X8197D01*
Y3702D01*
X8097D01*
Y3802D01*
X7897D01*
Y3702D01*
X7797D01*
Y3502D01*
X7897D01*
X7397Y2502D02*
Y2402D01*
X7597D01*
Y2502D01*
X7697D01*
Y2702D01*
X7597D01*
Y2802D01*
X7397D01*
Y2702D01*
X7297D01*
Y2502D01*
X7397D01*
X7897Y1502D02*
Y1402D01*
X8097D01*
Y1502D01*
X8197D01*
Y1702D01*
X8097D01*
Y1802D01*
X7897D01*
Y1702D01*
X7797D01*
Y1502D01*
X7897D01*
X7397Y502D02*
Y402D01*
X7597D01*
Y502D01*
X7697D01*
Y702D01*
X7597D01*
Y802D01*
X7397D01*
Y702D01*
X7297D01*
Y502D01*
X7397D01*
X6397Y6502D02*
Y6402D01*
X6597D01*
Y6502D01*
X6697D01*
Y6702D01*
X6597D01*
Y6802D01*
X6397D01*
Y6702D01*
X6297D01*
Y6502D01*
X6397D01*
X6897Y5502D02*
Y5402D01*
X7097D01*
Y5502D01*
X7197D01*
Y5702D01*
X7097D01*
Y5802D01*
X6897D01*
Y5702D01*
X6797D01*
Y5502D01*
X6897D01*
X6397Y4502D02*
Y4402D01*
X6597D01*
Y4502D01*
X6697D01*
Y4702D01*
X6597D01*
Y4802D01*
X6397D01*
Y4702D01*
X6297D01*
Y4502D01*
X6397D01*
Y2502D02*
Y2402D01*
X6597D01*
Y2502D01*
X6697D01*
Y2702D01*
X6597D01*
Y2802D01*
X6397D01*
Y2702D01*
X6297D01*
Y2502D01*
X6397D01*
Y502D02*
Y402D01*
X6597D01*
Y502D01*
X6697D01*
Y702D01*
X6597D01*
Y802D01*
X6397D01*
Y702D01*
X6297D01*
Y502D01*
X6397D01*
X5397Y16502D02*
Y16402D01*
X5597D01*
Y16502D01*
X5697D01*
Y16702D01*
X5597D01*
Y16802D01*
X5397D01*
Y16702D01*
X5297D01*
Y16502D01*
X5397D01*
Y6502D02*
Y6402D01*
X5597D01*
Y6502D01*
X5697D01*
Y6702D01*
X5597D01*
Y6802D01*
X5397D01*
Y6702D01*
X5297D01*
Y6502D01*
X5397D01*
X5897Y5502D02*
Y5402D01*
X6097D01*
Y5502D01*
X6197D01*
Y5702D01*
X6097D01*
Y5802D01*
X5897D01*
Y5702D01*
X5797D01*
Y5502D01*
X5897D01*
X5397Y4502D02*
Y4402D01*
X5597D01*
Y4502D01*
X5697D01*
Y4702D01*
X5597D01*
Y4802D01*
X5397D01*
Y4702D01*
X5297D01*
Y4502D01*
X5397D01*
X5897Y3502D02*
Y3402D01*
X6097D01*
Y3502D01*
X6197D01*
Y3702D01*
X6097D01*
Y3802D01*
X5897D01*
Y3702D01*
X5797D01*
Y3502D01*
X5897D01*
Y1502D02*
Y1402D01*
X6097D01*
Y1502D01*
X6197D01*
Y1702D01*
X6097D01*
Y1802D01*
X5897D01*
Y1702D01*
X5797D01*
Y1502D01*
X5897D01*
X5397Y502D02*
Y402D01*
X5597D01*
Y502D01*
X5697D01*
Y702D01*
X5597D01*
Y802D01*
X5397D01*
Y702D01*
X5297D01*
Y502D01*
X5397D01*
X4397Y16502D02*
Y16402D01*
X4597D01*
Y16502D01*
X4697D01*
Y16702D01*
X4597D01*
Y16802D01*
X4397D01*
Y16702D01*
X4297D01*
Y16502D01*
X4397D01*
X4897Y15502D02*
Y15402D01*
X5097D01*
Y15502D01*
X5197D01*
Y15702D01*
X5097D01*
Y15802D01*
X4897D01*
Y15702D01*
X4797D01*
Y15502D01*
X4897D01*
X4397Y6502D02*
Y6402D01*
X4597D01*
Y6502D01*
X4697D01*
Y6702D01*
X4597D01*
Y6802D01*
X4397D01*
Y6702D01*
X4297D01*
Y6502D01*
X4397D01*
Y4502D02*
Y4402D01*
X4597D01*
Y4502D01*
X4697D01*
Y4702D01*
X4597D01*
Y4802D01*
X4397D01*
Y4702D01*
X4297D01*
Y4502D01*
X4397D01*
Y502D02*
Y402D01*
X4597D01*
Y502D01*
X4697D01*
Y702D01*
X4597D01*
Y802D01*
X4397D01*
Y702D01*
X4297D01*
Y502D01*
X4397D01*
X3897Y1502D02*
Y1402D01*
X4097D01*
Y1502D01*
X4197D01*
Y1702D01*
X4097D01*
Y1802D01*
X3897D01*
Y1702D01*
X3797D01*
Y1502D01*
X3897D01*
X3397Y502D02*
Y402D01*
X3597D01*
Y502D01*
X3697D01*
Y702D01*
X3597D01*
Y802D01*
X3397D01*
Y702D01*
X3297D01*
Y502D01*
X3397D01*
X2397Y12502D02*
Y12402D01*
X2597D01*
Y12502D01*
X2697D01*
Y12702D01*
X2597D01*
Y12802D01*
X2397D01*
Y12702D01*
X2297D01*
Y12502D01*
X2397D01*
X2897Y3502D02*
Y3402D01*
X3097D01*
Y3502D01*
X3197D01*
Y3702D01*
X3097D01*
Y3802D01*
X2897D01*
Y3702D01*
X2797D01*
Y3502D01*
X2897D01*
X2397Y2502D02*
Y2402D01*
X2597D01*
Y2502D01*
X2697D01*
Y2702D01*
X2597D01*
Y2802D01*
X2397D01*
Y2702D01*
X2297D01*
Y2502D01*
X2397D01*
X2897Y1502D02*
Y1402D01*
X3097D01*
Y1502D01*
X3197D01*
Y1702D01*
X3097D01*
Y1802D01*
X2897D01*
Y1702D01*
X2797D01*
Y1502D01*
X2897D01*
X2397Y502D02*
Y402D01*
X2597D01*
Y502D01*
X2697D01*
Y702D01*
X2597D01*
Y802D01*
X2397D01*
Y702D01*
X2297D01*
Y502D01*
X2397D01*
X1897Y7502D02*
Y7402D01*
X2097D01*
Y7502D01*
X2197D01*
Y7702D01*
X2097D01*
Y7802D01*
X1897D01*
Y7702D01*
X1797D01*
Y7502D01*
X1897D01*
Y3502D02*
Y3402D01*
X2097D01*
Y3502D01*
X2197D01*
Y3702D01*
X2097D01*
Y3802D01*
X1897D01*
Y3702D01*
X1797D01*
Y3502D01*
X1897D01*
X1397Y2502D02*
Y2402D01*
X1597D01*
Y2502D01*
X1697D01*
Y2702D01*
X1597D01*
Y2802D01*
X1397D01*
Y2702D01*
X1297D01*
Y2502D01*
X1397D01*
X1897Y1502D02*
Y1402D01*
X2097D01*
Y1502D01*
X2197D01*
Y1702D01*
X2097D01*
Y1802D01*
X1897D01*
Y1702D01*
X1797D01*
Y1502D01*
X1897D01*
X397Y4502D02*
Y4402D01*
X597D01*
Y4502D01*
X697D01*
Y4702D01*
X597D01*
Y4802D01*
X397D01*
Y4702D01*
X297D01*
Y4502D01*
X397D01*
Y2502D02*
Y2402D01*
X597D01*
Y2502D01*
X697D01*
Y2702D01*
X597D01*
Y2802D01*
X397D01*
Y2702D01*
X297D01*
Y2502D01*
X397D01*
X9743Y13975D02*
Y13875D01*
X9943D01*
Y13975D01*
X10043D01*
Y14175D01*
X9943D01*
Y14275D01*
X9743D01*
Y14175D01*
X9643D01*
Y13975D01*
X9743D01*
X11170Y14221D02*
Y14121D01*
X11370D01*
Y14221D01*
X11470D01*
Y14421D01*
X11370D01*
Y14521D01*
X11170D01*
Y14421D01*
X11070D01*
Y14221D01*
X11170D01*
X10076Y12999D02*
X10176D01*
X10276Y13099D01*
X10376Y12999D01*
X10476D01*
Y13099D01*
X10376Y13199D01*
X10476Y13299D01*
Y13399D01*
X10376D01*
X10276Y13299D01*
X10176Y13399D01*
X10076D01*
Y13299D01*
X10176Y13199D01*
X10076Y13099D01*
Y12999D01*
X6591Y10676D02*
X6691D01*
X6791Y10776D01*
X6891Y10676D01*
X6991D01*
Y10776D01*
X6891Y10876D01*
X6991Y10976D01*
Y11076D01*
X6891D01*
X6791Y10976D01*
X6691Y11076D01*
X6591D01*
Y10976D01*
X6691Y10876D01*
X6591Y10776D01*
Y10676D01*
X15284Y11829D02*
Y11729D01*
X15484D01*
Y11829D01*
X15584D01*
Y12029D01*
X15484D01*
Y12129D01*
X15284D01*
Y12029D01*
X15184D01*
Y11829D01*
X15284D01*
X8315Y15500D02*
Y15400D01*
X8515D01*
Y15500D01*
X8615D01*
Y15700D01*
X8515D01*
Y15800D01*
X8315D01*
Y15700D01*
X8215D01*
Y15500D01*
X8315D01*
X10875Y16682D02*
Y16582D01*
X11075D01*
Y16682D01*
X11174D01*
Y16882D01*
X11075D01*
Y16982D01*
X10875D01*
Y16882D01*
X10775D01*
Y16682D01*
X10875D01*
X9792Y17026D02*
Y16926D01*
X9992D01*
Y17026D01*
X10092D01*
Y17226D01*
X9992D01*
Y17326D01*
X9792D01*
Y17226D01*
X9692D01*
Y17026D01*
X9792D01*
X8806Y15548D02*
X8906D01*
X9006Y15648D01*
X9106Y15548D01*
X9206D01*
Y15648D01*
X9106Y15748D01*
X9206Y15848D01*
Y15948D01*
X9106D01*
X9006Y15848D01*
X8906Y15948D01*
X8806D01*
Y15848D01*
X8906Y15748D01*
X8806Y15648D01*
Y15548D01*
X12105Y16632D02*
Y16532D01*
X12305D01*
Y16632D01*
X12405D01*
Y16832D01*
X12305D01*
Y16932D01*
X12105D01*
Y16832D01*
X12005D01*
Y16632D01*
X12105D01*
X12597Y14122D02*
Y14022D01*
X12797D01*
Y14122D01*
X12897D01*
Y14322D01*
X12797D01*
Y14422D01*
X12597D01*
Y14322D01*
X12497D01*
Y14122D01*
X12597D01*
Y14615D02*
Y14515D01*
X12797D01*
Y14615D01*
X12897D01*
Y14815D01*
X12797D01*
Y14915D01*
X12597D01*
Y14815D01*
X12497D01*
Y14615D01*
X12597D01*
X13237Y16042D02*
Y15942D01*
X13437D01*
Y16042D01*
X13537D01*
Y16242D01*
X13437D01*
Y16342D01*
X13237D01*
Y16242D01*
X13137D01*
Y16042D01*
X13237D01*
X15205Y14123D02*
Y14023D01*
X15405D01*
Y14123D01*
X15505D01*
Y14323D01*
X15405D01*
Y14423D01*
X15205D01*
Y14323D01*
X15105D01*
Y14123D01*
X15205D01*
X15156Y14565D02*
Y14465D01*
X15356D01*
Y14565D01*
X15456D01*
Y14765D01*
X15356D01*
Y14865D01*
X15156D01*
Y14765D01*
X15056D01*
Y14565D01*
X15156D01*
X15254Y13729D02*
Y13629D01*
X15454D01*
Y13729D01*
X15554D01*
Y13929D01*
X15454D01*
Y14029D01*
X15254D01*
Y13929D01*
X15154D01*
Y13729D01*
X15254D01*
X17074Y15745D02*
X17174D01*
X17274Y15845D01*
X17374Y15745D01*
X17474D01*
Y15845D01*
X17374Y15945D01*
X17474Y16045D01*
Y16145D01*
X17374D01*
X17274Y16045D01*
X17174Y16145D01*
X17074D01*
Y16045D01*
X17174Y15945D01*
X17074Y15845D01*
Y15745D01*
X10627Y14859D02*
X10727D01*
X10827Y14959D01*
X10927Y14859D01*
X11027D01*
Y14959D01*
X10927Y15059D01*
X11027Y15159D01*
Y15259D01*
X10927D01*
X10827Y15159D01*
X10727Y15259D01*
X10627D01*
Y15159D01*
X10727Y15059D01*
X10627Y14959D01*
Y14859D01*
X11219Y3099D02*
Y2999D01*
X11419D01*
Y3099D01*
X11519D01*
Y3299D01*
X11419D01*
Y3399D01*
X11219D01*
Y3299D01*
X11119D01*
Y3099D01*
X11219D01*
X3689Y7036D02*
Y6936D01*
X3889D01*
Y7036D01*
X3989D01*
Y7236D01*
X3889D01*
Y7336D01*
X3689D01*
Y7236D01*
X3589D01*
Y7036D01*
X3689D01*
X15894Y11613D02*
Y11513D01*
X16094D01*
Y11613D01*
X16194D01*
Y11813D01*
X16094D01*
Y11913D01*
X15894D01*
Y11813D01*
X15794D01*
Y11613D01*
X15894D01*
X14969Y11278D02*
Y11178D01*
X15169D01*
Y11278D01*
X15269D01*
Y11478D01*
X15169D01*
Y11578D01*
X14969D01*
Y11478D01*
X14869D01*
Y11278D01*
X14969D01*
X15599Y11268D02*
Y11168D01*
X15799D01*
Y11268D01*
X15899D01*
Y11468D01*
X15799D01*
Y11568D01*
X15599D01*
Y11468D01*
X15499D01*
Y11268D01*
X15599D01*
X14959Y9743D02*
Y9643D01*
X15159D01*
Y9743D01*
X15259D01*
Y9943D01*
X15159D01*
Y10043D01*
X14959D01*
Y9943D01*
X14859D01*
Y9743D01*
X14959D01*
X13335Y10530D02*
Y10430D01*
X13535D01*
Y10530D01*
X13635D01*
Y10730D01*
X13535D01*
Y10830D01*
X13335D01*
Y10730D01*
X13235D01*
Y10530D01*
X13335D01*
X14615Y16140D02*
Y16040D01*
X14815D01*
Y16140D01*
X14915D01*
Y16340D01*
X14815D01*
Y16440D01*
X14615D01*
Y16340D01*
X14515D01*
Y16140D01*
X14615D01*
X11071Y11121D02*
Y11021D01*
X11271D01*
Y11121D01*
X11371D01*
Y11321D01*
X11271D01*
Y11421D01*
X11071D01*
Y11321D01*
X10971D01*
Y11121D01*
X11071D01*
X10776Y10874D02*
Y10774D01*
X10976D01*
Y10874D01*
X11076D01*
Y11074D01*
X10976D01*
Y11174D01*
X10776D01*
Y11074D01*
X10676D01*
Y10874D01*
X10776D01*
X12695Y10973D02*
Y10873D01*
X12895D01*
Y10973D01*
X12995D01*
Y11173D01*
X12895D01*
Y11273D01*
X12695D01*
Y11173D01*
X12595D01*
Y10973D01*
X12695D01*
X13040Y10776D02*
Y10676D01*
X13240D01*
Y10776D01*
X13340D01*
Y10976D01*
X13240D01*
Y11076D01*
X13040D01*
Y10976D01*
X12940D01*
Y10776D01*
X13040D01*
X4034Y8069D02*
Y7969D01*
X4234D01*
Y8069D01*
X4334D01*
Y8269D01*
X4234D01*
Y8369D01*
X4034D01*
Y8269D01*
X3934D01*
Y8069D01*
X4034D01*
X4674Y8266D02*
Y8166D01*
X4874D01*
Y8266D01*
X4974D01*
Y8466D01*
X4874D01*
Y8566D01*
X4674D01*
Y8466D01*
X4574D01*
Y8266D01*
X4674D01*
X5609Y8020D02*
Y7920D01*
X5809D01*
Y8020D01*
X5909D01*
Y8220D01*
X5809D01*
Y8320D01*
X5609D01*
Y8220D01*
X5509D01*
Y8020D01*
X5609D01*
X5881Y8240D02*
Y8140D01*
X6081D01*
Y8240D01*
X6181D01*
Y8440D01*
X6081D01*
Y8540D01*
X5881D01*
Y8440D01*
X5781D01*
Y8240D01*
X5881D01*
X11662Y8217D02*
Y8117D01*
X11862D01*
Y8217D01*
X11962D01*
Y8417D01*
X11862D01*
Y8517D01*
X11662D01*
Y8417D01*
X11562D01*
Y8217D01*
X11662D01*
X12154D02*
Y8117D01*
X12354D01*
Y8217D01*
X12454D01*
Y8417D01*
X12354D01*
Y8517D01*
X12154D01*
Y8417D01*
X12054D01*
Y8217D01*
X12154D01*
X13187Y8168D02*
Y8068D01*
X13387D01*
Y8168D01*
X13487D01*
Y8368D01*
X13387D01*
Y8468D01*
X13187D01*
Y8368D01*
X13087D01*
Y8168D01*
X13187D01*
X15451Y16140D02*
Y16040D01*
X15651D01*
Y16140D01*
X15751D01*
Y16340D01*
X15651D01*
Y16440D01*
X15451D01*
Y16340D01*
X15351D01*
Y16140D01*
X15451D01*
X14969Y16101D02*
Y16001D01*
X15169D01*
Y16101D01*
X15269D01*
Y16301D01*
X15169D01*
Y16401D01*
X14969D01*
Y16301D01*
X14869D01*
Y16101D01*
X14969D01*
X14959Y5117D02*
Y5017D01*
X15159D01*
Y5117D01*
X15259D01*
Y5317D01*
X15159D01*
Y5417D01*
X14959D01*
Y5317D01*
X14859D01*
Y5117D01*
X14959D01*
X12646Y1426D02*
Y1326D01*
X12846D01*
Y1426D01*
X12946D01*
Y1626D01*
X12846D01*
Y1726D01*
X12646D01*
Y1626D01*
X12546D01*
Y1426D01*
X12646D01*
X4870D02*
Y1326D01*
X5070D01*
Y1426D01*
X5170D01*
Y1626D01*
X5070D01*
Y1726D01*
X4870D01*
Y1626D01*
X4770D01*
Y1426D01*
X4870D01*
X3245Y3885D02*
X3345D01*
X3445Y3985D01*
X3545Y3885D01*
X3645D01*
Y3985D01*
X3545Y4085D01*
X3645Y4185D01*
Y4285D01*
X3545D01*
X3445Y4185D01*
X3345Y4285D01*
X3245D01*
Y4185D01*
X3345Y4085D01*
X3245Y3985D01*
Y3885D01*
X6877Y8058D02*
X6977D01*
X7077Y8158D01*
X7177Y8058D01*
X7277D01*
Y8158D01*
X7177Y8258D01*
X7277Y8358D01*
Y8458D01*
X7177D01*
X7077Y8358D01*
X6977Y8458D01*
X6877D01*
Y8358D01*
X6977Y8258D01*
X6877Y8158D01*
Y8058D01*
X3689Y2557D02*
Y2457D01*
X3889D01*
Y2557D01*
X3989D01*
Y2757D01*
X3889D01*
Y2857D01*
X3689D01*
Y2757D01*
X3589D01*
Y2557D01*
X3689D01*
X7134Y11219D02*
Y11119D01*
X7334D01*
Y11219D01*
X7434D01*
Y11419D01*
X7334D01*
Y11519D01*
X7134D01*
Y11419D01*
X7034D01*
Y11219D01*
X7134D01*
X6396Y12006D02*
Y11906D01*
X6596D01*
Y12006D01*
X6696D01*
Y12206D01*
X6596D01*
Y12306D01*
X6396D01*
Y12206D01*
X6296D01*
Y12006D01*
X6396D01*
X7528Y12006D02*
Y11906D01*
X7728D01*
Y12006D01*
X7828D01*
Y12206D01*
X7728D01*
Y12306D01*
X7528D01*
Y12206D01*
X7428D01*
Y12006D01*
X7528D01*
X5703Y11760D02*
Y11660D01*
X5903D01*
Y11760D01*
X6003D01*
Y11960D01*
X5903D01*
Y12060D01*
X5703D01*
Y11960D01*
X5603D01*
Y11760D01*
X5703D01*
X9939Y11760D02*
Y11660D01*
X10139D01*
Y11760D01*
X10239D01*
Y11960D01*
X10139D01*
Y12060D01*
X9939D01*
Y11960D01*
X9839D01*
Y11760D01*
X9939D01*
X12744Y12991D02*
Y12891D01*
X12944D01*
Y12991D01*
X13044D01*
Y13191D01*
X12944D01*
Y13291D01*
X12744D01*
Y13191D01*
X12644D01*
Y12991D01*
X12744D01*
X8365Y11760D02*
Y11660D01*
X8565D01*
Y11760D01*
X8665D01*
Y11960D01*
X8565D01*
Y12060D01*
X8365D01*
Y11960D01*
X8265D01*
Y11760D01*
X8365D01*
X9644Y11465D02*
Y11365D01*
X9844D01*
Y11465D01*
X9944D01*
Y11665D01*
X9844D01*
Y11765D01*
X9644D01*
Y11665D01*
X9544D01*
Y11465D01*
X9644D01*
X6101Y11170D02*
Y11070D01*
X6301D01*
Y11170D01*
X6401D01*
Y11370D01*
X6301D01*
Y11470D01*
X6101D01*
Y11370D01*
X6001D01*
Y11170D01*
X6101D01*
X3050Y9939D02*
Y9839D01*
X3250D01*
Y9939D01*
X3350D01*
Y10139D01*
X3250D01*
Y10239D01*
X3050D01*
Y10139D01*
X2950D01*
Y9939D01*
X3050D01*
X8512Y13286D02*
Y13186D01*
X8712D01*
Y13286D01*
X8812D01*
Y13486D01*
X8712D01*
Y13586D01*
X8512D01*
Y13486D01*
X8412D01*
Y13286D01*
X8512D01*
X8806Y13973D02*
X8906D01*
X9006Y14073D01*
X9106Y13973D01*
X9206D01*
Y14073D01*
X9106Y14173D01*
X9206Y14273D01*
Y14373D01*
X9106D01*
X9006Y14273D01*
X8906Y14373D01*
X8806D01*
Y14273D01*
X8906Y14173D01*
X8806Y14073D01*
Y13973D01*
X10678Y13335D02*
Y13235D01*
X10878D01*
Y13335D01*
X10978D01*
Y13535D01*
X10878D01*
Y13635D01*
X10678D01*
Y13535D01*
X10578D01*
Y13335D01*
X10678D01*
D74*
X1430Y6094D02*
G03*
X1430Y6094I-200J0D01*
G01*
Y7094D02*
G03*
X1430Y7094I-200J0D01*
G01*
Y8094D02*
G03*
X1430Y8094I-200J0D01*
G01*
Y9094D02*
G03*
X1430Y9094I-200J0D01*
G01*
Y5094D02*
G03*
X1430Y5094I-200J0D01*
G01*
Y4094D02*
G03*
X1430Y4094I-200J0D01*
G01*
X2710Y6094D02*
G03*
X2710Y6094I-200J0D01*
G01*
Y7094D02*
G03*
X2710Y7094I-200J0D01*
G01*
Y8094D02*
G03*
X2710Y8094I-200J0D01*
G01*
Y9094D02*
G03*
X2710Y9094I-200J0D01*
G01*
Y5094D02*
G03*
X2710Y5094I-200J0D01*
G01*
Y4094D02*
G03*
X2710Y4094I-200J0D01*
G01*
X5550Y17913D02*
G03*
X5550Y17913I-200J0D01*
G01*
X6550D02*
G03*
X6550Y17913I-200J0D01*
G01*
X9550D02*
G03*
X9550Y17913I-200J0D01*
G01*
X10550D02*
G03*
X10550Y17913I-200J0D01*
G01*
X11550D02*
G03*
X11550Y17913I-200J0D01*
G01*
X12550D02*
G03*
X12550Y17913I-200J0D01*
G01*
X8550D02*
G03*
X8550Y17913I-200J0D01*
G01*
X7550D02*
G03*
X7550Y17913I-200J0D01*
G01*
M02*
