M48
;Layer_Color=9474304
;FILE_FORMAT=2:4
INCH,LZ
;TYPE=PLATED
T1F00S00C0.0150
T2F00S00C0.0197
T3F00S00C0.0315
T4F00S00C0.0350
T5F00S00C0.0354
%
T01
X013497Y000602
X014497
X015497
X014997Y001602
X013997
Y003602
X014497Y004602
X013497
X013997Y005602
X014997
X015059Y005217
X015497Y006602
X016497
X014497
X013497
X014997Y007602
X015997Y003602
X016997
X016497Y002602
X015497
X012746Y001526
X011997Y001602
X010997
X009997
X008997
X007997
X008497Y002602
X009497
X010497
X011497
X011319Y003199
X010997Y003602
X011997
X012497Y004602
X011497
X010497
X009497
X008497
X007497
X006497
X005497
X004497
Y006602
X005497
X006497
X007497
X007997Y005602
X008997
X009997
X010997
X011497Y006602
X012497
X010497
X009497
X009997Y003602
X008997
X007997
X007497Y002602
X006497
X005997Y003602
Y005602
X006997
X003789Y007136
X001997Y007602
Y003602
X002997
X002497Y002602
X001497
X000497
Y004602
X001997Y001602
X002997
X003997
X00497Y001526
X005997Y001602
X006497Y000602
X007497
X008497
X009497
X010497
X011497
X005497
X004497
X003497
X002497
X003789Y002657
X004134Y008169
X004774Y008366
X005709Y00812
X005981Y00834
X006201Y01127
X005803Y01186
X006496Y012106
X007628Y012106
X008465Y01186
X009744Y011565
X010039Y01186
X010876Y010974
X011171Y011221
X012795Y011073
X012844Y013091
X012697Y014222
Y014715
X01127Y014321
X010778Y013435
X009843Y014075
X008612Y013386
X008415Y0156
X009892Y017126
X010975Y016782
X012205Y016732
X005497Y016602
X004497
X004997Y015602
X002497Y012602
X00315Y010039
X007234Y011319
X011762Y008317
X012254
X013287Y008268
X013435Y01063
X01314Y010876
X015069Y011378
X015699Y011368
X015994Y011713
X015384Y011929
X015354Y013829
X015305Y014223
X015256Y014665
X01688
X015551Y01624
X015069Y016201
X014715Y01624
X013337Y016142
X015059Y009843
T02
X003445Y004085
X007077Y008258
X006791Y010876
X009006Y014173
Y015748
X010827Y015059
X010276Y013199
X017274Y015945
T03
X000738Y01064
X001722
X002707
Y0119
X001722
X000738
T04
X005719Y006102
X012018
T05
X00123Y004094
Y005094
Y006094
Y007094
X00251
Y006094
Y005094
Y004094
Y008094
Y009094
X00123
Y008094
X00535Y017913
X00635
X00735
X00835
X00935
X01035
X01135
X01235
M30
