G04 Layer_Color=32896*
%FSLAX24Y24*%
%MOIN*%
G70*
G01*
G75*
%ADD26C,0.0098*%
%ADD27C,0.0100*%
%ADD41C,0.0079*%
%ADD72R,0.0177X0.0295*%
G36*
X4661Y14368D02*
X4860D01*
Y14232D01*
X4661D01*
Y14036D01*
X4529D01*
Y14232D01*
X4331D01*
Y14368D01*
X4529D01*
Y14563D01*
X4661D01*
Y14368D01*
D02*
G37*
G36*
X4763Y15014D02*
X4478D01*
Y15159D01*
X4763D01*
Y15014D01*
D02*
G37*
D26*
X6122Y15896D02*
G03*
X6122Y15896I-20J0D01*
G01*
X9567Y16211D02*
G03*
X9567Y16211I-49J0D01*
G01*
X8258Y10394D02*
G03*
X8258Y10394I-49J0D01*
G01*
D27*
X2211Y18553D02*
G03*
X2211Y18553I-1079J0D01*
G01*
X17663D02*
G03*
X17663Y18553I-1079J0D01*
G01*
Y1132D02*
G03*
X17663Y1132I-1079J0D01*
G01*
X2211D02*
G03*
X2211Y1132I-1079J0D01*
G01*
X394Y2362D02*
Y12205D01*
X17323D01*
Y2362D02*
Y12205D01*
X394Y2362D02*
X17323D01*
X10684Y16918D02*
X11014D01*
Y16479D02*
Y16918D01*
X10284Y16339D02*
X10484D01*
X9754Y16918D02*
X10084D01*
X9754Y16479D02*
Y16918D01*
X12160D02*
X12490D01*
Y16479D02*
Y16918D01*
X11760Y16339D02*
X11960D01*
X11230Y16918D02*
X11560D01*
X11230Y16479D02*
Y16918D01*
X13637D02*
X13967D01*
Y16479D02*
Y16918D01*
X13237Y16339D02*
X13437D01*
X12707Y16918D02*
X13037D01*
X12707Y16479D02*
Y16918D01*
X3799Y10149D02*
X4129D01*
X3799D02*
Y10588D01*
X4329Y10727D02*
X4529D01*
X4729Y10149D02*
X5059D01*
Y10588D01*
X4134Y17529D02*
Y16929D01*
X3834D01*
X3734Y17029D01*
Y17129D01*
X3834Y17229D01*
X4134D01*
X3834D01*
X3734Y17329D01*
Y17429D01*
X3834Y17529D01*
X4134D01*
X3434Y17329D02*
X3234D01*
X3134Y17229D01*
Y16929D01*
X3434D01*
X3534Y17029D01*
X3434Y17129D01*
X3134D01*
X2834Y17429D02*
Y17329D01*
X2934D01*
X2734D01*
X2834D01*
Y17029D01*
X2734Y16929D01*
X2334Y17429D02*
Y17329D01*
X2434D01*
X2234D01*
X2334D01*
Y17029D01*
X2234Y16929D01*
X1635D02*
X1835D01*
X1935Y17029D01*
Y17229D01*
X1835Y17329D01*
X1635D01*
X1535Y17229D01*
Y17129D01*
X1935D01*
X1335Y17329D02*
Y16929D01*
Y17129D01*
X1235Y17229D01*
X1135Y17329D01*
X1035D01*
X735D02*
Y17029D01*
X635Y16929D01*
X335D01*
Y16829D01*
X435Y16729D01*
X535D01*
X335Y16929D02*
Y17329D01*
X3734Y18366D02*
X3934D01*
X3834D01*
Y17866D01*
X3934Y17766D01*
X4034D01*
X4134Y17866D01*
X3134Y17766D02*
X3534D01*
X3134Y18166D01*
Y18266D01*
X3234Y18366D01*
X3434D01*
X3534Y18266D01*
X10827Y13878D02*
Y14350D01*
X10591D01*
X10512Y14272D01*
Y14114D01*
X10591Y14035D01*
X10827D01*
X10669D02*
X10512Y13878D01*
X10040D02*
X10354D01*
X10040Y14193D01*
Y14272D01*
X10118Y14350D01*
X10276D01*
X10354Y14272D01*
X9882Y13878D02*
X9725D01*
X9803D01*
Y14350D01*
X9882Y14272D01*
X12402Y13878D02*
Y14350D01*
X12165D01*
X12087Y14272D01*
Y14114D01*
X12165Y14035D01*
X12402D01*
X12244D02*
X12087Y13878D01*
X11614D02*
X11929D01*
X11614Y14193D01*
Y14272D01*
X11693Y14350D01*
X11851D01*
X11929Y14272D01*
X11457D02*
X11378Y14350D01*
X11221D01*
X11142Y14272D01*
Y13957D01*
X11221Y13878D01*
X11378D01*
X11457Y13957D01*
Y14272D01*
X14075Y13878D02*
Y14350D01*
X13839D01*
X13760Y14272D01*
Y14114D01*
X13839Y14035D01*
X14075D01*
X13917D02*
X13760Y13878D01*
X13603D02*
X13445D01*
X13524D01*
Y14350D01*
X13603Y14272D01*
X13209Y13957D02*
X13130Y13878D01*
X12973D01*
X12894Y13957D01*
Y14272D01*
X12973Y14350D01*
X13130D01*
X13209Y14272D01*
Y14193D01*
X13130Y14114D01*
X12894D01*
X10413Y14695D02*
Y15010D01*
X10492Y15088D01*
X10650D01*
X10728Y15010D01*
Y14695D01*
X10650Y14616D01*
X10492D01*
X10571Y14774D02*
X10413Y14616D01*
X10492D02*
X10413Y14695D01*
X10256Y15010D02*
X10177Y15088D01*
X10020D01*
X9941Y15010D01*
Y14931D01*
X10020Y14852D01*
X10099D01*
X10020D01*
X9941Y14774D01*
Y14695D01*
X10020Y14616D01*
X10177D01*
X10256Y14695D01*
X11939D02*
Y15010D01*
X12018Y15088D01*
X12175D01*
X12254Y15010D01*
Y14695D01*
X12175Y14616D01*
X12018D01*
X12097Y14774D02*
X11939Y14616D01*
X12018D02*
X11939Y14695D01*
X11467Y14616D02*
X11782D01*
X11467Y14931D01*
Y15010D01*
X11546Y15088D01*
X11703D01*
X11782Y15010D01*
X13366Y14646D02*
Y14961D01*
X13445Y15039D01*
X13602D01*
X13681Y14961D01*
Y14646D01*
X13602Y14567D01*
X13445D01*
X13524Y14724D02*
X13366Y14567D01*
X13445D02*
X13366Y14646D01*
X13209Y14567D02*
X13051D01*
X13130D01*
Y15039D01*
X13209Y14961D01*
X3593Y10827D02*
Y10735D01*
Y10781D01*
X3317D01*
X3363Y10827D01*
X3593Y10597D02*
Y10505D01*
Y10551D01*
X3317D01*
X3363Y10597D01*
X3593Y10368D02*
X3409D01*
X3317Y10276D01*
X3409Y10184D01*
X3593D01*
X3455D01*
Y10368D01*
X3593Y10092D02*
X3409D01*
X3317Y10000D01*
X3409Y9908D01*
X3593D01*
X3455D01*
Y10092D01*
X3363Y9817D02*
X3317Y9771D01*
Y9679D01*
X3363Y9633D01*
X3547D01*
X3593Y9679D01*
Y9771D01*
X3547Y9817D01*
X3363D01*
X3593Y9541D02*
Y9449D01*
Y9495D01*
X3317D01*
X3363Y9541D01*
Y9312D02*
X3317Y9266D01*
Y9174D01*
X3363Y9128D01*
X3547D01*
X3593Y9174D01*
Y9266D01*
X3547Y9312D01*
X3363D01*
X3593Y11496D02*
Y11102D01*
X3514Y11024D01*
X3356D01*
X3278Y11102D01*
Y11496D01*
X3120Y11417D02*
X3042Y11496D01*
X2884D01*
X2805Y11417D01*
Y11338D01*
X2884Y11260D01*
X2805Y11181D01*
Y11102D01*
X2884Y11024D01*
X3042D01*
X3120Y11102D01*
Y11181D01*
X3042Y11260D01*
X3120Y11338D01*
Y11417D01*
X3042Y11260D02*
X2884D01*
X4921Y11909D02*
Y12303D01*
X4724D01*
X4659Y12237D01*
Y12106D01*
X4724Y12041D01*
X4921D01*
X4790D02*
X4659Y11909D01*
X4528D02*
X4396D01*
X4462D01*
Y12303D01*
X4528Y12237D01*
X4200Y12303D02*
X3937D01*
Y12237D01*
X4200Y11975D01*
Y11909D01*
X6184Y10942D02*
X6250Y10876D01*
Y10745D01*
X6184Y10679D01*
X5922D01*
X5856Y10745D01*
Y10876D01*
X5922Y10942D01*
X5856Y11335D02*
Y11073D01*
X6119Y11335D01*
X6184D01*
X6250Y11269D01*
Y11138D01*
X6184Y11073D01*
X5856Y11729D02*
Y11466D01*
X6119Y11729D01*
X6184D01*
X6250Y11663D01*
Y11532D01*
X6184Y11466D01*
X7218Y10056D02*
X7283Y9990D01*
Y9859D01*
X7218Y9793D01*
X6955D01*
X6890Y9859D01*
Y9990D01*
X6955Y10056D01*
X6890Y10187D02*
Y10318D01*
Y10252D01*
X7283D01*
X7218Y10187D01*
X6627Y10056D02*
X6693Y9990D01*
Y9859D01*
X6627Y9793D01*
X6365D01*
X6299Y9859D01*
Y9990D01*
X6365Y10056D01*
X6299Y10449D02*
Y10187D01*
X6562Y10449D01*
X6627D01*
X6693Y10384D01*
Y10252D01*
X6627Y10187D01*
X5692Y9531D02*
X5758Y9596D01*
X5889D01*
X5955Y9531D01*
Y9268D01*
X5889Y9203D01*
X5758D01*
X5692Y9268D01*
X5561Y9531D02*
X5496Y9596D01*
X5364D01*
X5299Y9531D01*
Y9465D01*
X5364Y9400D01*
X5430D01*
X5364D01*
X5299Y9334D01*
Y9268D01*
X5364Y9203D01*
X5496D01*
X5561Y9268D01*
X4511Y9531D02*
X4577Y9596D01*
X4708D01*
X4774Y9531D01*
Y9268D01*
X4708Y9203D01*
X4577D01*
X4511Y9268D01*
X4183Y9203D02*
Y9596D01*
X4380Y9400D01*
X4118D01*
X13419Y10056D02*
X13484Y9990D01*
Y9859D01*
X13419Y9793D01*
X13156D01*
X13091Y9859D01*
Y9990D01*
X13156Y10056D01*
X13484Y10449D02*
Y10187D01*
X13287D01*
X13353Y10318D01*
Y10384D01*
X13287Y10449D01*
X13156D01*
X13091Y10384D01*
Y10252D01*
X13156Y10187D01*
X12828Y10056D02*
X12894Y9990D01*
Y9859D01*
X12828Y9793D01*
X12566D01*
X12500Y9859D01*
Y9990D01*
X12566Y10056D01*
X12894Y10449D02*
X12828Y10318D01*
X12697Y10187D01*
X12566D01*
X12500Y10252D01*
Y10384D01*
X12566Y10449D01*
X12631D01*
X12697Y10384D01*
Y10187D01*
X10072Y11302D02*
X10138Y11368D01*
X10269D01*
X10335Y11302D01*
Y11040D01*
X10269Y10974D01*
X10138D01*
X10072Y11040D01*
X9941D02*
X9875Y10974D01*
X9744D01*
X9679Y11040D01*
Y11302D01*
X9744Y11368D01*
X9875D01*
X9941Y11302D01*
Y11237D01*
X9875Y11171D01*
X9679D01*
X10368Y8694D02*
X10433Y8760D01*
X10564D01*
X10630Y8694D01*
Y8432D01*
X10564Y8366D01*
X10433D01*
X10368Y8432D01*
X10236Y8366D02*
X10105D01*
X10171D01*
Y8760D01*
X10236Y8694D01*
X9908D02*
X9843Y8760D01*
X9712D01*
X9646Y8694D01*
Y8432D01*
X9712Y8366D01*
X9843D01*
X9908Y8432D01*
Y8694D01*
X14807Y10047D02*
X14907Y10147D01*
X15107D01*
X15207Y10047D01*
Y9647D01*
X15107Y9547D01*
X14907D01*
X14807Y9647D01*
X14607Y9547D02*
X14407D01*
X14507D01*
Y10147D01*
X14607Y10047D01*
X14107D02*
X14007Y10147D01*
X13807D01*
X13707Y10047D01*
Y9947D01*
X13807Y9847D01*
X13907D01*
X13807D01*
X13707Y9747D01*
Y9647D01*
X13807Y9547D01*
X14007D01*
X14107Y9647D01*
X14807Y5421D02*
X14907Y5521D01*
X15107D01*
X15207Y5421D01*
Y5021D01*
X15107Y4921D01*
X14907D01*
X14807Y5021D01*
X14607Y4921D02*
X14407D01*
X14507D01*
Y5521D01*
X14607Y5421D01*
X13807Y4921D02*
Y5521D01*
X14107Y5221D01*
X13707D01*
X12951Y3500D02*
X13051Y3400D01*
Y3200D01*
X12951Y3100D01*
X12551D01*
X12451Y3200D01*
Y3400D01*
X12551Y3500D01*
X12451Y3700D02*
Y3900D01*
Y3800D01*
X13051D01*
X12951Y3700D01*
X13051Y4600D02*
Y4200D01*
X12751D01*
X12851Y4400D01*
Y4500D01*
X12751Y4600D01*
X12551D01*
X12451Y4500D01*
Y4300D01*
X12551Y4200D01*
X5175Y3500D02*
X5275Y3400D01*
Y3200D01*
X5175Y3100D01*
X4775D01*
X4675Y3200D01*
Y3400D01*
X4775Y3500D01*
X4675Y3700D02*
Y3900D01*
Y3800D01*
X5275D01*
X5175Y3700D01*
X5275Y4600D02*
X5175Y4400D01*
X4975Y4200D01*
X4775D01*
X4675Y4300D01*
Y4500D01*
X4775Y4600D01*
X4875D01*
X4975Y4500D01*
Y4200D01*
X8829Y13386D02*
X9301D01*
Y13150D01*
X9222Y13071D01*
X8908D01*
X8829Y13150D01*
Y13386D01*
X9301Y12914D02*
Y12756D01*
Y12835D01*
X8829D01*
X8908Y12914D01*
X11909Y9793D02*
X12303D01*
Y9990D01*
X12237Y10056D01*
X12106D01*
X12041Y9990D01*
Y9793D01*
Y9924D02*
X11909Y10056D01*
Y10187D02*
Y10318D01*
Y10252D01*
X12303D01*
X12237Y10187D01*
X9350Y5856D02*
Y6456D01*
X9050D01*
X8951Y6356D01*
Y6156D01*
X9050Y6056D01*
X9350D01*
X9150D02*
X8951Y5856D01*
X8351Y6456D02*
X8751D01*
Y6156D01*
X8551Y6256D01*
X8451D01*
X8351Y6156D01*
Y5956D01*
X8451Y5856D01*
X8651D01*
X8751Y5956D01*
X15207Y8809D02*
Y9409D01*
X14907D01*
X14807Y9309D01*
Y9109D01*
X14907Y9009D01*
X15207D01*
X15007D02*
X14807Y8809D01*
X14607Y9409D02*
X14207D01*
Y9309D01*
X14607Y8909D01*
Y8809D01*
X15207Y4183D02*
Y4783D01*
X14907D01*
X14807Y4683D01*
Y4483D01*
X14907Y4383D01*
X15207D01*
X15007D02*
X14807Y4183D01*
X14607Y4683D02*
X14507Y4783D01*
X14307D01*
X14207Y4683D01*
Y4583D01*
X14307Y4483D01*
X14207Y4383D01*
Y4283D01*
X14307Y4183D01*
X14507D01*
X14607Y4283D01*
Y4383D01*
X14507Y4483D01*
X14607Y4583D01*
Y4683D01*
X14507Y4483D02*
X14307D01*
X13189Y3100D02*
X13789D01*
Y3400D01*
X13689Y3500D01*
X13489D01*
X13389Y3400D01*
Y3100D01*
Y3300D02*
X13189Y3500D01*
X13289Y3700D02*
X13189Y3800D01*
Y4000D01*
X13289Y4100D01*
X13689D01*
X13789Y4000D01*
Y3800D01*
X13689Y3700D01*
X13589D01*
X13489Y3800D01*
Y4100D01*
X5413Y3100D02*
X6013D01*
Y3400D01*
X5913Y3500D01*
X5713D01*
X5613Y3400D01*
Y3100D01*
Y3300D02*
X5413Y3500D01*
Y3700D02*
Y3900D01*
Y3800D01*
X6013D01*
X5913Y3700D01*
Y4200D02*
X6013Y4300D01*
Y4500D01*
X5913Y4600D01*
X5513D01*
X5413Y4500D01*
Y4300D01*
X5513Y4200D01*
X5913D01*
X15207Y10285D02*
Y10885D01*
X14907D01*
X14807Y10785D01*
Y10585D01*
X14907Y10485D01*
X15207D01*
X15007D02*
X14807Y10285D01*
X14607D02*
X14407D01*
X14507D01*
Y10885D01*
X14607Y10785D01*
X14107Y10285D02*
X13907D01*
X14007D01*
Y10885D01*
X14107Y10785D01*
X15207Y5659D02*
Y6259D01*
X14907D01*
X14807Y6159D01*
Y5959D01*
X14907Y5859D01*
X15207D01*
X15007D02*
X14807Y5659D01*
X14607D02*
X14407D01*
X14507D01*
Y6259D01*
X14607Y6159D01*
X13707Y5659D02*
X14107D01*
X13707Y6059D01*
Y6159D01*
X13807Y6259D01*
X14007D01*
X14107Y6159D01*
X11713Y3100D02*
X12312D01*
Y3400D01*
X12212Y3500D01*
X12012D01*
X11913Y3400D01*
Y3100D01*
Y3300D02*
X11713Y3500D01*
Y3700D02*
Y3900D01*
Y3800D01*
X12312D01*
X12212Y3700D01*
Y4200D02*
X12312Y4300D01*
Y4500D01*
X12212Y4600D01*
X12112D01*
X12012Y4500D01*
Y4400D01*
Y4500D01*
X11913Y4600D01*
X11813D01*
X11713Y4500D01*
Y4300D01*
X11813Y4200D01*
X3937Y3100D02*
X4537D01*
Y3400D01*
X4437Y3500D01*
X4237D01*
X4137Y3400D01*
Y3100D01*
Y3300D02*
X3937Y3500D01*
Y3700D02*
Y3900D01*
Y3800D01*
X4537D01*
X4437Y3700D01*
X3937Y4500D02*
X4537D01*
X4237Y4200D01*
Y4600D01*
X10039Y10728D02*
X9764D01*
X9856Y10637D01*
X9764Y10545D01*
X10039D01*
X9810Y10269D02*
X9764Y10315D01*
Y10407D01*
X9810Y10453D01*
X9993D01*
X10039Y10407D01*
Y10315D01*
X9993Y10269D01*
X10039Y10177D02*
X9764D01*
Y10040D01*
X9810Y9994D01*
X9902D01*
X9948Y10040D01*
Y10177D01*
X10039Y9902D02*
Y9810D01*
Y9856D01*
X9764D01*
X9810Y9902D01*
X9764Y9672D02*
Y9489D01*
X9810D01*
X9993Y9672D01*
X10039D01*
Y9397D02*
Y9305D01*
Y9351D01*
X9764D01*
X9810Y9397D01*
X10039Y9167D02*
Y9075D01*
Y9121D01*
X9764D01*
X9810Y9167D01*
X7559Y10187D02*
X7986D01*
X8071Y10102D01*
Y9931D01*
X7986Y9846D01*
X7559D01*
X7644Y9675D02*
X7559Y9590D01*
Y9420D01*
X7644Y9334D01*
X7730D01*
X7815Y9420D01*
Y9505D01*
Y9420D01*
X7900Y9334D01*
X7986D01*
X8071Y9420D01*
Y9590D01*
X7986Y9675D01*
X5906Y14813D02*
X5630D01*
X5722Y14721D01*
X5630Y14629D01*
X5906D01*
X5676Y14354D02*
X5630Y14400D01*
Y14492D01*
X5676Y14537D01*
X5860D01*
X5906Y14492D01*
Y14400D01*
X5860Y14354D01*
X5906Y14262D02*
X5630D01*
Y14124D01*
X5676Y14078D01*
X5768D01*
X5814Y14124D01*
Y14262D01*
X5906Y13986D02*
Y13895D01*
Y13941D01*
X5630D01*
X5676Y13986D01*
X5906Y13573D02*
Y13757D01*
X5722Y13573D01*
X5676D01*
X5630Y13619D01*
Y13711D01*
X5676Y13757D01*
X5630Y13298D02*
Y13481D01*
X5768D01*
X5722Y13390D01*
Y13344D01*
X5768Y13298D01*
X5860D01*
X5906Y13344D01*
Y13435D01*
X5860Y13481D01*
X5906Y13022D02*
Y13206D01*
X5722Y13022D01*
X5676D01*
X5630Y13068D01*
Y13160D01*
X5676Y13206D01*
X4941Y14026D02*
X5335D01*
X5413Y13947D01*
Y13789D01*
X5335Y13711D01*
X4941D01*
Y13553D02*
Y13238D01*
X5020D01*
X5335Y13553D01*
X5413D01*
X5315Y16339D02*
X4921D01*
Y16142D01*
X4987Y16076D01*
X5118D01*
X5184Y16142D01*
Y16339D01*
Y16207D02*
X5315Y16076D01*
Y15945D02*
Y15814D01*
Y15879D01*
X4921D01*
X4987Y15945D01*
Y15617D02*
X4921Y15551D01*
Y15420D01*
X4987Y15355D01*
X5053D01*
X5118Y15420D01*
X5184Y15355D01*
X5249D01*
X5315Y15420D01*
Y15551D01*
X5249Y15617D01*
X5184D01*
X5118Y15551D01*
X5053Y15617D01*
X4987D01*
X5118Y15551D02*
Y15420D01*
X7874Y17037D02*
X7815Y17097D01*
Y17215D01*
X7874Y17274D01*
X8110D01*
X8169Y17215D01*
Y17097D01*
X8110Y17037D01*
X8169Y16683D02*
Y16919D01*
X7933Y16683D01*
X7874D01*
X7815Y16742D01*
Y16860D01*
X7874Y16919D01*
Y16565D02*
X7815Y16506D01*
Y16388D01*
X7874Y16329D01*
X7933D01*
X7992Y16388D01*
Y16447D01*
Y16388D01*
X8051Y16329D01*
X8110D01*
X8169Y16388D01*
Y16506D01*
X8110Y16565D01*
X5886Y16978D02*
X5965Y17057D01*
X6122D01*
X6201Y16978D01*
Y16663D01*
X6122Y16585D01*
X5965D01*
X5886Y16663D01*
X5414Y16585D02*
X5728D01*
X5414Y16899D01*
Y16978D01*
X5492Y17057D01*
X5650D01*
X5728Y16978D01*
X5020Y16585D02*
Y17057D01*
X5256Y16821D01*
X4941D01*
X7559Y12844D02*
X7638Y12923D01*
X7795D01*
X7874Y12844D01*
Y12529D01*
X7795Y12451D01*
X7638D01*
X7559Y12529D01*
X7087Y12451D02*
X7402D01*
X7087Y12766D01*
Y12844D01*
X7166Y12923D01*
X7323D01*
X7402Y12844D01*
X6615Y12923D02*
X6929D01*
Y12687D01*
X6772Y12766D01*
X6693D01*
X6615Y12687D01*
Y12529D01*
X6693Y12451D01*
X6851D01*
X6929Y12529D01*
D41*
X113Y16698D02*
X4263D01*
Y12760D02*
Y16698D01*
X113Y12760D02*
X4263D01*
X113D02*
Y16698D01*
X10344Y15699D02*
X10423D01*
X10344Y15404D02*
X10423D01*
X11821Y15699D02*
X11900D01*
X11821Y15404D02*
X11900D01*
X13297Y15699D02*
X13376D01*
X13297Y15404D02*
X13376D01*
X5856Y15512D02*
Y15591D01*
X5561Y15512D02*
Y15591D01*
X7638Y15659D02*
X8110D01*
Y15541D02*
Y15659D01*
X7638Y15541D02*
Y15659D01*
X7175Y13671D02*
X7293D01*
X7175Y13199D02*
X7293D01*
Y13671D01*
X7047Y16594D02*
Y17067D01*
X6929Y16594D02*
X7047D01*
X6929Y17067D02*
X7047D01*
X6152Y14656D02*
Y14882D01*
X6230Y14961D01*
X6152Y15335D02*
Y15561D01*
Y15335D02*
X6230Y15256D01*
X7333Y14656D02*
Y15561D01*
X6152Y14656D02*
X7333D01*
X6152Y15561D02*
X7333D01*
X6230Y14961D02*
Y15256D01*
X9557Y13898D02*
Y16024D01*
X8455Y13898D02*
Y16024D01*
X9459Y13898D02*
X9557D01*
X9459Y16024D02*
X9557D01*
X8455Y13898D02*
X8553D01*
X8455Y16024D02*
X8553D01*
X4390Y11663D02*
X4469D01*
X4390Y11368D02*
X4469D01*
X5600Y10541D02*
Y10620D01*
X5325Y10541D02*
Y10620D01*
Y10541D02*
X5600D01*
X5650Y8671D02*
Y8947D01*
X5571Y8671D02*
X5650D01*
X5571Y8947D02*
X5650D01*
X4469Y8671D02*
Y8947D01*
X4390Y8671D02*
X4469D01*
X4390Y8947D02*
X4469D01*
X8632Y7224D02*
Y7343D01*
X9085Y7224D02*
Y7343D01*
X5709Y2323D02*
Y2402D01*
X5413Y2323D02*
Y2402D01*
X15906Y5659D02*
X15984D01*
X15906Y5955D02*
X15984D01*
X4528Y2323D02*
Y2402D01*
X4232Y2323D02*
Y2402D01*
X15984Y5079D02*
Y5354D01*
X15906Y5079D02*
X15984D01*
X15906Y5354D02*
X15984D01*
X15906Y4478D02*
X15984D01*
X15906Y4774D02*
X15984D01*
X12608Y2402D02*
X12884D01*
Y2323D02*
Y2402D01*
X12608Y2323D02*
Y2402D01*
X13484Y2323D02*
Y2402D01*
X13189Y2323D02*
Y2402D01*
X12303Y2323D02*
Y2402D01*
X12008Y2323D02*
Y2402D01*
X15984Y9705D02*
Y9980D01*
X15906Y9705D02*
X15984D01*
X15906Y9980D02*
X15984D01*
X15906Y9104D02*
X15984D01*
X15906Y9400D02*
X15984D01*
X15906Y10285D02*
X15984D01*
X15906Y10581D02*
X15984D01*
X4833Y2402D02*
X5108D01*
Y2323D02*
Y2402D01*
X4833Y2323D02*
Y2402D01*
X6949Y9144D02*
X7224D01*
Y9065D02*
Y9144D01*
X6949Y9065D02*
Y9144D01*
X6358D02*
X6634D01*
Y9065D02*
Y9144D01*
X6358Y9065D02*
Y9144D01*
X13150D02*
X13425D01*
Y9065D02*
Y9144D01*
X13150Y9065D02*
Y9144D01*
X12559D02*
X12835D01*
Y9065D02*
Y9144D01*
X12559Y9065D02*
Y9144D01*
X11959Y9065D02*
Y9144D01*
X12254Y9065D02*
Y9144D01*
X8297Y9970D02*
Y10010D01*
X9518Y9970D02*
Y10010D01*
X8297D02*
X9518D01*
X8297Y9970D02*
X9518D01*
X8799Y11407D02*
X8917D01*
X8799Y10935D02*
X8917D01*
Y11407D01*
X8799Y9045D02*
X8917D01*
X8799Y8573D02*
X8917D01*
Y9045D01*
X937Y15630D02*
Y15762D01*
Y15696D01*
X1331D01*
X1265Y15630D01*
D72*
X8504Y15876D02*
D03*
X9508D02*
D03*
M02*
