G04 Layer_Physical_Order=2*
G04 Layer_Color=16711680*
%FSLAX24Y24*%
%MOIN*%
G70*
G01*
G75*
%ADD10R,0.0354X0.0551*%
%ADD11R,0.0551X0.0354*%
%ADD12R,0.0217X0.0453*%
%ADD13R,0.0354X0.0315*%
%ADD15R,0.0256X0.0413*%
%ADD18R,0.0315X0.0354*%
%ADD25C,0.0197*%
%ADD26C,0.0098*%
%ADD28C,0.0669*%
%ADD29P,0.0724X8X292.5*%
%ADD30C,0.0300*%
%ADD31P,0.0724X8X202.5*%
%ADD32C,0.0600*%
%ADD33C,0.0250*%
%ADD34C,0.0354*%
%ADD35R,0.1339X0.0591*%
%ADD36R,0.1378X0.0472*%
G04:AMPARAMS|DCode=37|XSize=47.2mil|YSize=137.8mil|CornerRadius=0mil|HoleSize=0mil|Usage=FLASHONLY|Rotation=90.000|XOffset=0mil|YOffset=0mil|HoleType=Round|Shape=RoundedRectangle|*
%AMROUNDEDRECTD37*
21,1,0.0472,0.1378,0,0,90.0*
21,1,0.0472,0.1378,0,0,90.0*
1,1,0.0000,0.0689,0.0236*
1,1,0.0000,0.0689,-0.0236*
1,1,0.0000,-0.0689,-0.0236*
1,1,0.0000,-0.0689,0.0236*
%
%ADD37ROUNDEDRECTD37*%
%ADD38R,0.0177X0.0571*%
%ADD39R,0.0669X0.0984*%
%ADD40C,0.0157*%
G36*
X17526Y16151D02*
X17476Y16134D01*
X17470Y16141D01*
X17413Y16186D01*
X17346Y16213D01*
X17280Y16222D01*
X16451Y17051D01*
X16386Y17095D01*
X16309Y17110D01*
X14744D01*
X14667Y17095D01*
X14602Y17051D01*
X14179Y16628D01*
X14135Y16563D01*
X14120Y16486D01*
Y15388D01*
X13992Y15260D01*
X13951D01*
X13907Y15276D01*
X13907Y15310D01*
Y15827D01*
X13907Y15827D01*
X13907D01*
X13909Y15876D01*
X13937D01*
Y16486D01*
X13484D01*
Y16365D01*
X13440Y16341D01*
X13424Y16352D01*
X13337Y16370D01*
X13249Y16352D01*
X13233Y16341D01*
X13189Y16365D01*
Y16486D01*
X12736D01*
Y15876D01*
X12764D01*
X12766Y15827D01*
X12766Y15826D01*
Y15276D01*
X12722Y15260D01*
X12475D01*
X12431Y15276D01*
X12431Y15310D01*
Y15827D01*
X12431Y15827D01*
X12431D01*
X12433Y15876D01*
X12461D01*
Y16486D01*
X12329D01*
X12313Y16536D01*
X12366Y16571D01*
X12415Y16645D01*
X12433Y16732D01*
X12415Y16819D01*
X12366Y16893D01*
X12292Y16943D01*
X12205Y16960D01*
X12137Y16947D01*
X12087Y16978D01*
Y17392D01*
X12011D01*
Y17404D01*
X11999Y17461D01*
X11967Y17510D01*
X11744Y17732D01*
X11772Y17800D01*
X11787Y17913D01*
X11772Y18026D01*
X11729Y18132D01*
X11659Y18222D01*
X11569Y18292D01*
X11463Y18335D01*
X11350Y18350D01*
X11237Y18335D01*
X11132Y18292D01*
X11042Y18222D01*
X10972Y18132D01*
X10928Y18026D01*
X10914Y17913D01*
X10928Y17800D01*
X10972Y17695D01*
X11042Y17605D01*
X11132Y17535D01*
X11237Y17491D01*
X11350Y17477D01*
X11463Y17491D01*
X11531Y17520D01*
X11616Y17435D01*
X11634Y17392D01*
X11634D01*
X11634Y17392D01*
Y16782D01*
X11947D01*
X11979Y16743D01*
X11977Y16732D01*
X11979Y16720D01*
X11759Y16500D01*
X11713Y16486D01*
Y16486D01*
X11713Y16486D01*
X11260D01*
Y15876D01*
X11287D01*
X11289Y15827D01*
X11289Y15826D01*
Y15276D01*
X11246Y15260D01*
X11018D01*
X10966Y15300D01*
X10955Y15305D01*
Y15827D01*
X10955Y15827D01*
X10955D01*
X10957Y15876D01*
X10984D01*
Y16486D01*
X10662D01*
X10643Y16532D01*
X10742Y16631D01*
X10806D01*
X10813Y16621D01*
X10887Y16571D01*
X10975Y16554D01*
X11062Y16571D01*
X11136Y16621D01*
X11185Y16694D01*
X11202Y16782D01*
X11185Y16869D01*
X11136Y16943D01*
X11062Y16992D01*
X10975Y17009D01*
X10887Y16992D01*
X10813Y16943D01*
X10806Y16932D01*
X10679D01*
X10660Y16928D01*
X10610Y16969D01*
Y17392D01*
X10534D01*
Y17521D01*
X10569Y17535D01*
X10659Y17605D01*
X10729Y17695D01*
X10772Y17800D01*
X10787Y17913D01*
X10772Y18026D01*
X10729Y18132D01*
X10659Y18222D01*
X10569Y18292D01*
X10463Y18335D01*
X10350Y18350D01*
X10237Y18335D01*
X10132Y18292D01*
X10042Y18222D01*
X9972Y18132D01*
X9928Y18026D01*
X9914Y17913D01*
X9928Y17800D01*
X9972Y17695D01*
X10042Y17605D01*
X10132Y17535D01*
X10233Y17493D01*
Y17392D01*
X10157D01*
Y17191D01*
X10107Y17187D01*
X10102Y17213D01*
X10053Y17287D01*
X9979Y17336D01*
X9892Y17354D01*
X9805Y17336D01*
X9731Y17287D01*
X9724Y17277D01*
X9348D01*
X9291Y17265D01*
X9242Y17232D01*
X8309Y16299D01*
X8291Y16273D01*
X8250Y16252D01*
X7924D01*
Y15974D01*
Y15697D01*
X8156D01*
X8197Y15647D01*
X8188Y15600D01*
X8197Y15552D01*
X8157Y15502D01*
X7500D01*
Y15437D01*
X7191D01*
X7089Y15539D01*
X7109Y15589D01*
X7315D01*
Y15924D01*
X7126D01*
Y15974D01*
X7076D01*
Y16360D01*
X6937D01*
Y16358D01*
X6795D01*
Y16457D01*
X6890D01*
Y17205D01*
X6339D01*
Y17031D01*
X5989D01*
X5551Y17469D01*
Y17528D01*
X5569Y17535D01*
X5659Y17605D01*
X5729Y17695D01*
X5772Y17800D01*
X5787Y17913D01*
X5772Y18026D01*
X5729Y18132D01*
X5659Y18222D01*
X5569Y18292D01*
X5463Y18335D01*
X5350Y18350D01*
X5237Y18335D01*
X5132Y18292D01*
X5042Y18222D01*
X4972Y18132D01*
X4928Y18026D01*
X4914Y17913D01*
X4928Y17800D01*
X4972Y17695D01*
X5042Y17605D01*
X5132Y17535D01*
X5150Y17528D01*
Y17386D01*
X5165Y17309D01*
X5208Y17244D01*
X5764Y16689D01*
X5829Y16645D01*
X5906Y16630D01*
X6339D01*
Y16457D01*
X6434D01*
Y16358D01*
X6171D01*
Y16125D01*
X5817D01*
X5802Y16122D01*
X5433D01*
Y15610D01*
X5984D01*
Y15824D01*
X6171D01*
Y15591D01*
X6689D01*
Y15502D01*
X6695Y15476D01*
X6663Y15437D01*
X5984D01*
Y15492D01*
X5433D01*
Y14980D01*
X5984D01*
Y15036D01*
X7500D01*
Y14951D01*
X8248D01*
Y15026D01*
X8681D01*
X8758Y15041D01*
X8823Y15084D01*
X8896Y15157D01*
X9313D01*
X10085Y14385D01*
Y14072D01*
X9395Y13383D01*
X9352Y13318D01*
X9337Y13241D01*
Y12426D01*
X8736Y11825D01*
X8690Y11850D01*
X8692Y11860D01*
X8675Y11947D01*
X8626Y12021D01*
X8552Y12071D01*
X8465Y12088D01*
X8377Y12071D01*
X8303Y12021D01*
X8279Y11984D01*
X7870D01*
X7841Y12034D01*
X7856Y12106D01*
X7838Y12194D01*
X7830Y12206D01*
X7854Y12250D01*
X8169D01*
X8246Y12265D01*
X8311Y12309D01*
X9148Y13145D01*
X9191Y13211D01*
X9207Y13287D01*
Y13583D01*
X9439D01*
Y14764D01*
X8573D01*
Y13703D01*
X8527Y13684D01*
X7390Y14821D01*
X7341Y14854D01*
X7283Y14865D01*
X6742D01*
X6685Y14854D01*
X6636Y14821D01*
X6508Y14693D01*
X6475Y14644D01*
X6472Y14628D01*
X6408D01*
Y14242D01*
Y13857D01*
X6547D01*
X6558Y13847D01*
X6585Y13809D01*
X6585D01*
X6585Y13809D01*
Y13061D01*
X7136D01*
Y13809D01*
X7136Y13809D01*
X7136D01*
X7138Y13858D01*
X7313D01*
Y14058D01*
X7363Y14078D01*
X7458Y13983D01*
Y13809D01*
X7333D01*
Y13061D01*
X7884D01*
Y13809D01*
X7759D01*
Y13961D01*
X7805Y13980D01*
X8387Y13398D01*
X8384Y13386D01*
X8402Y13299D01*
X8451Y13225D01*
X8525Y13175D01*
X8544Y13172D01*
X8558Y13124D01*
X8086Y12651D01*
X3346D01*
X3270Y12636D01*
X3205Y12593D01*
X2900Y12288D01*
X2820Y12322D01*
X2707Y12336D01*
X2594Y12322D01*
X2488Y12278D01*
X2398Y12208D01*
X2328Y12118D01*
X2285Y12013D01*
X2270Y11900D01*
X2285Y11787D01*
X2328Y11681D01*
X2398Y11591D01*
X2488Y11521D01*
X2594Y11478D01*
X2707Y11463D01*
X2820Y11478D01*
X2925Y11521D01*
X3016Y11591D01*
X3085Y11681D01*
X3129Y11787D01*
X3144Y11900D01*
X3136Y11956D01*
X3430Y12250D01*
X6270D01*
X6294Y12206D01*
X6286Y12194D01*
X6268Y12106D01*
X6283Y12034D01*
X6253Y11984D01*
X5989D01*
X5964Y12021D01*
X5890Y12071D01*
X5803Y12088D01*
X5716Y12071D01*
X5642Y12021D01*
X5593Y11947D01*
X5575Y11860D01*
X5593Y11773D01*
X5642Y11699D01*
X5716Y11650D01*
X5803Y11632D01*
X5890Y11650D01*
X5940Y11683D01*
X8327D01*
X8377Y11650D01*
X8465Y11632D01*
X8475Y11634D01*
X8499Y11588D01*
X8456Y11545D01*
X8209D01*
Y10797D01*
X8343D01*
Y10719D01*
X8327D01*
Y10335D01*
X8281Y10316D01*
X7413Y11184D01*
X7445Y11232D01*
X7462Y11319D01*
X7445Y11406D01*
X7395Y11480D01*
X7321Y11529D01*
X7234Y11547D01*
X7147Y11529D01*
X7073Y11480D01*
X7024Y11406D01*
X7006Y11319D01*
X7024Y11232D01*
X7073Y11158D01*
X7084Y11151D01*
Y11149D01*
X7095Y11092D01*
X7128Y11043D01*
X8258Y9913D01*
X8306Y9881D01*
X8327Y9877D01*
Y9787D01*
X8164D01*
X7068Y10883D01*
X7060Y10948D01*
X7032Y11015D01*
X6988Y11073D01*
X6930Y11117D01*
X6863Y11144D01*
X6791Y11154D01*
X6719Y11144D01*
X6652Y11117D01*
X6600Y11077D01*
X6397D01*
X6374Y11127D01*
X6411Y11183D01*
X6429Y11270D01*
X6411Y11357D01*
X6362Y11431D01*
X6288Y11480D01*
X6201Y11497D01*
X6114Y11480D01*
X6040Y11431D01*
X6033Y11420D01*
X5682D01*
X5156Y11947D01*
X5107Y11980D01*
X5049Y11991D01*
X4439D01*
X4381Y11980D01*
X4333Y11947D01*
X4177Y11791D01*
X3858D01*
Y11240D01*
X3858Y11240D01*
X3858D01*
X3856Y11191D01*
X3829D01*
Y10581D01*
X4281D01*
Y11191D01*
X4281Y11191D01*
X4281D01*
X4283Y11240D01*
X4370D01*
Y11559D01*
X4442Y11631D01*
X4488Y11612D01*
Y11240D01*
X4575D01*
X4577Y11191D01*
X4577Y11191D01*
X4577Y11191D01*
Y10581D01*
X5030D01*
Y10695D01*
X5187D01*
Y10640D01*
X5738D01*
Y10675D01*
X6333D01*
X6352Y10629D01*
X5786Y10063D01*
X5740Y10082D01*
Y10216D01*
X5513D01*
Y10008D01*
X5666D01*
X5685Y9962D01*
X5500Y9777D01*
X4657D01*
Y9930D01*
X4201D01*
Y9777D01*
X3235D01*
X3230Y9827D01*
X3237Y9829D01*
X3311Y9878D01*
X3360Y9952D01*
X3377Y10039D01*
X3360Y10127D01*
X3311Y10200D01*
X3237Y10250D01*
X3150Y10267D01*
X3062Y10250D01*
X2989Y10200D01*
X2981Y10190D01*
X2883D01*
X2873Y10240D01*
X2925Y10261D01*
X3016Y10331D01*
X3085Y10421D01*
X3129Y10527D01*
X3144Y10640D01*
X3129Y10753D01*
X3085Y10858D01*
X3016Y10949D01*
X2925Y11018D01*
X2820Y11062D01*
X2707Y11077D01*
X2594Y11062D01*
X2488Y11018D01*
X2398Y10949D01*
X2328Y10858D01*
X2285Y10753D01*
X2270Y10640D01*
X2285Y10527D01*
X2328Y10421D01*
X2398Y10331D01*
X2488Y10261D01*
X2540Y10240D01*
X2530Y10190D01*
X2175D01*
X2118Y10178D01*
X2069Y10146D01*
X1449Y9526D01*
X1447Y9528D01*
X1014D01*
X797Y9311D01*
Y8878D01*
X1014Y8661D01*
X1393D01*
X1414Y8611D01*
X1322Y8519D01*
X1230Y8531D01*
X1117Y8516D01*
X1012Y8473D01*
X921Y8403D01*
X852Y8313D01*
X808Y8208D01*
X794Y8094D01*
X808Y7981D01*
X852Y7876D01*
X921Y7786D01*
X1012Y7716D01*
X1117Y7673D01*
X1230Y7658D01*
X1343Y7673D01*
X1449Y7716D01*
X1539Y7786D01*
X1609Y7876D01*
X1652Y7981D01*
X1667Y8094D01*
X1652Y8208D01*
X1630Y8260D01*
X1904Y8533D01*
X1947Y8598D01*
X1963Y8675D01*
Y9093D01*
X2031Y9161D01*
X2077Y9142D01*
Y8878D01*
X2293Y8661D01*
X2726D01*
X2943Y8878D01*
Y9311D01*
X2924Y9330D01*
X2943Y9376D01*
X5584D01*
X5660Y9391D01*
X5725Y9435D01*
X6837Y10546D01*
X7939Y9445D01*
X8004Y9401D01*
X8081Y9386D01*
X8327D01*
Y9262D01*
X8333D01*
Y9183D01*
X8209D01*
Y9010D01*
X7362D01*
Y9045D01*
X6811D01*
Y9045D01*
X6772D01*
X6772Y9045D01*
X6231D01*
X6220Y9045D01*
X6181Y9071D01*
Y9085D01*
X5669D01*
Y8713D01*
X5623Y8694D01*
X5551Y8766D01*
Y9085D01*
X5050D01*
X5039Y9085D01*
X5000D01*
X4989Y9085D01*
X4488D01*
Y8533D01*
X4562D01*
X4583Y8483D01*
X4563Y8453D01*
X4546Y8366D01*
X4563Y8279D01*
X4613Y8205D01*
X4686Y8156D01*
X4774Y8138D01*
X4861Y8156D01*
X4935Y8205D01*
X4984Y8279D01*
X5001Y8366D01*
X4984Y8453D01*
X4964Y8483D01*
X4991Y8533D01*
X5000Y8533D01*
X5039D01*
X5050Y8533D01*
X5358D01*
X5556Y8335D01*
X5554Y8285D01*
X5548Y8281D01*
X5498Y8207D01*
X5481Y8120D01*
X5498Y8033D01*
X5548Y7959D01*
X5621Y7910D01*
X5709Y7892D01*
X5796Y7910D01*
X5870Y7959D01*
X5919Y8033D01*
X5927Y8072D01*
X5981Y8112D01*
X6068Y8130D01*
X6142Y8179D01*
X6192Y8253D01*
X6209Y8340D01*
X6192Y8427D01*
X6154Y8483D01*
X6177Y8533D01*
X6220D01*
X6231Y8533D01*
X6772D01*
Y8533D01*
X6811D01*
Y8533D01*
X6876D01*
Y8449D01*
X6836Y8397D01*
X6808Y8330D01*
X6799Y8258D01*
X6808Y8186D01*
X6836Y8119D01*
X6880Y8061D01*
X6938Y8017D01*
X7005Y7989D01*
X7077Y7980D01*
X7149Y7989D01*
X7216Y8017D01*
X7273Y8061D01*
X7318Y8119D01*
X7345Y8186D01*
X7355Y8258D01*
X7345Y8330D01*
X7318Y8397D01*
X7277Y8449D01*
Y8533D01*
X7362D01*
Y8608D01*
X8209D01*
Y8435D01*
X8708D01*
Y7933D01*
X8484D01*
Y7382D01*
X9232D01*
Y7933D01*
X9009D01*
Y8433D01*
X9182D01*
Y8809D01*
Y9185D01*
X9009D01*
Y9805D01*
X8997Y9863D01*
X8965Y9912D01*
X8855Y10021D01*
X8857Y10026D01*
Y10394D01*
X8957D01*
Y10067D01*
X9116D01*
Y10069D01*
X9488D01*
Y10388D01*
X10466Y11365D01*
X10946D01*
X10970Y11321D01*
X10961Y11308D01*
X10944Y11221D01*
X10917Y11194D01*
X10876Y11202D01*
X10789Y11185D01*
X10715Y11135D01*
X10666Y11062D01*
X10648Y10974D01*
X10666Y10887D01*
X10715Y10813D01*
X10789Y10764D01*
X10876Y10747D01*
X10963Y10764D01*
X11013Y10797D01*
X12285D01*
X12342Y10809D01*
X12391Y10841D01*
X12537Y10988D01*
X12593Y10973D01*
X12634Y10912D01*
X12708Y10862D01*
X12795Y10845D01*
X12883Y10862D01*
X12922Y10828D01*
X12929Y10789D01*
X12979Y10715D01*
X13053Y10666D01*
X13140Y10648D01*
X13181Y10656D01*
X13207Y10630D01*
X13225Y10543D01*
X13274Y10469D01*
X13348Y10420D01*
X13435Y10402D01*
X13522Y10420D01*
X13596Y10469D01*
X13646Y10543D01*
X13663Y10630D01*
X13660Y10642D01*
X14723Y11705D01*
X14755Y11753D01*
X14767Y11811D01*
Y13028D01*
X15342Y13603D01*
X15354Y13601D01*
X15442Y13618D01*
X15515Y13668D01*
X15565Y13742D01*
X15582Y13829D01*
X15565Y13916D01*
X15515Y13990D01*
X15482Y14012D01*
X15466Y14061D01*
X15516Y14135D01*
X15533Y14223D01*
X15516Y14310D01*
X15466Y14384D01*
X15396Y14430D01*
X15391Y14453D01*
X15388Y14485D01*
X15417Y14504D01*
X15466Y14578D01*
X15484Y14665D01*
X15466Y14753D01*
X15417Y14826D01*
X15343Y14876D01*
X15272Y14890D01*
X15250Y14939D01*
X15658Y15346D01*
X15690Y15395D01*
X15702Y15453D01*
Y16072D01*
X15712Y16079D01*
X15762Y16153D01*
X15779Y16240D01*
X15762Y16327D01*
X15712Y16401D01*
X15638Y16451D01*
X15551Y16468D01*
X15464Y16451D01*
X15390Y16401D01*
X15341Y16327D01*
X15332Y16282D01*
X15281D01*
X15279Y16288D01*
X15230Y16362D01*
X15156Y16411D01*
X15069Y16429D01*
X14982Y16411D01*
X14944Y16386D01*
X14877Y16399D01*
X14876Y16401D01*
X14802Y16451D01*
X14715Y16468D01*
X14643Y16454D01*
X14618Y16500D01*
X14827Y16709D01*
X16226D01*
X16997Y15938D01*
X17005Y15873D01*
X17033Y15806D01*
X17077Y15748D01*
X17122Y15714D01*
Y10073D01*
X16559Y9510D01*
X16516Y9528D01*
X16517Y9565D01*
X16517D01*
Y9793D01*
X16260D01*
Y9893D01*
X16517D01*
Y10108D01*
X16517Y10120D01*
X16517D01*
X16516Y10157D01*
X16516Y10157D01*
Y10709D01*
X16417D01*
Y11826D01*
X16406Y11883D01*
X16373Y11932D01*
X16213Y12092D01*
X16165Y12124D01*
X16107Y12136D01*
X15477D01*
X15471Y12140D01*
X15384Y12157D01*
X15297Y12140D01*
X15223Y12090D01*
X15173Y12016D01*
X15156Y11929D01*
X15173Y11842D01*
X15223Y11768D01*
X15297Y11719D01*
X15384Y11701D01*
X15471Y11719D01*
X15545Y11768D01*
X15589Y11835D01*
X15751D01*
X15781Y11785D01*
X15766Y11713D01*
X15783Y11630D01*
X15770Y11610D01*
X15750Y11586D01*
X15699Y11596D01*
X15612Y11579D01*
X15538Y11529D01*
X15488Y11455D01*
X15471Y11368D01*
X15473Y11356D01*
X14075Y9957D01*
X14028Y9976D01*
Y10125D01*
X15056Y11153D01*
X15069Y11150D01*
X15156Y11167D01*
X15230Y11217D01*
X15279Y11291D01*
X15297Y11378D01*
X15279Y11465D01*
X15230Y11539D01*
X15156Y11588D01*
X15069Y11606D01*
X14982Y11588D01*
X14908Y11539D01*
X14858Y11465D01*
X14841Y11378D01*
X14844Y11366D01*
X13772Y10293D01*
X13739Y10245D01*
X13727Y10187D01*
Y6389D01*
X12627Y5288D01*
X4147D01*
X3719Y5717D01*
X3670Y5749D01*
X3612Y5761D01*
X2863D01*
X2838Y5811D01*
X2888Y5876D01*
X2932Y5981D01*
X2947Y6094D01*
X2932Y6208D01*
X2888Y6313D01*
X2826Y6394D01*
X2841Y6444D01*
X3248D01*
X3306Y6455D01*
X3354Y6488D01*
X3777Y6910D01*
X3789Y6908D01*
X3877Y6925D01*
X3950Y6975D01*
X4000Y7049D01*
X4017Y7136D01*
X4000Y7223D01*
X3950Y7297D01*
X3877Y7346D01*
X3789Y7364D01*
X3702Y7346D01*
X3628Y7297D01*
X3579Y7223D01*
X3562Y7136D01*
X3564Y7123D01*
X3186Y6745D01*
X2844D01*
X2828Y6795D01*
X2889Y6875D01*
X2933Y6981D01*
X2942Y7044D01*
X2078D01*
X2086Y6981D01*
X2130Y6875D01*
X2192Y6795D01*
X2176Y6745D01*
X1564D01*
X1548Y6795D01*
X1610Y6875D01*
X1654Y6981D01*
X1662Y7044D01*
X799D01*
X807Y6981D01*
X851Y6875D01*
X920Y6784D01*
X929Y6778D01*
X922Y6720D01*
X893Y6701D01*
X642Y6450D01*
X609Y6401D01*
X597Y6343D01*
Y5626D01*
X609Y5568D01*
X642Y5520D01*
X851Y5310D01*
X808Y5208D01*
X794Y5094D01*
X808Y4981D01*
X852Y4876D01*
X921Y4786D01*
X1012Y4716D01*
X1117Y4673D01*
X1230Y4658D01*
X1343Y4673D01*
X1449Y4716D01*
X1539Y4786D01*
X1609Y4876D01*
X1652Y4981D01*
X1667Y5094D01*
X1652Y5208D01*
X1609Y5313D01*
X1539Y5403D01*
X1449Y5473D01*
X1343Y5516D01*
X1230Y5531D01*
X1117Y5516D01*
X1084Y5503D01*
X899Y5688D01*
Y5740D01*
X949Y5765D01*
X1012Y5716D01*
X1117Y5673D01*
X1230Y5658D01*
X1343Y5673D01*
X1446Y5715D01*
X1657Y5504D01*
X1706Y5471D01*
X1764Y5460D01*
X2197D01*
X2213Y5412D01*
X2201Y5403D01*
X2132Y5313D01*
X2088Y5208D01*
X2073Y5094D01*
X2088Y4981D01*
X2132Y4876D01*
X2201Y4786D01*
X2215Y4775D01*
X2199Y4727D01*
X1663D01*
X1606Y4716D01*
X1557Y4683D01*
X1376Y4503D01*
X1343Y4516D01*
X1230Y4531D01*
X1117Y4516D01*
X1012Y4473D01*
X921Y4403D01*
X852Y4313D01*
X808Y4208D01*
X794Y4094D01*
X808Y3981D01*
X852Y3876D01*
X921Y3786D01*
X1012Y3716D01*
X1117Y3673D01*
X1230Y3658D01*
X1343Y3673D01*
X1449Y3716D01*
X1539Y3786D01*
X1609Y3876D01*
X1652Y3981D01*
X1667Y4094D01*
X1652Y4208D01*
X1610Y4310D01*
X1726Y4426D01*
X2156D01*
X2180Y4376D01*
X2132Y4313D01*
X2088Y4208D01*
X2073Y4094D01*
X2088Y3981D01*
X2132Y3876D01*
X2201Y3786D01*
X2291Y3716D01*
X2397Y3673D01*
X2510Y3658D01*
X2623Y3673D01*
X2728Y3716D01*
X2819Y3786D01*
X2888Y3876D01*
X2932Y3981D01*
X2947Y4094D01*
X2932Y4208D01*
X2888Y4313D01*
X2840Y4376D01*
X2864Y4426D01*
X3474D01*
X3532Y4438D01*
X3581Y4470D01*
X3901Y4790D01*
X12771D01*
X12828Y4802D01*
X12877Y4834D01*
X14181Y6139D01*
X14214Y6187D01*
X14225Y6245D01*
Y9682D01*
X15686Y11143D01*
X15699Y11140D01*
X15754Y11151D01*
X15804Y11114D01*
Y10709D01*
X15374D01*
Y10157D01*
X15374D01*
X15374Y10118D01*
X15374D01*
Y9993D01*
X15227D01*
X15220Y10004D01*
X15146Y10053D01*
X15059Y10070D01*
X14972Y10053D01*
X14898Y10004D01*
X14849Y9930D01*
X14831Y9843D01*
X14849Y9755D01*
X14898Y9681D01*
X14972Y9632D01*
X15059Y9615D01*
X15146Y9632D01*
X15220Y9681D01*
X15227Y9692D01*
X15374D01*
Y9567D01*
X15374D01*
X15374Y9528D01*
X15374D01*
Y8976D01*
X15804D01*
Y6112D01*
X15764Y6083D01*
X15374D01*
Y5531D01*
X15374D01*
X15374Y5492D01*
X15374D01*
Y5367D01*
X15227D01*
X15220Y5378D01*
X15146Y5427D01*
X15059Y5444D01*
X14972Y5427D01*
X14898Y5378D01*
X14849Y5304D01*
X14831Y5217D01*
X14849Y5129D01*
X14898Y5055D01*
X14972Y5006D01*
X15059Y4989D01*
X15146Y5006D01*
X15220Y5055D01*
X15227Y5066D01*
X15374D01*
Y4941D01*
X15374D01*
X15374Y4902D01*
X15374D01*
Y4350D01*
X15635D01*
X15654Y4304D01*
X14228Y2878D01*
X13612D01*
Y2933D01*
X13073D01*
X13023Y2935D01*
X13012Y2935D01*
X12796D01*
Y2677D01*
Y2420D01*
X13012D01*
X13023Y2420D01*
X13073Y2421D01*
X13309D01*
X13381Y2349D01*
X13361Y2303D01*
X13061D01*
Y2303D01*
X13022Y2303D01*
Y2303D01*
X12470D01*
Y2303D01*
X12431Y2303D01*
Y2303D01*
X11880D01*
Y1791D01*
X12431D01*
Y1791D01*
X12470Y1791D01*
Y1791D01*
X12596D01*
Y1694D01*
X12585Y1687D01*
X12536Y1613D01*
X12518Y1526D01*
X12532Y1454D01*
X12503Y1404D01*
X7118D01*
X5837Y2685D01*
Y2933D01*
X5719D01*
X5703Y2957D01*
X5024Y3636D01*
X4959Y3680D01*
X4882Y3695D01*
X4119D01*
X3722Y4091D01*
X3713Y4157D01*
X3686Y4224D01*
X3641Y4281D01*
X3584Y4325D01*
X3517Y4353D01*
X3445Y4363D01*
X3373Y4353D01*
X3306Y4325D01*
X3248Y4281D01*
X3204Y4224D01*
X3176Y4157D01*
X3167Y4085D01*
X3176Y4013D01*
X3204Y3946D01*
X3248Y3888D01*
X3306Y3844D01*
X3373Y3816D01*
X3438Y3808D01*
X3894Y3352D01*
X3959Y3309D01*
X4035Y3293D01*
X4799D01*
X5111Y2981D01*
X5092Y2935D01*
X5020D01*
Y2677D01*
Y2420D01*
X5248D01*
X5248Y2420D01*
X5248Y2420D01*
X5297Y2421D01*
X5533D01*
X5605Y2349D01*
X5586Y2303D01*
X5285D01*
Y2303D01*
X5246Y2303D01*
Y2303D01*
X4695D01*
Y2303D01*
X4656Y2303D01*
Y2303D01*
X4104D01*
Y1791D01*
X4656D01*
Y1791D01*
X4695Y1791D01*
Y1791D01*
X4820D01*
Y1694D01*
X4809Y1687D01*
X4760Y1613D01*
X4743Y1526D01*
X4760Y1438D01*
X4809Y1365D01*
X4883Y1315D01*
X4970Y1298D01*
X5058Y1315D01*
X5132Y1365D01*
X5181Y1438D01*
X5198Y1526D01*
X5181Y1613D01*
X5132Y1687D01*
X5121Y1694D01*
Y1791D01*
X5246D01*
Y1791D01*
X5285Y1791D01*
Y1791D01*
X5837D01*
Y2052D01*
X5883Y2072D01*
X6893Y1062D01*
X6958Y1018D01*
X7034Y1003D01*
X13106D01*
X13183Y1018D01*
X13248Y1062D01*
X13853Y1666D01*
X13896Y1731D01*
X13911Y1808D01*
Y2303D01*
X13896Y2380D01*
X13865Y2426D01*
X13889Y2476D01*
X14311D01*
X14388Y2492D01*
X14453Y2535D01*
X16268Y4350D01*
X16516D01*
Y4425D01*
X16535D01*
X16612Y4441D01*
X16677Y4484D01*
X16973Y4779D01*
X17016Y4844D01*
X17031Y4921D01*
Y8681D01*
X17016Y8758D01*
X16973Y8823D01*
X16733Y9063D01*
X16741Y9125D01*
X17465Y9848D01*
X17476Y9865D01*
X17526Y9850D01*
Y191D01*
X191D01*
Y19494D01*
X17526D01*
Y16151D01*
D02*
G37*
G36*
X16630Y8598D02*
Y5004D01*
X16567Y4942D01*
X16517Y4962D01*
Y5167D01*
X16260D01*
Y5267D01*
X16517D01*
Y5482D01*
X16517Y5494D01*
X16516Y5543D01*
Y6083D01*
X16197D01*
X16105Y6175D01*
Y8976D01*
X16252D01*
X16630Y8598D01*
D02*
G37*
G36*
X10454Y14953D02*
X10503Y14920D01*
X10561Y14909D01*
X10595D01*
X10630Y14863D01*
X10688Y14818D01*
X10755Y14791D01*
X10827Y14781D01*
X10899Y14791D01*
X10966Y14818D01*
X11018Y14858D01*
X11920D01*
X11921Y14858D01*
X11938Y14808D01*
X10790Y13660D01*
X10778Y13663D01*
X10690Y13645D01*
X10616Y13596D01*
X10567Y13522D01*
X10550Y13435D01*
X10567Y13348D01*
X10616Y13274D01*
X10690Y13225D01*
X10778Y13207D01*
X10865Y13225D01*
X10939Y13274D01*
X10988Y13348D01*
X11005Y13435D01*
X11003Y13447D01*
X12119Y14564D01*
X12529D01*
X12536Y14553D01*
X12610Y14504D01*
X12661Y14494D01*
Y14443D01*
X12610Y14433D01*
X12536Y14384D01*
X12529Y14373D01*
X12402D01*
X12344Y14362D01*
X12295Y14329D01*
X10052Y12086D01*
X10039Y12088D01*
X9952Y12071D01*
X9878Y12021D01*
X9829Y11948D01*
X9812Y11860D01*
X9820Y11820D01*
X9784Y11785D01*
X9744Y11793D01*
X9657Y11776D01*
X9583Y11726D01*
X9534Y11652D01*
X9522Y11592D01*
X9514Y11564D01*
X9469Y11547D01*
X9282D01*
Y11171D01*
X9182D01*
Y11547D01*
X9091D01*
X9072Y11593D01*
X9679Y12201D01*
X9723Y12266D01*
X9738Y12343D01*
Y13158D01*
X10427Y13847D01*
X10471Y13912D01*
X10486Y13989D01*
Y14468D01*
X10471Y14545D01*
X10427Y14610D01*
X9812Y15226D01*
X9833Y15276D01*
X10132D01*
X10454Y14953D01*
D02*
G37*
%LPC*%
G36*
X12420Y9677D02*
X12370Y9677D01*
X12156D01*
Y9419D01*
Y9162D01*
X12370D01*
X12383Y9162D01*
X12433Y9162D01*
X12647D01*
Y9419D01*
Y9677D01*
X12433D01*
X12420Y9677D01*
D02*
G37*
G36*
X7364Y9369D02*
X7137D01*
Y9162D01*
X7364D01*
Y9369D01*
D02*
G37*
G36*
X12421Y9045D02*
X12382Y9045D01*
X12382Y9045D01*
X11831D01*
Y8599D01*
X11774Y8542D01*
X11762Y8545D01*
X11675Y8527D01*
X11601Y8478D01*
X11551Y8404D01*
X11534Y8317D01*
X11551Y8230D01*
X11601Y8156D01*
X11675Y8106D01*
X11762Y8089D01*
X11849Y8106D01*
X11923Y8156D01*
X11972Y8230D01*
X11982Y8281D01*
X12033D01*
X12043Y8230D01*
X12093Y8156D01*
X12167Y8106D01*
X12254Y8089D01*
X12341Y8106D01*
X12415Y8156D01*
X12464Y8230D01*
X12482Y8317D01*
X12479Y8329D01*
X12683Y8533D01*
X12962D01*
X12972Y8533D01*
X13012D01*
X13022Y8533D01*
X13137D01*
Y8436D01*
X13126Y8429D01*
X13077Y8355D01*
X13060Y8268D01*
X13077Y8181D01*
X13126Y8107D01*
X13200Y8057D01*
X13287Y8040D01*
X13375Y8057D01*
X13448Y8107D01*
X13498Y8181D01*
X13515Y8268D01*
X13498Y8355D01*
X13448Y8429D01*
X13438Y8436D01*
Y8533D01*
X13563D01*
Y9045D01*
X13022D01*
X13012Y9045D01*
X12972D01*
X12962Y9045D01*
X12432D01*
X12421Y9045D01*
Y9045D01*
D02*
G37*
G36*
X6446Y9369D02*
X6219D01*
Y9162D01*
X6446D01*
Y9369D01*
D02*
G37*
G36*
X12056Y9369D02*
X11829D01*
Y9162D01*
X12056D01*
Y9369D01*
D02*
G37*
G36*
X9509Y9185D02*
X9282D01*
Y8859D01*
X9509D01*
Y9185D01*
D02*
G37*
G36*
X6809Y9677D02*
X6773D01*
X6759Y9677D01*
X6546D01*
Y9419D01*
Y9162D01*
X6759D01*
X6773Y9162D01*
X6809D01*
X6823Y9162D01*
X7037D01*
Y9419D01*
Y9677D01*
X6823D01*
X6809Y9677D01*
D02*
G37*
G36*
X13337Y9677D02*
Y9469D01*
X13565D01*
Y9677D01*
X13337D01*
D02*
G37*
G36*
X7137D02*
Y9469D01*
X7364D01*
Y9677D01*
X7137D01*
D02*
G37*
G36*
X5413Y10216D02*
X5185D01*
Y10008D01*
X5413D01*
Y10216D01*
D02*
G37*
G36*
X13010Y9677D02*
X12974D01*
X12960Y9677D01*
X12747D01*
Y9419D01*
Y9162D01*
X12960D01*
X12974Y9162D01*
X13010D01*
X13024Y9162D01*
X13237D01*
Y9419D01*
Y9677D01*
X13024D01*
X13010Y9677D01*
D02*
G37*
G36*
X9488Y9911D02*
X9075D01*
Y9262D01*
X9488D01*
Y9911D01*
D02*
G37*
G36*
X13565Y9369D02*
X13337D01*
Y9162D01*
X13565D01*
Y9369D01*
D02*
G37*
G36*
X6446Y9677D02*
X6219D01*
Y9469D01*
X6446D01*
Y9677D01*
D02*
G37*
G36*
X12056Y9677D02*
X11829D01*
Y9469D01*
X12056D01*
Y9677D01*
D02*
G37*
G36*
X9509Y8759D02*
X9282D01*
Y8433D01*
X9509D01*
Y8759D01*
D02*
G37*
G36*
X12018Y6504D02*
X11914Y6491D01*
X11817Y6450D01*
X11734Y6387D01*
X11670Y6303D01*
X11630Y6206D01*
X11616Y6102D01*
X11630Y5998D01*
X11670Y5901D01*
X11734Y5818D01*
X11817Y5754D01*
X11914Y5714D01*
X12018Y5701D01*
X12122Y5714D01*
X12219Y5754D01*
X12302Y5818D01*
X12366Y5901D01*
X12406Y5998D01*
X12420Y6102D01*
X12406Y6206D01*
X12366Y6303D01*
X12302Y6387D01*
X12219Y6450D01*
X12122Y6491D01*
X12018Y6504D01*
D02*
G37*
G36*
X5719D02*
X5614Y6491D01*
X5518Y6450D01*
X5434Y6387D01*
X5370Y6303D01*
X5330Y6206D01*
X5317Y6102D01*
X5330Y5998D01*
X5370Y5901D01*
X5434Y5818D01*
X5518Y5754D01*
X5614Y5714D01*
X5719Y5701D01*
X5823Y5714D01*
X5919Y5754D01*
X6003Y5818D01*
X6067Y5901D01*
X6107Y5998D01*
X6120Y6102D01*
X6107Y6206D01*
X6067Y6303D01*
X6003Y6387D01*
X5919Y6450D01*
X5823Y6491D01*
X5719Y6504D01*
D02*
G37*
G36*
X9234Y6859D02*
X8908D01*
Y6632D01*
X9234D01*
Y6859D01*
D02*
G37*
G36*
X8808D02*
X8483D01*
Y6632D01*
X8808D01*
Y6859D01*
D02*
G37*
G36*
X16585Y1965D02*
X16422Y1949D01*
X16266Y1901D01*
X16122Y1824D01*
X15996Y1721D01*
X15892Y1594D01*
X15815Y1451D01*
X15768Y1294D01*
X15752Y1132D01*
X15768Y969D01*
X15815Y813D01*
X15892Y669D01*
X15996Y543D01*
X16122Y440D01*
X16266Y363D01*
X16422Y315D01*
X16585Y299D01*
X16747Y315D01*
X16903Y363D01*
X17047Y440D01*
X17173Y543D01*
X17277Y669D01*
X17354Y813D01*
X17401Y969D01*
X17417Y1132D01*
X17401Y1294D01*
X17354Y1451D01*
X17277Y1594D01*
X17173Y1721D01*
X17047Y1824D01*
X16903Y1901D01*
X16747Y1949D01*
X16585Y1965D01*
D02*
G37*
G36*
X1132Y1980D02*
X967Y1963D01*
X808Y1915D01*
X661Y1837D01*
X532Y1731D01*
X427Y1603D01*
X349Y1456D01*
X301Y1297D01*
X284Y1132D01*
X301Y967D01*
X349Y808D01*
X427Y661D01*
X532Y532D01*
X661Y427D01*
X808Y349D01*
X967Y301D01*
X1132Y284D01*
X1297Y301D01*
X1456Y349D01*
X1603Y427D01*
X1731Y532D01*
X1837Y661D01*
X1915Y808D01*
X1963Y967D01*
X1980Y1132D01*
X1963Y1297D01*
X1915Y1456D01*
X1837Y1603D01*
X1731Y1731D01*
X1603Y1837D01*
X1456Y1915D01*
X1297Y1963D01*
X1132Y1980D01*
D02*
G37*
G36*
X4693Y2935D02*
X4644Y2933D01*
X4104D01*
Y2828D01*
X3937D01*
X3877Y2868D01*
X3789Y2885D01*
X3702Y2868D01*
X3628Y2819D01*
X3579Y2745D01*
X3562Y2657D01*
X3579Y2570D01*
X3628Y2496D01*
X3702Y2447D01*
X3789Y2430D01*
X3877Y2447D01*
X3950Y2496D01*
X3971Y2527D01*
X4104D01*
Y2421D01*
X4644D01*
X4693Y2420D01*
X4705Y2420D01*
X4920D01*
Y2677D01*
Y2935D01*
X4705D01*
X4693Y2935D01*
D02*
G37*
G36*
X11319Y3427D02*
X11232Y3409D01*
X11158Y3360D01*
X11108Y3286D01*
X11091Y3199D01*
X11108Y3112D01*
X11158Y3038D01*
X11232Y2988D01*
X11319Y2971D01*
X11331Y2973D01*
X11734Y2571D01*
X11783Y2538D01*
X11841Y2527D01*
X11880D01*
Y2421D01*
X12420D01*
X12469Y2420D01*
X12480Y2420D01*
X12696D01*
Y2677D01*
Y2935D01*
X12480D01*
X12469Y2935D01*
X12420Y2933D01*
X11880D01*
Y2916D01*
X11834Y2897D01*
X11544Y3186D01*
X11547Y3199D01*
X11529Y3286D01*
X11480Y3360D01*
X11406Y3409D01*
X11319Y3427D01*
D02*
G37*
G36*
X2560Y7526D02*
Y7144D01*
X2942D01*
X2933Y7208D01*
X2889Y7314D01*
X2820Y7404D01*
X2729Y7474D01*
X2623Y7518D01*
X2560Y7526D01*
D02*
G37*
G36*
X2460D02*
X2396Y7518D01*
X2291Y7474D01*
X2200Y7404D01*
X2130Y7314D01*
X2086Y7208D01*
X2078Y7144D01*
X2460D01*
Y7526D01*
D02*
G37*
G36*
X4370Y9085D02*
X3858D01*
Y8533D01*
X3964D01*
Y8317D01*
X3923Y8256D01*
X3906Y8169D01*
X3923Y8082D01*
X3973Y8008D01*
X4047Y7959D01*
X4134Y7941D01*
X4221Y7959D01*
X4295Y8008D01*
X4344Y8082D01*
X4362Y8169D01*
X4344Y8256D01*
X4295Y8330D01*
X4265Y8351D01*
Y8533D01*
X4370D01*
Y9085D01*
D02*
G37*
G36*
X2510Y8531D02*
X2397Y8516D01*
X2291Y8473D01*
X2201Y8403D01*
X2132Y8313D01*
X2088Y8208D01*
X2073Y8094D01*
X2088Y7981D01*
X2132Y7876D01*
X2201Y7786D01*
X2291Y7716D01*
X2397Y7673D01*
X2510Y7658D01*
X2623Y7673D01*
X2728Y7716D01*
X2819Y7786D01*
X2888Y7876D01*
X2932Y7981D01*
X2947Y8094D01*
X2932Y8208D01*
X2888Y8313D01*
X2819Y8403D01*
X2728Y8473D01*
X2623Y8516D01*
X2510Y8531D01*
D02*
G37*
G36*
X9234Y7187D02*
X8908D01*
Y6959D01*
X9234D01*
Y7187D01*
D02*
G37*
G36*
X8808D02*
X8483D01*
Y6959D01*
X8808D01*
Y7187D01*
D02*
G37*
G36*
X1280Y7526D02*
Y7144D01*
X1662D01*
X1654Y7208D01*
X1610Y7314D01*
X1540Y7404D01*
X1450Y7474D01*
X1344Y7518D01*
X1280Y7526D01*
D02*
G37*
G36*
X1180D02*
X1117Y7518D01*
X1011Y7474D01*
X920Y7404D01*
X851Y7314D01*
X807Y7208D01*
X799Y7144D01*
X1180D01*
Y7526D01*
D02*
G37*
G36*
X7312Y17206D02*
X7085D01*
Y16881D01*
X7312D01*
Y17206D01*
D02*
G37*
G36*
X12567Y18346D02*
X12134D01*
X11917Y18130D01*
Y17697D01*
X12134Y17480D01*
X12567D01*
X12783Y17697D01*
Y17763D01*
X13127D01*
X13186Y17703D01*
Y17392D01*
X13110D01*
Y16782D01*
X13563D01*
Y17392D01*
X13487D01*
Y17766D01*
X13476Y17823D01*
X13443Y17872D01*
X13295Y18020D01*
X13247Y18052D01*
X13189Y18064D01*
X12783D01*
Y18130D01*
X12567Y18346D01*
D02*
G37*
G36*
X6350Y18350D02*
X6237Y18335D01*
X6132Y18292D01*
X6042Y18222D01*
X5972Y18132D01*
X5928Y18026D01*
X5914Y17913D01*
X5928Y17800D01*
X5972Y17695D01*
X6042Y17605D01*
X6132Y17535D01*
X6237Y17491D01*
X6350Y17477D01*
X6463Y17491D01*
X6569Y17535D01*
X6659Y17605D01*
X6729Y17695D01*
X6772Y17800D01*
X6787Y17913D01*
X6772Y18026D01*
X6729Y18132D01*
X6659Y18222D01*
X6569Y18292D01*
X6463Y18335D01*
X6350Y18350D01*
D02*
G37*
G36*
X7639Y17206D02*
X7412D01*
Y16881D01*
X7639D01*
Y17206D01*
D02*
G37*
G36*
X7824Y16252D02*
X7498D01*
Y16024D01*
X7824D01*
Y16252D01*
D02*
G37*
G36*
X7315Y16360D02*
X7176D01*
Y16024D01*
X7315D01*
Y16360D01*
D02*
G37*
G36*
X7639Y16781D02*
X7412D01*
Y16455D01*
X7639D01*
Y16781D01*
D02*
G37*
G36*
X7312D02*
X7085D01*
Y16455D01*
X7312D01*
Y16781D01*
D02*
G37*
G36*
X16585Y19384D02*
X16423Y19368D01*
X16267Y19321D01*
X16123Y19244D01*
X15997Y19141D01*
X15894Y19015D01*
X15817Y18871D01*
X15770Y18715D01*
X15754Y18553D01*
X15770Y18391D01*
X15817Y18235D01*
X15894Y18092D01*
X15997Y17966D01*
X16123Y17862D01*
X16267Y17786D01*
X16423Y17738D01*
X16585Y17722D01*
X16747Y17738D01*
X16903Y17786D01*
X17046Y17862D01*
X17172Y17966D01*
X17275Y18092D01*
X17352Y18235D01*
X17399Y18391D01*
X17415Y18553D01*
X17399Y18715D01*
X17352Y18871D01*
X17275Y19015D01*
X17172Y19141D01*
X17046Y19244D01*
X16903Y19321D01*
X16747Y19368D01*
X16585Y19384D01*
D02*
G37*
G36*
X1132Y19384D02*
X970Y19368D01*
X814Y19321D01*
X670Y19244D01*
X544Y19141D01*
X441Y19015D01*
X364Y18871D01*
X317Y18715D01*
X301Y18553D01*
X317Y18391D01*
X364Y18235D01*
X441Y18092D01*
X544Y17966D01*
X670Y17862D01*
X814Y17786D01*
X970Y17738D01*
X1132Y17722D01*
X1294Y17738D01*
X1450Y17786D01*
X1593Y17862D01*
X1719Y17966D01*
X1823Y18092D01*
X1899Y18235D01*
X1947Y18391D01*
X1963Y18553D01*
X1947Y18715D01*
X1899Y18871D01*
X1823Y19015D01*
X1719Y19141D01*
X1593Y19244D01*
X1450Y19321D01*
X1294Y19368D01*
X1132Y19384D01*
D02*
G37*
G36*
X7400Y18345D02*
Y17963D01*
X7782D01*
X7774Y18027D01*
X7730Y18133D01*
X7660Y18223D01*
X7570Y18293D01*
X7464Y18337D01*
X7400Y18345D01*
D02*
G37*
G36*
X7300D02*
X7237Y18337D01*
X7131Y18293D01*
X7040Y18223D01*
X6971Y18133D01*
X6927Y18027D01*
X6919Y17963D01*
X7300D01*
Y18345D01*
D02*
G37*
G36*
X9350Y18350D02*
X9237Y18335D01*
X9132Y18292D01*
X9042Y18222D01*
X8972Y18132D01*
X8928Y18026D01*
X8914Y17913D01*
X8928Y17800D01*
X8972Y17695D01*
X9042Y17605D01*
X9132Y17535D01*
X9237Y17491D01*
X9350Y17477D01*
X9463Y17491D01*
X9569Y17535D01*
X9659Y17605D01*
X9729Y17695D01*
X9772Y17800D01*
X9787Y17913D01*
X9772Y18026D01*
X9729Y18132D01*
X9659Y18222D01*
X9569Y18292D01*
X9463Y18335D01*
X9350Y18350D01*
D02*
G37*
G36*
X8350D02*
X8237Y18335D01*
X8132Y18292D01*
X8042Y18222D01*
X7972Y18132D01*
X7928Y18026D01*
X7914Y17913D01*
X7928Y17800D01*
X7972Y17695D01*
X8042Y17605D01*
X8132Y17535D01*
X8237Y17491D01*
X8350Y17477D01*
X8463Y17491D01*
X8569Y17535D01*
X8659Y17605D01*
X8729Y17695D01*
X8772Y17800D01*
X8787Y17913D01*
X8772Y18026D01*
X8729Y18132D01*
X8659Y18222D01*
X8569Y18292D01*
X8463Y18335D01*
X8350Y18350D01*
D02*
G37*
G36*
X7782Y17863D02*
X7400D01*
Y17482D01*
X7464Y17490D01*
X7570Y17534D01*
X7660Y17603D01*
X7730Y17694D01*
X7774Y17800D01*
X7782Y17863D01*
D02*
G37*
G36*
X7300D02*
X6919D01*
X6927Y17800D01*
X6971Y17694D01*
X7040Y17603D01*
X7131Y17534D01*
X7237Y17490D01*
X7300Y17482D01*
Y17863D01*
D02*
G37*
G36*
X7824Y15924D02*
X7498D01*
Y15697D01*
X7824D01*
Y15924D01*
D02*
G37*
G36*
X5740Y10523D02*
X5513D01*
Y10316D01*
X5740D01*
Y10523D01*
D02*
G37*
G36*
X5413D02*
X5185D01*
Y10316D01*
X5413D01*
Y10523D01*
D02*
G37*
G36*
X1908Y14656D02*
X333D01*
Y13986D01*
X920D01*
Y12502D01*
X935Y12425D01*
X979Y12360D01*
X1308Y12030D01*
X1301Y12013D01*
X1286Y11900D01*
X1301Y11787D01*
X1344Y11681D01*
X1414Y11591D01*
X1504Y11521D01*
X1609Y11478D01*
X1722Y11463D01*
X1835Y11478D01*
X1941Y11521D01*
X2031Y11591D01*
X2101Y11681D01*
X2144Y11787D01*
X2159Y11900D01*
X2144Y12013D01*
X2101Y12118D01*
X2031Y12208D01*
X1941Y12278D01*
X1835Y12322D01*
X1722Y12336D01*
X1609Y12322D01*
X1592Y12314D01*
X1321Y12585D01*
Y13986D01*
X1908D01*
Y14656D01*
D02*
G37*
G36*
X738Y12336D02*
X625Y12322D01*
X520Y12278D01*
X429Y12208D01*
X360Y12118D01*
X316Y12013D01*
X301Y11900D01*
X316Y11787D01*
X360Y11681D01*
X429Y11591D01*
X520Y11521D01*
X625Y11478D01*
X738Y11463D01*
X851Y11478D01*
X957Y11521D01*
X1047Y11591D01*
X1116Y11681D01*
X1160Y11787D01*
X1175Y11900D01*
X1160Y12013D01*
X1116Y12118D01*
X1047Y12208D01*
X957Y12278D01*
X851Y12322D01*
X738Y12336D01*
D02*
G37*
G36*
X4657Y10287D02*
X4479D01*
Y10030D01*
X4657D01*
Y10287D01*
D02*
G37*
G36*
X4379D02*
X4201D01*
Y10030D01*
X4379D01*
Y10287D01*
D02*
G37*
G36*
X1722Y11077D02*
X1609Y11062D01*
X1504Y11018D01*
X1414Y10949D01*
X1344Y10858D01*
X1301Y10753D01*
X1286Y10640D01*
X1301Y10527D01*
X1344Y10421D01*
X1414Y10331D01*
X1504Y10261D01*
X1609Y10218D01*
X1722Y10203D01*
X1835Y10218D01*
X1941Y10261D01*
X2031Y10331D01*
X2101Y10421D01*
X2144Y10527D01*
X2159Y10640D01*
X2144Y10753D01*
X2101Y10858D01*
X2031Y10949D01*
X1941Y11018D01*
X1835Y11062D01*
X1722Y11077D01*
D02*
G37*
G36*
X738D02*
X625Y11062D01*
X520Y11018D01*
X429Y10949D01*
X360Y10858D01*
X316Y10753D01*
X301Y10640D01*
X316Y10527D01*
X360Y10421D01*
X429Y10331D01*
X520Y10261D01*
X625Y10218D01*
X738Y10203D01*
X851Y10218D01*
X957Y10261D01*
X1047Y10331D01*
X1116Y10421D01*
X1160Y10527D01*
X1175Y10640D01*
X1160Y10753D01*
X1116Y10858D01*
X1047Y10949D01*
X957Y11018D01*
X851Y11062D01*
X738Y11077D01*
D02*
G37*
G36*
X3978Y16427D02*
X2443D01*
Y15640D01*
X2421Y15599D01*
X2377Y15543D01*
X2350Y15475D01*
X2340Y15404D01*
X2350Y15332D01*
X2377Y15265D01*
X2422Y15207D01*
X2479Y15163D01*
X2546Y15135D01*
X2618Y15126D01*
X2690Y15135D01*
X2757Y15163D01*
X2815Y15207D01*
X2859Y15265D01*
X2887Y15332D01*
X2896Y15404D01*
X2887Y15475D01*
X2859Y15543D01*
X2823Y15590D01*
X2838Y15640D01*
X3978D01*
Y16427D01*
D02*
G37*
G36*
X1909Y15058D02*
X1170D01*
Y14772D01*
X1909D01*
Y15058D01*
D02*
G37*
G36*
Y15444D02*
X1170D01*
Y15158D01*
X1909D01*
Y15444D01*
D02*
G37*
G36*
X1070D02*
X331D01*
Y15158D01*
X1070D01*
Y15444D01*
D02*
G37*
G36*
X6308Y14192D02*
X6170D01*
Y13857D01*
X6308D01*
Y14192D01*
D02*
G37*
G36*
X2618Y14304D02*
X2546Y14294D01*
X2479Y14266D01*
X2422Y14222D01*
X2377Y14165D01*
X2350Y14098D01*
X2340Y14026D01*
X2350Y13954D01*
X2377Y13887D01*
X2421Y13830D01*
X2443Y13789D01*
Y13002D01*
X3978D01*
Y13789D01*
X2838D01*
X2823Y13839D01*
X2859Y13887D01*
X2887Y13954D01*
X2896Y14026D01*
X2887Y14098D01*
X2859Y14165D01*
X2815Y14222D01*
X2757Y14266D01*
X2690Y14294D01*
X2618Y14304D01*
D02*
G37*
G36*
X1070Y15058D02*
X331D01*
Y14772D01*
X1070D01*
Y15058D01*
D02*
G37*
G36*
X6308Y14628D02*
X6170D01*
Y14292D01*
X6308D01*
Y14628D01*
D02*
G37*
%LPD*%
D10*
X7608Y13435D02*
D03*
X6860D02*
D03*
X6614Y16831D02*
D03*
X7362D02*
D03*
X9232Y11171D02*
D03*
X8484D02*
D03*
X9232Y8809D02*
D03*
X8484D02*
D03*
D11*
X7874Y15226D02*
D03*
Y15974D02*
D03*
X8858Y6909D02*
D03*
Y7657D02*
D03*
D12*
X8533Y10394D02*
D03*
X8907D02*
D03*
X9281D02*
D03*
Y9587D02*
D03*
X8533D02*
D03*
D13*
X5709Y15866D02*
D03*
Y15236D02*
D03*
X5463Y10266D02*
D03*
Y10896D02*
D03*
X5561Y2677D02*
D03*
Y2047D02*
D03*
X4380Y2677D02*
D03*
Y2047D02*
D03*
X12746Y2047D02*
D03*
Y2677D02*
D03*
X13337Y2677D02*
D03*
Y2047D02*
D03*
X12156Y2677D02*
D03*
Y2047D02*
D03*
X4970Y2047D02*
D03*
Y2677D02*
D03*
X7087Y8789D02*
D03*
Y9419D02*
D03*
X6496Y8789D02*
D03*
Y9419D02*
D03*
X13287Y8789D02*
D03*
Y9419D02*
D03*
X12697Y8789D02*
D03*
Y9419D02*
D03*
X12106Y8789D02*
D03*
Y9419D02*
D03*
D15*
X10384Y17087D02*
D03*
X10758Y16181D02*
D03*
X10010D02*
D03*
X11860Y17087D02*
D03*
X12234Y16181D02*
D03*
X11486D02*
D03*
X13337Y17087D02*
D03*
X13711Y16181D02*
D03*
X12963D02*
D03*
X4429Y9980D02*
D03*
X4055Y10886D02*
D03*
X4803D02*
D03*
D18*
X10069Y15551D02*
D03*
X10699D02*
D03*
X11545D02*
D03*
X12175D02*
D03*
X13022D02*
D03*
X13652D02*
D03*
X4114Y11516D02*
D03*
X4744D02*
D03*
X5295Y8809D02*
D03*
X5925D02*
D03*
X4114D02*
D03*
X4744D02*
D03*
X16260Y5807D02*
D03*
X15630D02*
D03*
X15630Y5217D02*
D03*
X16260D02*
D03*
X16260Y4626D02*
D03*
X15630D02*
D03*
X15630Y9843D02*
D03*
X16260D02*
D03*
X16260Y9252D02*
D03*
X15630D02*
D03*
X16260Y10433D02*
D03*
X15630D02*
D03*
D25*
X8543Y10404D02*
Y11171D01*
X5463Y10876D02*
X6791D01*
X2707Y11949D02*
X2844D01*
X1120Y15108D02*
X2067D01*
X1120Y14765D02*
Y15108D01*
X295Y15108D02*
X295Y15108D01*
X1120D01*
Y15687D01*
Y12502D02*
Y14321D01*
Y12502D02*
X1722Y11900D01*
X9537Y12343D02*
Y13241D01*
X8484Y11289D02*
X9537Y12343D01*
X8484Y11171D02*
Y11289D01*
X6791Y10876D02*
X8081Y9587D01*
X8533D01*
X9006Y15551D02*
Y15748D01*
X7874Y15226D02*
X8681D01*
X9006Y15551D01*
X7864Y15236D02*
X7874Y15226D01*
X7136Y15236D02*
X7864D01*
X5350Y17386D02*
Y17913D01*
Y17386D02*
X5906Y16831D01*
X6614D01*
X6614Y16831D01*
X5709Y15236D02*
X7136D01*
X11516Y15059D02*
X12992D01*
X14075D01*
X10827D02*
X11516D01*
X14321Y15305D02*
Y16486D01*
X14075Y15059D02*
X14321Y15305D01*
Y16486D02*
X14744Y16909D01*
X16309D01*
X17274Y15945D01*
X6339Y17902D02*
X6350Y17913D01*
X8533Y8819D02*
Y9587D01*
Y8819D02*
X8543Y8809D01*
X7087Y8789D02*
X7106Y8809D01*
X6496Y8789D02*
X7087D01*
X7077Y8780D02*
X7087Y8789D01*
X8533Y10394D02*
X8543Y10404D01*
X7106Y8809D02*
X8484D01*
X8543D01*
X6791Y10785D02*
Y10876D01*
X5584Y9577D02*
X6791Y10785D01*
X2857Y9577D02*
X5584D01*
X17274Y15945D02*
X17323Y15896D01*
Y9990D02*
Y15896D01*
X16585Y9252D02*
X17323Y9990D01*
X16260Y9252D02*
X16585D01*
X13337Y2677D02*
X13711Y2303D01*
Y1808D02*
Y2303D01*
X13106Y1204D02*
X13711Y1808D01*
X7034Y1204D02*
X13106D01*
X5561Y2677D02*
X7034Y1204D01*
X16260Y9252D02*
X16831Y8681D01*
Y4921D02*
Y8681D01*
X16535Y4626D02*
X16831Y4921D01*
X13337Y2677D02*
X14311D01*
X5561D02*
Y2815D01*
X4882Y3494D02*
X5561Y2815D01*
X4035Y3494D02*
X4882D01*
X3445Y4085D02*
X4035Y3494D01*
X7077Y8258D02*
Y8780D01*
X1230Y8144D02*
X1762Y8675D01*
Y9176D01*
X2759Y9675D02*
X2857Y9577D01*
X1762Y9176D02*
X2261Y9675D01*
X2759D01*
X2844Y11949D02*
X3346Y12451D01*
X8169D02*
X9006Y13287D01*
X3346Y12451D02*
X8169D01*
X4813Y10896D02*
X5463D01*
X4803Y10886D02*
X4813Y10896D01*
X4803Y10886D02*
Y11457D01*
X4744Y11516D02*
X4803Y11457D01*
X9006Y13287D02*
Y14173D01*
X9537Y13241D02*
X10285Y13989D01*
Y14468D01*
X9006Y15748D02*
X10285Y14468D01*
X16260Y4626D02*
X16535D01*
X14311Y2677D02*
X16260Y4626D01*
D26*
X4380Y2047D02*
X5561D01*
X1230Y6144D02*
X1764Y5610D01*
X2510Y8144D02*
X2535D01*
X7234Y11149D02*
X8364Y10020D01*
X12746Y2047D02*
X13337D01*
X16260Y10433D02*
X16267Y10440D01*
Y11826D01*
X16107Y11985D02*
X16267Y11826D01*
X15440Y11985D02*
X16107D01*
X15384Y11929D02*
X15440Y11985D01*
X15955Y6112D02*
Y11238D01*
X8415Y16193D02*
X9348Y17126D01*
X8415Y15600D02*
Y16193D01*
X10079Y16181D02*
X10679Y16782D01*
X10975D01*
X9348Y17126D02*
X9892D01*
X11654Y16181D02*
X12205Y16732D01*
X5709Y15866D02*
X5817Y15974D01*
X6358D01*
X7608Y13435D02*
Y14045D01*
X7411Y14242D02*
X7608Y14045D01*
X7126Y14242D02*
X7411D01*
X6860Y14232D02*
X6870Y14242D01*
X6860Y13435D02*
Y14232D01*
X12992Y15059D02*
Y15522D01*
X11486Y16181D02*
X11654D01*
X10010D02*
X10079D01*
X12963D02*
X13002Y16142D01*
X13337D01*
X10069Y15551D02*
X10561Y15059D01*
X10827D01*
X11516D02*
X11545Y15089D01*
Y15551D01*
X12992Y15522D02*
X13022Y15551D01*
X13652D02*
Y16122D01*
X13711Y16181D01*
X13583Y12481D02*
Y14041D01*
X12841Y11739D02*
X13583Y12481D01*
X12519Y11739D02*
X12841D01*
X12296Y11516D02*
X12519Y11739D01*
X10404Y11516D02*
X12296D01*
X13583Y14041D02*
X14715Y15173D01*
Y16240D01*
X13780Y12399D02*
Y13959D01*
X15069Y15249D02*
Y16201D01*
X13780Y13959D02*
X15069Y15249D01*
X13976Y12318D02*
Y13878D01*
X15551Y15453D02*
Y16240D01*
X13976Y13878D02*
X15551Y15453D01*
X13004Y11346D02*
X13976Y12318D01*
X14222Y12286D02*
Y13632D01*
X13086Y11149D02*
X14222Y12286D01*
Y13632D02*
X15256Y14665D01*
X14419Y13337D02*
X15305Y14223D01*
X14419Y12155D02*
Y13337D01*
X14616Y13091D02*
X15354Y13829D01*
X14616Y11811D02*
Y13091D01*
X10350Y17913D02*
X10384Y17880D01*
Y17087D02*
Y17880D01*
X11350Y17913D02*
X11860Y17404D01*
Y17087D02*
Y17404D01*
X12350Y17913D02*
X13189D01*
X13337Y17766D01*
Y17087D02*
Y17766D01*
X12175Y16122D02*
X12234Y16181D01*
X12175Y15551D02*
Y16122D01*
X10699D02*
X10758Y16181D01*
X10699Y15551D02*
Y16122D01*
X15955Y6112D02*
X16260Y5807D01*
X15955Y11238D02*
X15994Y11278D01*
Y11713D01*
X14075Y9744D02*
X15699Y11368D01*
X14075Y6245D02*
Y9744D01*
X13878Y10187D02*
X15069Y11378D01*
X13878Y6327D02*
Y10187D01*
X12689Y5138D02*
X13878Y6327D01*
X15630Y9252D02*
Y9843D01*
X15630Y9843D02*
X15630Y9843D01*
X15059Y9843D02*
X15630D01*
X4085Y5138D02*
X12689D01*
X12771Y4941D02*
X14075Y6245D01*
X3839Y4941D02*
X12771D01*
X13435Y10630D02*
X14616Y11811D01*
X11171Y11221D02*
X12279D01*
X12279Y11220D01*
X12601Y11542D01*
X10876Y10974D02*
X10903Y10948D01*
X12922Y11542D02*
X13780Y12399D01*
X12285Y10948D02*
X12682Y11346D01*
X10903Y10948D02*
X12285D01*
X12601Y11542D02*
X12922D01*
X12682Y11346D02*
X13004D01*
X12795Y11073D02*
X12871Y11149D01*
X13140Y10876D02*
X14419Y12155D01*
X8858Y7657D02*
Y9805D01*
X4114Y8189D02*
X4134Y8169D01*
X4114Y8189D02*
Y8809D01*
X4744Y8396D02*
X4774Y8366D01*
X4744Y8396D02*
Y8809D01*
X5709Y8120D02*
Y8396D01*
X5295Y8809D02*
X5709Y8396D01*
X5925Y8396D02*
X5981Y8340D01*
X5925Y8396D02*
Y8809D01*
X11762Y8317D02*
X12106Y8661D01*
Y8789D01*
X12254Y8317D02*
X12697Y8760D01*
Y8789D01*
X13287Y8268D02*
Y8789D01*
X12871Y11149D02*
X13086D01*
X15630Y9843D02*
Y10433D01*
X15630Y9843D02*
X15630Y9843D01*
X15630Y5217D02*
Y5807D01*
X15630Y5217D02*
X15630Y5217D01*
Y4626D02*
Y5217D01*
X15630Y5217D02*
X15630Y5217D01*
X15059Y5217D02*
X15630D01*
X12746Y2047D02*
X12746Y2047D01*
X12156D02*
X12746D01*
X12746Y2047D01*
Y1526D02*
Y2047D01*
X4970Y1526D02*
Y2047D01*
X11319Y3199D02*
X11841Y2677D01*
X12156D01*
X3789Y2657D02*
X3809Y2677D01*
X4380D01*
X748Y6343D02*
X999Y6594D01*
X3248D01*
X3789Y7136D01*
X3612Y5610D02*
X4085Y5138D01*
X748Y5626D02*
Y6343D01*
Y5626D02*
X1230Y5144D01*
X1764Y5610D02*
X3612D01*
X3474Y4577D02*
X3839Y4941D01*
X1230Y4144D02*
X1663Y4577D01*
X3474D01*
X7234Y11149D02*
Y11319D01*
X6496Y12106D02*
X6496Y12106D01*
Y12106D02*
Y12106D01*
X7628D01*
X4439Y11841D02*
X5049D01*
X4114Y11516D02*
X4439Y11841D01*
X4055Y10886D02*
Y11457D01*
X4114Y11516D01*
X5803Y11860D02*
X5830Y11834D01*
X8438D01*
X12402Y14222D02*
X12697D01*
X10039Y11860D02*
X12402Y14222D01*
X8364Y10020D02*
X8644D01*
X8858Y9805D01*
X9281Y10394D02*
X10404Y11516D01*
X8438Y11834D02*
X8465Y11860D01*
X11655Y13091D02*
X12844D01*
X10130Y11565D02*
X11655Y13091D01*
X9744Y11565D02*
X10130D01*
X5049Y11841D02*
X5620Y11270D01*
X6201D01*
X2175Y10039D02*
X3150D01*
X1230Y9094D02*
X2175Y10039D01*
X7283Y14715D02*
X8612Y13386D01*
X6742Y14715D02*
X7283D01*
X6614Y14242D02*
Y14587D01*
X6742Y14715D01*
X10778Y13435D02*
X12057Y14715D01*
X12697D01*
D28*
X2707Y11900D02*
D03*
X1722D02*
D03*
X738D02*
D03*
Y10640D02*
D03*
X1722D02*
D03*
X2707D02*
D03*
X1230Y6094D02*
D03*
Y7094D02*
D03*
Y8094D02*
D03*
Y5094D02*
D03*
Y4094D02*
D03*
X2510Y6094D02*
D03*
Y7094D02*
D03*
Y8094D02*
D03*
Y5094D02*
D03*
Y4094D02*
D03*
X5350Y17913D02*
D03*
X6350D02*
D03*
X9350D02*
D03*
X10350D02*
D03*
X11350D02*
D03*
X8350D02*
D03*
X7350D02*
D03*
D29*
X1230Y9094D02*
D03*
X2510D02*
D03*
D30*
X1132Y1132D02*
D03*
X16585D02*
D03*
Y18553D02*
D03*
X1132D02*
D03*
D31*
X12350Y17913D02*
D03*
D32*
X12018Y6102D02*
D03*
X5719D02*
D03*
D33*
X16880Y14665D02*
D03*
X16497Y6602D02*
D03*
X16997Y3602D02*
D03*
X16497Y2602D02*
D03*
X15497Y6602D02*
D03*
X15997Y3602D02*
D03*
X15497Y2602D02*
D03*
Y602D02*
D03*
X14997Y7602D02*
D03*
X14497Y6602D02*
D03*
X14997Y5602D02*
D03*
X14497Y4602D02*
D03*
X14997Y1602D02*
D03*
X14497Y602D02*
D03*
X13497Y6602D02*
D03*
X13997Y5602D02*
D03*
X13497Y4602D02*
D03*
X13997Y3602D02*
D03*
Y1602D02*
D03*
X13497Y602D02*
D03*
X12497Y6602D02*
D03*
Y4602D02*
D03*
X11497Y6602D02*
D03*
Y4602D02*
D03*
X11997Y3602D02*
D03*
X11497Y2602D02*
D03*
X11997Y1602D02*
D03*
X11497Y602D02*
D03*
X10497Y6602D02*
D03*
X10997Y5602D02*
D03*
X10497Y4602D02*
D03*
X10997Y3602D02*
D03*
X10497Y2602D02*
D03*
X10997Y1602D02*
D03*
X10497Y602D02*
D03*
X9497Y6602D02*
D03*
X9997Y5602D02*
D03*
X9497Y4602D02*
D03*
X9997Y3602D02*
D03*
X9497Y2602D02*
D03*
X9997Y1602D02*
D03*
X9497Y602D02*
D03*
X8997Y5602D02*
D03*
X8497Y4602D02*
D03*
X8997Y3602D02*
D03*
X8497Y2602D02*
D03*
X8997Y1602D02*
D03*
X8497Y602D02*
D03*
X7497Y6602D02*
D03*
X7997Y5602D02*
D03*
X7497Y4602D02*
D03*
X7997Y3602D02*
D03*
X7497Y2602D02*
D03*
X7997Y1602D02*
D03*
X7497Y602D02*
D03*
X6497Y6602D02*
D03*
X6997Y5602D02*
D03*
X6497Y4602D02*
D03*
Y2602D02*
D03*
Y602D02*
D03*
X5497Y16602D02*
D03*
Y6602D02*
D03*
X5997Y5602D02*
D03*
X5497Y4602D02*
D03*
X5997Y3602D02*
D03*
Y1602D02*
D03*
X5497Y602D02*
D03*
X4497Y16602D02*
D03*
X4997Y15602D02*
D03*
X4497Y6602D02*
D03*
Y4602D02*
D03*
Y602D02*
D03*
X3997Y1602D02*
D03*
X3497Y602D02*
D03*
X2497Y12602D02*
D03*
X2997Y3602D02*
D03*
X2497Y2602D02*
D03*
X2997Y1602D02*
D03*
X2497Y602D02*
D03*
X1997Y7602D02*
D03*
Y3602D02*
D03*
X1497Y2602D02*
D03*
X1997Y1602D02*
D03*
X497Y4602D02*
D03*
Y2602D02*
D03*
X9843Y14075D02*
D03*
X11270Y14321D02*
D03*
X15384Y11929D02*
D03*
X8415Y15600D02*
D03*
X10975Y16782D02*
D03*
X9892Y17126D02*
D03*
X12205Y16732D02*
D03*
X12697Y14222D02*
D03*
Y14715D02*
D03*
X13337Y16142D02*
D03*
X15305Y14223D02*
D03*
X15256Y14665D02*
D03*
X15354Y13829D02*
D03*
X11319Y3199D02*
D03*
X3789Y7136D02*
D03*
X15994Y11713D02*
D03*
X15069Y11378D02*
D03*
X15699Y11368D02*
D03*
X15059Y9843D02*
D03*
X13435Y10630D02*
D03*
X14715Y16240D02*
D03*
X11171Y11221D02*
D03*
X10876Y10974D02*
D03*
X12795Y11073D02*
D03*
X13140Y10876D02*
D03*
X4134Y8169D02*
D03*
X4774Y8366D02*
D03*
X5709Y8120D02*
D03*
X5981Y8340D02*
D03*
X11762Y8317D02*
D03*
X12254D02*
D03*
X13287Y8268D02*
D03*
X15551Y16240D02*
D03*
X15069Y16201D02*
D03*
X15059Y5217D02*
D03*
X12746Y1526D02*
D03*
X4970D02*
D03*
X3789Y2657D02*
D03*
X7234Y11319D02*
D03*
X6496Y12106D02*
D03*
X7628Y12106D02*
D03*
X5803Y11860D02*
D03*
X10039Y11860D02*
D03*
X12844Y13091D02*
D03*
X8465Y11860D02*
D03*
X9744Y11565D02*
D03*
X6201Y11270D02*
D03*
X3150Y10039D02*
D03*
X8612Y13386D02*
D03*
X10778Y13435D02*
D03*
D34*
X10276Y13199D02*
D03*
X6791Y10876D02*
D03*
X9006Y15748D02*
D03*
X17274Y15945D02*
D03*
X10827Y15059D02*
D03*
X3445Y4085D02*
D03*
X7077Y8258D02*
D03*
X9006Y14173D02*
D03*
D35*
X3210Y16033D02*
D03*
Y13396D02*
D03*
D36*
X1120Y15108D02*
D03*
D37*
Y14321D02*
D03*
D38*
X7126Y14242D02*
D03*
X6870D02*
D03*
X6614D02*
D03*
X6358D02*
D03*
X7126Y15974D02*
D03*
X6870D02*
D03*
X6614D02*
D03*
X6358D02*
D03*
D39*
X9006Y14173D02*
D03*
Y15748D02*
D03*
D40*
X6614Y15974D02*
Y16831D01*
X6870Y15502D02*
X7136Y15236D01*
X6870Y15502D02*
Y15974D01*
M02*
